<?xml version="1.0" encoding="utf-8" standalone="no"?>
<!DOCTYPE svg PUBLIC "-//W3C//DTD SVG 1.1//EN"
  "http://www.w3.org/Graphics/SVG/1.1/DTD/svg11.dtd">
<svg xmlns:xlink="http://www.w3.org/1999/xlink" width="576pt" height="432pt" viewBox="0 0 576 432" xmlns="http://www.w3.org/2000/svg" version="1.1">
 <metadata>
  <rdf:RDF xmlns:dc="http://purl.org/dc/elements/1.1/" xmlns:cc="http://creativecommons.org/ns#" xmlns:rdf="http://www.w3.org/1999/02/22-rdf-syntax-ns#">
   <cc:Work>
    <dc:type rdf:resource="http://purl.org/dc/dcmitype/StillImage"/>
    <dc:date>2024-09-08T17:58:19.444188</dc:date>
    <dc:format>image/svg+xml</dc:format>
    <dc:creator>
     <cc:Agent>
      <dc:title>Matplotlib v3.9.2, https://matplotlib.org/</dc:title>
     </cc:Agent>
    </dc:creator>
   </cc:Work>
  </rdf:RDF>
 </metadata>
 <defs>
  <style type="text/css">*{stroke-linejoin: round; stroke-linecap: butt}</style>
 </defs>
 <g id="figure_1">
  <g id="patch_1">
   <path d="M 0 432 
L 576 432 
L 576 0 
L 0 0 
z
" style="fill: #ffffff"/>
  </g>
  <g id="axes_1">
   <g id="patch_2">
    <path d="M 52.112 386.728 
L 565.2 386.728 
L 565.2 10.8 
L 52.112 10.8 
z
" style="fill: #ffffff"/>
   </g>
   <g id="matplotlib.axis_1">
    <g id="xtick_1">
     <g id="line2d_1">
      <defs>
       <path id="mb625c2a317" d="M 0 0 
L 0 3.5 
" style="stroke: #000000; stroke-width: 0.8"/>
      </defs>
      <g>
       <use xlink:href="#mb625c2a317" x="75.434182" y="386.728" style="stroke: #000000; stroke-width: 0.8"/>
      </g>
     </g>
     <g id="text_1">
      <!-- $\mathdefault{10^{1}}$ -->
      <g transform="translate(66.634182 401.326437) scale(0.1 -0.1)">
       <defs>
        <path id="DejaVuSans-31" d="M 794 531 
L 1825 531 
L 1825 4091 
L 703 3866 
L 703 4441 
L 1819 4666 
L 2450 4666 
L 2450 531 
L 3481 531 
L 3481 0 
L 794 0 
L 794 531 
z
" transform="scale(0.015625)"/>
        <path id="DejaVuSans-30" d="M 2034 4250 
Q 1547 4250 1301 3770 
Q 1056 3291 1056 2328 
Q 1056 1369 1301 889 
Q 1547 409 2034 409 
Q 2525 409 2770 889 
Q 3016 1369 3016 2328 
Q 3016 3291 2770 3770 
Q 2525 4250 2034 4250 
z
M 2034 4750 
Q 2819 4750 3233 4129 
Q 3647 3509 3647 2328 
Q 3647 1150 3233 529 
Q 2819 -91 2034 -91 
Q 1250 -91 836 529 
Q 422 1150 422 2328 
Q 422 3509 836 4129 
Q 1250 4750 2034 4750 
z
" transform="scale(0.015625)"/>
       </defs>
       <use xlink:href="#DejaVuSans-31" transform="translate(0 0.684375)"/>
       <use xlink:href="#DejaVuSans-30" transform="translate(63.623047 0.684375)"/>
       <use xlink:href="#DejaVuSans-31" transform="translate(128.203125 38.965625) scale(0.7)"/>
      </g>
     </g>
    </g>
    <g id="xtick_2">
     <g id="line2d_2">
      <g>
       <use xlink:href="#mb625c2a317" x="308.656" y="386.728" style="stroke: #000000; stroke-width: 0.8"/>
      </g>
     </g>
     <g id="text_2">
      <!-- $\mathdefault{10^{2}}$ -->
      <g transform="translate(299.856 401.326437) scale(0.1 -0.1)">
       <defs>
        <path id="DejaVuSans-32" d="M 1228 531 
L 3431 531 
L 3431 0 
L 469 0 
L 469 531 
Q 828 903 1448 1529 
Q 2069 2156 2228 2338 
Q 2531 2678 2651 2914 
Q 2772 3150 2772 3378 
Q 2772 3750 2511 3984 
Q 2250 4219 1831 4219 
Q 1534 4219 1204 4116 
Q 875 4013 500 3803 
L 500 4441 
Q 881 4594 1212 4672 
Q 1544 4750 1819 4750 
Q 2544 4750 2975 4387 
Q 3406 4025 3406 3419 
Q 3406 3131 3298 2873 
Q 3191 2616 2906 2266 
Q 2828 2175 2409 1742 
Q 1991 1309 1228 531 
z
" transform="scale(0.015625)"/>
       </defs>
       <use xlink:href="#DejaVuSans-31" transform="translate(0 0.765625)"/>
       <use xlink:href="#DejaVuSans-30" transform="translate(63.623047 0.765625)"/>
       <use xlink:href="#DejaVuSans-32" transform="translate(128.203125 39.046875) scale(0.7)"/>
      </g>
     </g>
    </g>
    <g id="xtick_3">
     <g id="line2d_3">
      <g>
       <use xlink:href="#mb625c2a317" x="541.877818" y="386.728" style="stroke: #000000; stroke-width: 0.8"/>
      </g>
     </g>
     <g id="text_3">
      <!-- $\mathdefault{10^{3}}$ -->
      <g transform="translate(533.077818 401.326437) scale(0.1 -0.1)">
       <defs>
        <path id="DejaVuSans-33" d="M 2597 2516 
Q 3050 2419 3304 2112 
Q 3559 1806 3559 1356 
Q 3559 666 3084 287 
Q 2609 -91 1734 -91 
Q 1441 -91 1130 -33 
Q 819 25 488 141 
L 488 750 
Q 750 597 1062 519 
Q 1375 441 1716 441 
Q 2309 441 2620 675 
Q 2931 909 2931 1356 
Q 2931 1769 2642 2001 
Q 2353 2234 1838 2234 
L 1294 2234 
L 1294 2753 
L 1863 2753 
Q 2328 2753 2575 2939 
Q 2822 3125 2822 3475 
Q 2822 3834 2567 4026 
Q 2313 4219 1838 4219 
Q 1578 4219 1281 4162 
Q 984 4106 628 3988 
L 628 4550 
Q 988 4650 1302 4700 
Q 1616 4750 1894 4750 
Q 2613 4750 3031 4423 
Q 3450 4097 3450 3541 
Q 3450 3153 3228 2886 
Q 3006 2619 2597 2516 
z
" transform="scale(0.015625)"/>
       </defs>
       <use xlink:href="#DejaVuSans-31" transform="translate(0 0.765625)"/>
       <use xlink:href="#DejaVuSans-30" transform="translate(63.623047 0.765625)"/>
       <use xlink:href="#DejaVuSans-33" transform="translate(128.203125 39.046875) scale(0.7)"/>
      </g>
     </g>
    </g>
    <g id="xtick_4">
     <g id="line2d_4">
      <defs>
       <path id="ma279781ed6" d="M 0 0 
L 0 2 
" style="stroke: #000000; stroke-width: 0.6"/>
      </defs>
      <g>
       <use xlink:href="#ma279781ed6" x="52.832652" y="386.728" style="stroke: #000000; stroke-width: 0.6"/>
      </g>
     </g>
    </g>
    <g id="xtick_5">
     <g id="line2d_5">
      <g>
       <use xlink:href="#ma279781ed6" x="64.762537" y="386.728" style="stroke: #000000; stroke-width: 0.6"/>
      </g>
     </g>
    </g>
    <g id="xtick_6">
     <g id="line2d_6">
      <g>
       <use xlink:href="#ma279781ed6" x="145.640945" y="386.728" style="stroke: #000000; stroke-width: 0.6"/>
      </g>
     </g>
    </g>
    <g id="xtick_7">
     <g id="line2d_7">
      <g>
       <use xlink:href="#ma279781ed6" x="186.709268" y="386.728" style="stroke: #000000; stroke-width: 0.6"/>
      </g>
     </g>
    </g>
    <g id="xtick_8">
     <g id="line2d_8">
      <g>
       <use xlink:href="#ma279781ed6" x="215.847708" y="386.728" style="stroke: #000000; stroke-width: 0.6"/>
      </g>
     </g>
    </g>
    <g id="xtick_9">
     <g id="line2d_9">
      <g>
       <use xlink:href="#ma279781ed6" x="238.449237" y="386.728" style="stroke: #000000; stroke-width: 0.6"/>
      </g>
     </g>
    </g>
    <g id="xtick_10">
     <g id="line2d_10">
      <g>
       <use xlink:href="#ma279781ed6" x="256.916031" y="386.728" style="stroke: #000000; stroke-width: 0.6"/>
      </g>
     </g>
    </g>
    <g id="xtick_11">
     <g id="line2d_11">
      <g>
       <use xlink:href="#ma279781ed6" x="272.529483" y="386.728" style="stroke: #000000; stroke-width: 0.6"/>
      </g>
     </g>
    </g>
    <g id="xtick_12">
     <g id="line2d_12">
      <g>
       <use xlink:href="#ma279781ed6" x="286.054471" y="386.728" style="stroke: #000000; stroke-width: 0.6"/>
      </g>
     </g>
    </g>
    <g id="xtick_13">
     <g id="line2d_13">
      <g>
       <use xlink:href="#ma279781ed6" x="297.984355" y="386.728" style="stroke: #000000; stroke-width: 0.6"/>
      </g>
     </g>
    </g>
    <g id="xtick_14">
     <g id="line2d_14">
      <g>
       <use xlink:href="#ma279781ed6" x="378.862763" y="386.728" style="stroke: #000000; stroke-width: 0.6"/>
      </g>
     </g>
    </g>
    <g id="xtick_15">
     <g id="line2d_15">
      <g>
       <use xlink:href="#ma279781ed6" x="419.931087" y="386.728" style="stroke: #000000; stroke-width: 0.6"/>
      </g>
     </g>
    </g>
    <g id="xtick_16">
     <g id="line2d_16">
      <g>
       <use xlink:href="#ma279781ed6" x="449.069526" y="386.728" style="stroke: #000000; stroke-width: 0.6"/>
      </g>
     </g>
    </g>
    <g id="xtick_17">
     <g id="line2d_17">
      <g>
       <use xlink:href="#ma279781ed6" x="471.671055" y="386.728" style="stroke: #000000; stroke-width: 0.6"/>
      </g>
     </g>
    </g>
    <g id="xtick_18">
     <g id="line2d_18">
      <g>
       <use xlink:href="#ma279781ed6" x="490.137849" y="386.728" style="stroke: #000000; stroke-width: 0.6"/>
      </g>
     </g>
    </g>
    <g id="xtick_19">
     <g id="line2d_19">
      <g>
       <use xlink:href="#ma279781ed6" x="505.751301" y="386.728" style="stroke: #000000; stroke-width: 0.6"/>
      </g>
     </g>
    </g>
    <g id="xtick_20">
     <g id="line2d_20">
      <g>
       <use xlink:href="#ma279781ed6" x="519.276289" y="386.728" style="stroke: #000000; stroke-width: 0.6"/>
      </g>
     </g>
    </g>
    <g id="xtick_21">
     <g id="line2d_21">
      <g>
       <use xlink:href="#ma279781ed6" x="531.206173" y="386.728" style="stroke: #000000; stroke-width: 0.6"/>
      </g>
     </g>
    </g>
    <g id="text_4">
     <!-- Temperature (K) -->
     <g transform="translate(268.216937 415.004563) scale(0.1 -0.1)">
      <defs>
       <path id="DejaVuSans-54" d="M -19 4666 
L 3928 4666 
L 3928 4134 
L 2272 4134 
L 2272 0 
L 1638 0 
L 1638 4134 
L -19 4134 
L -19 4666 
z
" transform="scale(0.015625)"/>
       <path id="DejaVuSans-65" d="M 3597 1894 
L 3597 1613 
L 953 1613 
Q 991 1019 1311 708 
Q 1631 397 2203 397 
Q 2534 397 2845 478 
Q 3156 559 3463 722 
L 3463 178 
Q 3153 47 2828 -22 
Q 2503 -91 2169 -91 
Q 1331 -91 842 396 
Q 353 884 353 1716 
Q 353 2575 817 3079 
Q 1281 3584 2069 3584 
Q 2775 3584 3186 3129 
Q 3597 2675 3597 1894 
z
M 3022 2063 
Q 3016 2534 2758 2815 
Q 2500 3097 2075 3097 
Q 1594 3097 1305 2825 
Q 1016 2553 972 2059 
L 3022 2063 
z
" transform="scale(0.015625)"/>
       <path id="DejaVuSans-6d" d="M 3328 2828 
Q 3544 3216 3844 3400 
Q 4144 3584 4550 3584 
Q 5097 3584 5394 3201 
Q 5691 2819 5691 2113 
L 5691 0 
L 5113 0 
L 5113 2094 
Q 5113 2597 4934 2840 
Q 4756 3084 4391 3084 
Q 3944 3084 3684 2787 
Q 3425 2491 3425 1978 
L 3425 0 
L 2847 0 
L 2847 2094 
Q 2847 2600 2669 2842 
Q 2491 3084 2119 3084 
Q 1678 3084 1418 2786 
Q 1159 2488 1159 1978 
L 1159 0 
L 581 0 
L 581 3500 
L 1159 3500 
L 1159 2956 
Q 1356 3278 1631 3431 
Q 1906 3584 2284 3584 
Q 2666 3584 2933 3390 
Q 3200 3197 3328 2828 
z
" transform="scale(0.015625)"/>
       <path id="DejaVuSans-70" d="M 1159 525 
L 1159 -1331 
L 581 -1331 
L 581 3500 
L 1159 3500 
L 1159 2969 
Q 1341 3281 1617 3432 
Q 1894 3584 2278 3584 
Q 2916 3584 3314 3078 
Q 3713 2572 3713 1747 
Q 3713 922 3314 415 
Q 2916 -91 2278 -91 
Q 1894 -91 1617 61 
Q 1341 213 1159 525 
z
M 3116 1747 
Q 3116 2381 2855 2742 
Q 2594 3103 2138 3103 
Q 1681 3103 1420 2742 
Q 1159 2381 1159 1747 
Q 1159 1113 1420 752 
Q 1681 391 2138 391 
Q 2594 391 2855 752 
Q 3116 1113 3116 1747 
z
" transform="scale(0.015625)"/>
       <path id="DejaVuSans-72" d="M 2631 2963 
Q 2534 3019 2420 3045 
Q 2306 3072 2169 3072 
Q 1681 3072 1420 2755 
Q 1159 2438 1159 1844 
L 1159 0 
L 581 0 
L 581 3500 
L 1159 3500 
L 1159 2956 
Q 1341 3275 1631 3429 
Q 1922 3584 2338 3584 
Q 2397 3584 2469 3576 
Q 2541 3569 2628 3553 
L 2631 2963 
z
" transform="scale(0.015625)"/>
       <path id="DejaVuSans-61" d="M 2194 1759 
Q 1497 1759 1228 1600 
Q 959 1441 959 1056 
Q 959 750 1161 570 
Q 1363 391 1709 391 
Q 2188 391 2477 730 
Q 2766 1069 2766 1631 
L 2766 1759 
L 2194 1759 
z
M 3341 1997 
L 3341 0 
L 2766 0 
L 2766 531 
Q 2569 213 2275 61 
Q 1981 -91 1556 -91 
Q 1019 -91 701 211 
Q 384 513 384 1019 
Q 384 1609 779 1909 
Q 1175 2209 1959 2209 
L 2766 2209 
L 2766 2266 
Q 2766 2663 2505 2880 
Q 2244 3097 1772 3097 
Q 1472 3097 1187 3025 
Q 903 2953 641 2809 
L 641 3341 
Q 956 3463 1253 3523 
Q 1550 3584 1831 3584 
Q 2591 3584 2966 3190 
Q 3341 2797 3341 1997 
z
" transform="scale(0.015625)"/>
       <path id="DejaVuSans-74" d="M 1172 4494 
L 1172 3500 
L 2356 3500 
L 2356 3053 
L 1172 3053 
L 1172 1153 
Q 1172 725 1289 603 
Q 1406 481 1766 481 
L 2356 481 
L 2356 0 
L 1766 0 
Q 1100 0 847 248 
Q 594 497 594 1153 
L 594 3053 
L 172 3053 
L 172 3500 
L 594 3500 
L 594 4494 
L 1172 4494 
z
" transform="scale(0.015625)"/>
       <path id="DejaVuSans-75" d="M 544 1381 
L 544 3500 
L 1119 3500 
L 1119 1403 
Q 1119 906 1312 657 
Q 1506 409 1894 409 
Q 2359 409 2629 706 
Q 2900 1003 2900 1516 
L 2900 3500 
L 3475 3500 
L 3475 0 
L 2900 0 
L 2900 538 
Q 2691 219 2414 64 
Q 2138 -91 1772 -91 
Q 1169 -91 856 284 
Q 544 659 544 1381 
z
M 1991 3584 
L 1991 3584 
z
" transform="scale(0.015625)"/>
       <path id="DejaVuSans-20" transform="scale(0.015625)"/>
       <path id="DejaVuSans-28" d="M 1984 4856 
Q 1566 4138 1362 3434 
Q 1159 2731 1159 2009 
Q 1159 1288 1364 580 
Q 1569 -128 1984 -844 
L 1484 -844 
Q 1016 -109 783 600 
Q 550 1309 550 2009 
Q 550 2706 781 3412 
Q 1013 4119 1484 4856 
L 1984 4856 
z
" transform="scale(0.015625)"/>
       <path id="DejaVuSans-4b" d="M 628 4666 
L 1259 4666 
L 1259 2694 
L 3353 4666 
L 4166 4666 
L 1850 2491 
L 4331 0 
L 3500 0 
L 1259 2247 
L 1259 0 
L 628 0 
L 628 4666 
z
" transform="scale(0.015625)"/>
       <path id="DejaVuSans-29" d="M 513 4856 
L 1013 4856 
Q 1481 4119 1714 3412 
Q 1947 2706 1947 2009 
Q 1947 1309 1714 600 
Q 1481 -109 1013 -844 
L 513 -844 
Q 928 -128 1133 580 
Q 1338 1288 1338 2009 
Q 1338 2731 1133 3434 
Q 928 4138 513 4856 
z
" transform="scale(0.015625)"/>
      </defs>
      <use xlink:href="#DejaVuSans-54"/>
      <use xlink:href="#DejaVuSans-65" x="44.083984"/>
      <use xlink:href="#DejaVuSans-6d" x="105.607422"/>
      <use xlink:href="#DejaVuSans-70" x="203.019531"/>
      <use xlink:href="#DejaVuSans-65" x="266.496094"/>
      <use xlink:href="#DejaVuSans-72" x="328.019531"/>
      <use xlink:href="#DejaVuSans-61" x="369.132812"/>
      <use xlink:href="#DejaVuSans-74" x="430.412109"/>
      <use xlink:href="#DejaVuSans-75" x="469.621094"/>
      <use xlink:href="#DejaVuSans-72" x="533"/>
      <use xlink:href="#DejaVuSans-65" x="571.863281"/>
      <use xlink:href="#DejaVuSans-20" x="633.386719"/>
      <use xlink:href="#DejaVuSans-28" x="665.173828"/>
      <use xlink:href="#DejaVuSans-4b" x="704.1875"/>
      <use xlink:href="#DejaVuSans-29" x="769.763672"/>
     </g>
    </g>
   </g>
   <g id="matplotlib.axis_2">
    <g id="ytick_1">
     <g id="line2d_22">
      <defs>
       <path id="m19db33b92f" d="M 0 0 
L -3.5 0 
" style="stroke: #000000; stroke-width: 0.8"/>
      </defs>
      <g>
       <use xlink:href="#m19db33b92f" x="52.112" y="354.854542" style="stroke: #000000; stroke-width: 0.8"/>
      </g>
     </g>
     <g id="text_5">
      <!-- −2 -->
      <g transform="translate(30.369813 358.653761) scale(0.1 -0.1)">
       <defs>
        <path id="DejaVuSans-2212" d="M 678 2272 
L 4684 2272 
L 4684 1741 
L 678 1741 
L 678 2272 
z
" transform="scale(0.015625)"/>
       </defs>
       <use xlink:href="#DejaVuSans-2212"/>
       <use xlink:href="#DejaVuSans-32" x="83.789062"/>
      </g>
     </g>
    </g>
    <g id="ytick_2">
     <g id="line2d_23">
      <g>
       <use xlink:href="#m19db33b92f" x="52.112" y="305.038684" style="stroke: #000000; stroke-width: 0.8"/>
      </g>
     </g>
     <g id="text_6">
      <!-- −1 -->
      <g transform="translate(30.369813 308.837903) scale(0.1 -0.1)">
       <use xlink:href="#DejaVuSans-2212"/>
       <use xlink:href="#DejaVuSans-31" x="83.789062"/>
      </g>
     </g>
    </g>
    <g id="ytick_3">
     <g id="line2d_24">
      <g>
       <use xlink:href="#m19db33b92f" x="52.112" y="255.222826" style="stroke: #000000; stroke-width: 0.8"/>
      </g>
     </g>
     <g id="text_7">
      <!-- 0 -->
      <g transform="translate(38.7495 259.022045) scale(0.1 -0.1)">
       <use xlink:href="#DejaVuSans-30"/>
      </g>
     </g>
    </g>
    <g id="ytick_4">
     <g id="line2d_25">
      <g>
       <use xlink:href="#m19db33b92f" x="52.112" y="205.406968" style="stroke: #000000; stroke-width: 0.8"/>
      </g>
     </g>
     <g id="text_8">
      <!-- 1 -->
      <g transform="translate(38.7495 209.206187) scale(0.1 -0.1)">
       <use xlink:href="#DejaVuSans-31"/>
      </g>
     </g>
    </g>
    <g id="ytick_5">
     <g id="line2d_26">
      <g>
       <use xlink:href="#m19db33b92f" x="52.112" y="155.591111" style="stroke: #000000; stroke-width: 0.8"/>
      </g>
     </g>
     <g id="text_9">
      <!-- 2 -->
      <g transform="translate(38.7495 159.390329) scale(0.1 -0.1)">
       <use xlink:href="#DejaVuSans-32"/>
      </g>
     </g>
    </g>
    <g id="ytick_6">
     <g id="line2d_27">
      <g>
       <use xlink:href="#m19db33b92f" x="52.112" y="105.775253" style="stroke: #000000; stroke-width: 0.8"/>
      </g>
     </g>
     <g id="text_10">
      <!-- 3 -->
      <g transform="translate(38.7495 109.574471) scale(0.1 -0.1)">
       <use xlink:href="#DejaVuSans-33"/>
      </g>
     </g>
    </g>
    <g id="ytick_7">
     <g id="line2d_28">
      <g>
       <use xlink:href="#m19db33b92f" x="52.112" y="55.959395" style="stroke: #000000; stroke-width: 0.8"/>
      </g>
     </g>
     <g id="text_11">
      <!-- 4 -->
      <g transform="translate(38.7495 59.758614) scale(0.1 -0.1)">
       <defs>
        <path id="DejaVuSans-34" d="M 2419 4116 
L 825 1625 
L 2419 1625 
L 2419 4116 
z
M 2253 4666 
L 3047 4666 
L 3047 1625 
L 3713 1625 
L 3713 1100 
L 3047 1100 
L 3047 0 
L 2419 0 
L 2419 1100 
L 313 1100 
L 313 1709 
L 2253 4666 
z
" transform="scale(0.015625)"/>
       </defs>
       <use xlink:href="#DejaVuSans-34"/>
      </g>
     </g>
    </g>
    <g id="text_12">
     <!-- Correction to Helmholtz free energy (kJ mol$^{-1}$) -->
     <g transform="translate(24.269813 315.114) rotate(-90) scale(0.1 -0.1)">
      <defs>
       <path id="DejaVuSans-43" d="M 4122 4306 
L 4122 3641 
Q 3803 3938 3442 4084 
Q 3081 4231 2675 4231 
Q 1875 4231 1450 3742 
Q 1025 3253 1025 2328 
Q 1025 1406 1450 917 
Q 1875 428 2675 428 
Q 3081 428 3442 575 
Q 3803 722 4122 1019 
L 4122 359 
Q 3791 134 3420 21 
Q 3050 -91 2638 -91 
Q 1578 -91 968 557 
Q 359 1206 359 2328 
Q 359 3453 968 4101 
Q 1578 4750 2638 4750 
Q 3056 4750 3426 4639 
Q 3797 4528 4122 4306 
z
" transform="scale(0.015625)"/>
       <path id="DejaVuSans-6f" d="M 1959 3097 
Q 1497 3097 1228 2736 
Q 959 2375 959 1747 
Q 959 1119 1226 758 
Q 1494 397 1959 397 
Q 2419 397 2687 759 
Q 2956 1122 2956 1747 
Q 2956 2369 2687 2733 
Q 2419 3097 1959 3097 
z
M 1959 3584 
Q 2709 3584 3137 3096 
Q 3566 2609 3566 1747 
Q 3566 888 3137 398 
Q 2709 -91 1959 -91 
Q 1206 -91 779 398 
Q 353 888 353 1747 
Q 353 2609 779 3096 
Q 1206 3584 1959 3584 
z
" transform="scale(0.015625)"/>
       <path id="DejaVuSans-63" d="M 3122 3366 
L 3122 2828 
Q 2878 2963 2633 3030 
Q 2388 3097 2138 3097 
Q 1578 3097 1268 2742 
Q 959 2388 959 1747 
Q 959 1106 1268 751 
Q 1578 397 2138 397 
Q 2388 397 2633 464 
Q 2878 531 3122 666 
L 3122 134 
Q 2881 22 2623 -34 
Q 2366 -91 2075 -91 
Q 1284 -91 818 406 
Q 353 903 353 1747 
Q 353 2603 823 3093 
Q 1294 3584 2113 3584 
Q 2378 3584 2631 3529 
Q 2884 3475 3122 3366 
z
" transform="scale(0.015625)"/>
       <path id="DejaVuSans-69" d="M 603 3500 
L 1178 3500 
L 1178 0 
L 603 0 
L 603 3500 
z
M 603 4863 
L 1178 4863 
L 1178 4134 
L 603 4134 
L 603 4863 
z
" transform="scale(0.015625)"/>
       <path id="DejaVuSans-6e" d="M 3513 2113 
L 3513 0 
L 2938 0 
L 2938 2094 
Q 2938 2591 2744 2837 
Q 2550 3084 2163 3084 
Q 1697 3084 1428 2787 
Q 1159 2491 1159 1978 
L 1159 0 
L 581 0 
L 581 3500 
L 1159 3500 
L 1159 2956 
Q 1366 3272 1645 3428 
Q 1925 3584 2291 3584 
Q 2894 3584 3203 3211 
Q 3513 2838 3513 2113 
z
" transform="scale(0.015625)"/>
       <path id="DejaVuSans-48" d="M 628 4666 
L 1259 4666 
L 1259 2753 
L 3553 2753 
L 3553 4666 
L 4184 4666 
L 4184 0 
L 3553 0 
L 3553 2222 
L 1259 2222 
L 1259 0 
L 628 0 
L 628 4666 
z
" transform="scale(0.015625)"/>
       <path id="DejaVuSans-6c" d="M 603 4863 
L 1178 4863 
L 1178 0 
L 603 0 
L 603 4863 
z
" transform="scale(0.015625)"/>
       <path id="DejaVuSans-68" d="M 3513 2113 
L 3513 0 
L 2938 0 
L 2938 2094 
Q 2938 2591 2744 2837 
Q 2550 3084 2163 3084 
Q 1697 3084 1428 2787 
Q 1159 2491 1159 1978 
L 1159 0 
L 581 0 
L 581 4863 
L 1159 4863 
L 1159 2956 
Q 1366 3272 1645 3428 
Q 1925 3584 2291 3584 
Q 2894 3584 3203 3211 
Q 3513 2838 3513 2113 
z
" transform="scale(0.015625)"/>
       <path id="DejaVuSans-7a" d="M 353 3500 
L 3084 3500 
L 3084 2975 
L 922 459 
L 3084 459 
L 3084 0 
L 275 0 
L 275 525 
L 2438 3041 
L 353 3041 
L 353 3500 
z
" transform="scale(0.015625)"/>
       <path id="DejaVuSans-66" d="M 2375 4863 
L 2375 4384 
L 1825 4384 
Q 1516 4384 1395 4259 
Q 1275 4134 1275 3809 
L 1275 3500 
L 2222 3500 
L 2222 3053 
L 1275 3053 
L 1275 0 
L 697 0 
L 697 3053 
L 147 3053 
L 147 3500 
L 697 3500 
L 697 3744 
Q 697 4328 969 4595 
Q 1241 4863 1831 4863 
L 2375 4863 
z
" transform="scale(0.015625)"/>
       <path id="DejaVuSans-67" d="M 2906 1791 
Q 2906 2416 2648 2759 
Q 2391 3103 1925 3103 
Q 1463 3103 1205 2759 
Q 947 2416 947 1791 
Q 947 1169 1205 825 
Q 1463 481 1925 481 
Q 2391 481 2648 825 
Q 2906 1169 2906 1791 
z
M 3481 434 
Q 3481 -459 3084 -895 
Q 2688 -1331 1869 -1331 
Q 1566 -1331 1297 -1286 
Q 1028 -1241 775 -1147 
L 775 -588 
Q 1028 -725 1275 -790 
Q 1522 -856 1778 -856 
Q 2344 -856 2625 -561 
Q 2906 -266 2906 331 
L 2906 616 
Q 2728 306 2450 153 
Q 2172 0 1784 0 
Q 1141 0 747 490 
Q 353 981 353 1791 
Q 353 2603 747 3093 
Q 1141 3584 1784 3584 
Q 2172 3584 2450 3431 
Q 2728 3278 2906 2969 
L 2906 3500 
L 3481 3500 
L 3481 434 
z
" transform="scale(0.015625)"/>
       <path id="DejaVuSans-79" d="M 2059 -325 
Q 1816 -950 1584 -1140 
Q 1353 -1331 966 -1331 
L 506 -1331 
L 506 -850 
L 844 -850 
Q 1081 -850 1212 -737 
Q 1344 -625 1503 -206 
L 1606 56 
L 191 3500 
L 800 3500 
L 1894 763 
L 2988 3500 
L 3597 3500 
L 2059 -325 
z
" transform="scale(0.015625)"/>
       <path id="DejaVuSans-6b" d="M 581 4863 
L 1159 4863 
L 1159 1991 
L 2875 3500 
L 3609 3500 
L 1753 1863 
L 3688 0 
L 2938 0 
L 1159 1709 
L 1159 0 
L 581 0 
L 581 4863 
z
" transform="scale(0.015625)"/>
       <path id="DejaVuSans-4a" d="M 628 4666 
L 1259 4666 
L 1259 325 
Q 1259 -519 939 -900 
Q 619 -1281 -91 -1281 
L -331 -1281 
L -331 -750 
L -134 -750 
Q 284 -750 456 -515 
Q 628 -281 628 325 
L 628 4666 
z
" transform="scale(0.015625)"/>
      </defs>
      <use xlink:href="#DejaVuSans-43" transform="translate(0 0.684375)"/>
      <use xlink:href="#DejaVuSans-6f" transform="translate(69.824219 0.684375)"/>
      <use xlink:href="#DejaVuSans-72" transform="translate(131.005859 0.684375)"/>
      <use xlink:href="#DejaVuSans-72" transform="translate(172.119141 0.684375)"/>
      <use xlink:href="#DejaVuSans-65" transform="translate(213.232422 0.684375)"/>
      <use xlink:href="#DejaVuSans-63" transform="translate(274.755859 0.684375)"/>
      <use xlink:href="#DejaVuSans-74" transform="translate(329.736328 0.684375)"/>
      <use xlink:href="#DejaVuSans-69" transform="translate(368.945312 0.684375)"/>
      <use xlink:href="#DejaVuSans-6f" transform="translate(396.728516 0.684375)"/>
      <use xlink:href="#DejaVuSans-6e" transform="translate(457.910156 0.684375)"/>
      <use xlink:href="#DejaVuSans-20" transform="translate(521.289062 0.684375)"/>
      <use xlink:href="#DejaVuSans-74" transform="translate(553.076172 0.684375)"/>
      <use xlink:href="#DejaVuSans-6f" transform="translate(592.285156 0.684375)"/>
      <use xlink:href="#DejaVuSans-20" transform="translate(653.466797 0.684375)"/>
      <use xlink:href="#DejaVuSans-48" transform="translate(685.253906 0.684375)"/>
      <use xlink:href="#DejaVuSans-65" transform="translate(760.449219 0.684375)"/>
      <use xlink:href="#DejaVuSans-6c" transform="translate(821.972656 0.684375)"/>
      <use xlink:href="#DejaVuSans-6d" transform="translate(849.755859 0.684375)"/>
      <use xlink:href="#DejaVuSans-68" transform="translate(947.167969 0.684375)"/>
      <use xlink:href="#DejaVuSans-6f" transform="translate(1010.546875 0.684375)"/>
      <use xlink:href="#DejaVuSans-6c" transform="translate(1071.728516 0.684375)"/>
      <use xlink:href="#DejaVuSans-74" transform="translate(1099.511719 0.684375)"/>
      <use xlink:href="#DejaVuSans-7a" transform="translate(1138.720703 0.684375)"/>
      <use xlink:href="#DejaVuSans-20" transform="translate(1191.210938 0.684375)"/>
      <use xlink:href="#DejaVuSans-66" transform="translate(1222.998047 0.684375)"/>
      <use xlink:href="#DejaVuSans-72" transform="translate(1258.203125 0.684375)"/>
      <use xlink:href="#DejaVuSans-65" transform="translate(1299.316406 0.684375)"/>
      <use xlink:href="#DejaVuSans-65" transform="translate(1360.839844 0.684375)"/>
      <use xlink:href="#DejaVuSans-20" transform="translate(1422.363281 0.684375)"/>
      <use xlink:href="#DejaVuSans-65" transform="translate(1454.150391 0.684375)"/>
      <use xlink:href="#DejaVuSans-6e" transform="translate(1515.673828 0.684375)"/>
      <use xlink:href="#DejaVuSans-65" transform="translate(1579.052734 0.684375)"/>
      <use xlink:href="#DejaVuSans-72" transform="translate(1640.576172 0.684375)"/>
      <use xlink:href="#DejaVuSans-67" transform="translate(1681.689453 0.684375)"/>
      <use xlink:href="#DejaVuSans-79" transform="translate(1745.166016 0.684375)"/>
      <use xlink:href="#DejaVuSans-20" transform="translate(1804.345703 0.684375)"/>
      <use xlink:href="#DejaVuSans-28" transform="translate(1836.132812 0.684375)"/>
      <use xlink:href="#DejaVuSans-6b" transform="translate(1875.146484 0.684375)"/>
      <use xlink:href="#DejaVuSans-4a" transform="translate(1933.056641 0.684375)"/>
      <use xlink:href="#DejaVuSans-20" transform="translate(1962.548828 0.684375)"/>
      <use xlink:href="#DejaVuSans-6d" transform="translate(1994.335938 0.684375)"/>
      <use xlink:href="#DejaVuSans-6f" transform="translate(2091.748047 0.684375)"/>
      <use xlink:href="#DejaVuSans-6c" transform="translate(2152.929688 0.684375)"/>
      <use xlink:href="#DejaVuSans-2212" transform="translate(2181.669922 38.965625) scale(0.7)"/>
      <use xlink:href="#DejaVuSans-31" transform="translate(2240.322266 38.965625) scale(0.7)"/>
      <use xlink:href="#DejaVuSans-29" transform="translate(2287.592773 0.684375)"/>
     </g>
    </g>
   </g>
   <g id="line2d_29">
    <path d="M 75.434182 256.470945 
L 84.95344 256.478473 
L 94.472698 256.490464 
L 103.991955 256.508726 
L 113.511213 256.535471 
L 123.030471 256.573312 
L 132.549729 256.625239 
L 142.068987 256.694568 
L 151.588245 256.78486 
L 161.107503 256.899805 
L 170.626761 257.043063 
L 180.146019 257.218068 
L 189.665276 257.427796 
L 199.184534 257.674508 
L 208.703792 257.959479 
L 218.22305 258.282732 
L 227.742308 258.64278 
L 237.261566 259.036379 
L 246.780824 259.458309 
L 256.300082 259.90115 
L 265.81934 260.35508 
L 275.338597 260.807645 
L 284.857855 261.243523 
L 294.377113 261.644245 
L 303.896371 261.987886 
L 313.415629 262.248689 
L 322.934887 262.396634 
L 332.454145 262.396938 
L 341.973403 262.209469 
L 351.49266 261.788079 
L 361.011918 261.079835 
L 370.531176 260.02415 
L 380.050434 258.551787 
L 389.569692 256.583742 
L 399.08895 254.029981 
L 408.608208 250.78801 
L 418.127466 246.741283 
L 427.646724 241.7574 
L 437.165981 235.686087 
L 446.685239 228.356943 
L 456.204497 219.576901 
L 465.723755 209.127392 
L 475.243013 196.761176 
L 484.762271 182.198782 
L 494.281529 165.124542 
L 503.800787 145.182147 
L 513.320045 121.969685 
L 522.839302 95.034094 
L 532.35856 63.864968 
L 541.877818 27.887636 
" clip-path="url(#p2a814924e0)" style="fill: none; stroke: #ff0000; stroke-width: 1.5; stroke-linecap: square"/>
   </g>
   <g id="line2d_30">
    <path d="M 75.434182 269.451493 
L 84.95344 269.596224 
L 94.472698 269.773655 
L 103.991955 269.987411 
L 113.511213 270.240962 
L 123.030471 270.537479 
L 132.549729 270.879701 
L 142.068987 271.269811 
L 151.588245 271.709343 
L 161.107503 272.199105 
L 170.626761 272.739122 
L 180.146019 273.328595 
L 189.665276 273.965855 
L 199.184534 274.648324 
L 208.703792 275.372455 
L 218.22305 276.133656 
L 227.742308 276.926201 
L 237.261566 277.743097 
L 246.780824 278.575942 
L 256.300082 279.414735 
L 265.81934 280.247661 
L 275.338597 281.060838 
L 284.857855 281.838021 
L 294.377113 282.560263 
L 303.896371 283.205533 
L 313.415629 283.748276 
L 322.934887 284.158916 
L 332.454145 284.403299 
L 341.973403 284.442058 
L 351.49266 284.2299 
L 361.011918 283.714809 
L 370.531176 282.83714 
L 380.050434 281.528608 
L 389.569692 279.711152 
L 399.08895 277.295653 
L 408.608208 274.180508 
L 418.127466 270.250017 
L 427.646724 265.372583 
L 437.165981 259.398695 
L 446.685239 252.158664 
L 456.204497 243.460091 
L 465.723755 233.08503 
L 475.243013 220.786818 
L 484.762271 206.286519 
L 494.281529 189.268962 
L 503.800787 169.378294 
L 513.320045 146.213025 
L 522.839302 119.320481 
L 532.35856 88.190612 
L 541.877818 52.249075 
" clip-path="url(#p2a814924e0)" style="fill: none; stroke: #0000ff; stroke-width: 1.5; stroke-linecap: square"/>
   </g>
   <g id="line2d_31">
    <path d="M 75.434182 255.810387 
L 84.95344 255.812561 
L 94.472698 255.816144 
L 103.991955 255.821772 
L 113.511213 255.830247 
L 123.030471 255.842551 
L 132.549729 255.85987 
L 142.068987 255.883629 
L 151.588245 255.915555 
L 161.107503 255.957762 
L 170.626761 256.012867 
L 180.146019 256.084123 
L 189.665276 256.175563 
L 199.184534 256.292113 
L 208.703792 256.439653 
L 218.22305 256.62498 
L 227.742308 256.855646 
L 237.261566 257.139651 
L 246.780824 257.484997 
L 256.300082 257.899115 
L 265.81934 258.388225 
L 275.338597 258.956662 
L 284.857855 259.606225 
L 294.377113 260.335585 
L 303.896371 261.139763 
L 313.415629 262.009685 
L 322.934887 262.931791 
L 332.454145 263.887675 
L 341.973403 264.853717 
L 351.49266 265.800685 
L 361.011918 266.693271 
L 370.531176 267.489529 
L 380.050434 268.140216 
L 389.569692 268.587986 
L 399.08895 268.766455 
L 408.608208 268.599093 
L 418.127466 267.997957 
L 427.646724 266.862214 
L 437.165981 265.076481 
L 446.685239 262.508914 
L 456.204497 259.009061 
L 465.723755 254.405439 
L 475.243013 248.502797 
L 484.762271 241.079045 
L 494.281529 231.881807 
L 503.800787 220.624551 
L 513.320045 206.98225 
L 522.839302 190.586526 
L 532.35856 171.020208 
L 541.877818 147.811242 
" clip-path="url(#p2a814924e0)" style="fill: none; stroke-dasharray: 5.55,2.4; stroke-dashoffset: 0; stroke: #ff0000; stroke-width: 1.5"/>
   </g>
   <g id="line2d_32">
    <path d="M 75.434182 270.886974 
L 84.95344 271.173159 
L 94.472698 271.505983 
L 103.991955 271.890444 
L 113.511213 272.331522 
L 123.030471 272.834045 
L 132.549729 273.402573 
L 142.068987 274.04129 
L 151.588245 274.753927 
L 161.107503 275.543706 
L 170.626761 276.413304 
L 180.146019 277.364834 
L 189.665276 278.39983 
L 199.184534 279.519228 
L 208.703792 280.723343 
L 218.22305 282.011827 
L 227.742308 283.383613 
L 237.261566 284.836831 
L 246.780824 286.3687 
L 256.300082 287.9754 
L 265.81934 289.651904 
L 275.338597 291.391786 
L 284.857855 293.186992 
L 294.377113 295.027575 
L 303.896371 296.901389 
L 313.415629 298.793737 
L 322.934887 300.686974 
L 332.454145 302.56005 
L 341.973403 304.387996 
L 351.49266 306.141333 
L 361.011918 307.78542 
L 370.531176 309.279697 
L 380.050434 310.576845 
L 389.569692 311.621835 
L 399.08895 312.350851 
L 408.608208 312.690085 
L 418.127466 312.554372 
L 427.646724 311.845657 
L 437.165981 310.451279 
L 446.685239 308.242028 
L 456.204497 305.069974 
L 465.723755 300.766022 
L 475.243013 295.137171 
L 484.762271 287.963441 
L 494.281529 278.994421 
L 503.800787 267.945403 
L 513.320045 254.49305 
L 522.839302 238.270543 
L 532.35856 218.862148 
L 541.877818 195.797134 
" clip-path="url(#p2a814924e0)" style="fill: none; stroke-dasharray: 5.55,2.4; stroke-dashoffset: 0; stroke: #0000ff; stroke-width: 1.5"/>
   </g>
   <g id="line2d_33">
    <path d="M 75.434182 255.509952 
L 84.95344 255.510853 
L 94.472698 255.512355 
L 103.991955 255.514737 
L 113.511213 255.518349 
L 123.030471 255.523614 
L 132.549729 255.531034 
L 142.068987 255.541191 
L 151.588245 255.554763 
L 161.107503 255.572538 
L 170.626761 255.595451 
L 180.146019 255.624619 
L 189.665276 255.661403 
L 199.184534 255.707486 
L 208.703792 255.764972 
L 218.22305 255.836532 
L 227.742308 255.925584 
L 237.261566 256.036531 
L 246.780824 256.175039 
L 256.300082 256.348345 
L 265.81934 256.565541 
L 275.338597 256.837775 
L 284.857855 257.178274 
L 294.377113 257.602131 
L 303.896371 258.125779 
L 313.415629 258.766145 
L 322.934887 259.539531 
L 332.454145 260.460287 
L 341.973403 261.539392 
L 351.49266 262.78307 
L 361.011918 264.191506 
L 370.531176 265.757739 
L 380.050434 267.466731 
L 389.569692 269.294578 
L 399.08895 271.207816 
L 408.608208 273.16275 
L 418.127466 275.104726 
L 427.646724 276.967295 
L 437.165981 278.671203 
L 446.685239 280.123159 
L 456.204497 281.214357 
L 465.723755 281.818712 
L 475.243013 281.790776 
L 484.762271 280.963322 
L 494.281529 279.144556 
L 503.800787 276.114921 
L 513.320045 271.623471 
L 522.839302 265.383753 
L 532.35856 257.069165 
L 541.877818 246.30772 
" clip-path="url(#p2a814924e0)" style="fill: none; stroke-dasharray: 1.5,2.475; stroke-dashoffset: 0; stroke: #ff0000; stroke-width: 1.5"/>
   </g>
   <g id="line2d_34">
    <path d="M 75.434182 272.322454 
L 84.95344 272.750093 
L 94.472698 273.23831 
L 103.991955 273.793477 
L 113.511213 274.422082 
L 123.030471 275.130611 
L 132.549729 275.925445 
L 142.068987 276.812769 
L 151.588245 277.798511 
L 161.107503 278.888306 
L 170.626761 280.087485 
L 180.146019 281.401074 
L 189.665276 282.833805 
L 199.184534 284.390132 
L 208.703792 286.074231 
L 218.22305 287.889998 
L 227.742308 289.841026 
L 237.261566 291.930564 
L 246.780824 294.161458 
L 256.300082 296.536066 
L 265.81934 299.056147 
L 275.338597 301.722734 
L 284.857855 304.535964 
L 294.377113 307.494887 
L 303.896371 310.597244 
L 313.415629 313.839197 
L 322.934887 317.215031 
L 332.454145 320.716801 
L 341.973403 324.333934 
L 351.49266 328.052767 
L 361.011918 331.856031 
L 370.531176 335.722253 
L 380.050434 339.625081 
L 389.569692 343.532518 
L 399.08895 347.40605 
L 408.608208 351.199663 
L 418.127466 354.858727 
L 427.646724 358.318732 
L 437.165981 361.503863 
L 446.685239 364.325393 
L 456.204497 366.679857 
L 465.723755 368.447013 
L 475.243013 369.487525 
L 484.762271 369.640364 
L 494.281529 368.719881 
L 503.800787 366.512512 
L 513.320045 362.773074 
L 522.839302 357.220604 
L 532.35856 349.533684 
L 541.877818 339.345193 
" clip-path="url(#p2a814924e0)" style="fill: none; stroke-dasharray: 1.5,2.475; stroke-dashoffset: 0; stroke: #0000ff; stroke-width: 1.5"/>
   </g>
   <g id="patch_3">
    <path d="M 52.112 386.728 
L 52.112 10.8 
" style="fill: none; stroke: #000000; stroke-width: 0.8; stroke-linejoin: miter; stroke-linecap: square"/>
   </g>
   <g id="patch_4">
    <path d="M 565.2 386.728 
L 565.2 10.8 
" style="fill: none; stroke: #000000; stroke-width: 0.8; stroke-linejoin: miter; stroke-linecap: square"/>
   </g>
   <g id="patch_5">
    <path d="M 52.112 386.728 
L 565.2 386.728 
" style="fill: none; stroke: #000000; stroke-width: 0.8; stroke-linejoin: miter; stroke-linecap: square"/>
   </g>
   <g id="patch_6">
    <path d="M 52.112 10.8 
L 565.2 10.8 
" style="fill: none; stroke: #000000; stroke-width: 0.8; stroke-linejoin: miter; stroke-linecap: square"/>
   </g>
   <g id="legend_1">
    <g id="patch_7">
     <path d="M 59.112 48.15625 
L 105.58075 48.15625 
Q 107.58075 48.15625 107.58075 46.15625 
L 107.58075 17.8 
Q 107.58075 15.8 105.58075 15.8 
L 59.112 15.8 
Q 57.112 15.8 57.112 17.8 
L 57.112 46.15625 
Q 57.112 48.15625 59.112 48.15625 
z
" style="fill: #ffffff; opacity: 0.8; stroke: #cccccc; stroke-linejoin: miter"/>
    </g>
    <g id="line2d_35">
     <path d="M 61.112 23.898438 
L 71.112 23.898438 
L 81.112 23.898438 
" style="fill: none; stroke: #ff0000; stroke-width: 1.5; stroke-linecap: square"/>
    </g>
    <g id="text_13">
     <!-- HR -->
     <g transform="translate(89.112 27.398438) scale(0.1 -0.1)">
      <defs>
       <path id="DejaVuSans-52" d="M 2841 2188 
Q 3044 2119 3236 1894 
Q 3428 1669 3622 1275 
L 4263 0 
L 3584 0 
L 2988 1197 
Q 2756 1666 2539 1819 
Q 2322 1972 1947 1972 
L 1259 1972 
L 1259 0 
L 628 0 
L 628 4666 
L 2053 4666 
Q 2853 4666 3247 4331 
Q 3641 3997 3641 3322 
Q 3641 2881 3436 2590 
Q 3231 2300 2841 2188 
z
M 1259 4147 
L 1259 2491 
L 2053 2491 
Q 2509 2491 2742 2702 
Q 2975 2913 2975 3322 
Q 2975 3731 2742 3939 
Q 2509 4147 2053 4147 
L 1259 4147 
z
" transform="scale(0.015625)"/>
      </defs>
      <use xlink:href="#DejaVuSans-48"/>
      <use xlink:href="#DejaVuSans-52" x="75.195312"/>
     </g>
    </g>
    <g id="line2d_36">
     <path d="M 61.112 38.576563 
L 71.112 38.576563 
L 81.112 38.576563 
" style="fill: none; stroke: #0000ff; stroke-width: 1.5; stroke-linecap: square"/>
    </g>
    <g id="text_14">
     <!-- FR -->
     <g transform="translate(89.112 42.076563) scale(0.1 -0.1)">
      <defs>
       <path id="DejaVuSans-46" d="M 628 4666 
L 3309 4666 
L 3309 4134 
L 1259 4134 
L 1259 2759 
L 3109 2759 
L 3109 2228 
L 1259 2228 
L 1259 0 
L 628 0 
L 628 4666 
z
" transform="scale(0.015625)"/>
      </defs>
      <use xlink:href="#DejaVuSans-46"/>
      <use xlink:href="#DejaVuSans-52" x="57.519531"/>
     </g>
    </g>
   </g>
  </g>
 </g>
 <defs>
  <clipPath id="p2a814924e0">
   <rect x="52.112" y="10.8" width="513.088" height="375.928"/>
  </clipPath>
 </defs>
</svg>
