<?xml version="1.0" encoding="utf-8" standalone="no"?>
<!DOCTYPE svg PUBLIC "-//W3C//DTD SVG 1.1//EN"
  "http://www.w3.org/Graphics/SVG/1.1/DTD/svg11.dtd">
<svg xmlns:xlink="http://www.w3.org/1999/xlink" width="576pt" height="432pt" viewBox="0 0 576 432" xmlns="http://www.w3.org/2000/svg" version="1.1">
 <metadata>
  <rdf:RDF xmlns:dc="http://purl.org/dc/elements/1.1/" xmlns:cc="http://creativecommons.org/ns#" xmlns:rdf="http://www.w3.org/1999/02/22-rdf-syntax-ns#">
   <cc:Work>
    <dc:type rdf:resource="http://purl.org/dc/dcmitype/StillImage"/>
    <dc:date>2024-09-08T17:16:23.958986</dc:date>
    <dc:format>image/svg+xml</dc:format>
    <dc:creator>
     <cc:Agent>
      <dc:title>Matplotlib v3.9.2, https://matplotlib.org/</dc:title>
     </cc:Agent>
    </dc:creator>
   </cc:Work>
  </rdf:RDF>
 </metadata>
 <defs>
  <style type="text/css">*{stroke-linejoin: round; stroke-linecap: butt}</style>
 </defs>
 <g id="figure_1">
  <g id="patch_1">
   <path d="M 0 432 
L 576 432 
L 576 0 
L 0 0 
z
" style="fill: #ffffff"/>
  </g>
  <g id="axes_1">
   <g id="patch_2">
    <path d="M 52.112 384.568 
L 565.2 384.568 
L 565.2 11.519244 
L 52.112 11.519244 
z
" style="fill: #ffffff"/>
   </g>
   <g id="matplotlib.axis_1">
    <g id="xtick_1">
     <g id="line2d_1">
      <defs>
       <path id="m76793195db" d="M 0 0 
L 0 3.5 
" style="stroke: #000000; stroke-width: 0.8"/>
      </defs>
      <g>
       <use xlink:href="#m76793195db" x="73.078406" y="384.568" style="stroke: #000000; stroke-width: 0.8"/>
      </g>
     </g>
     <g id="text_1">
      <!-- 0 -->
      <g transform="translate(69.897156 399.166438) scale(0.1 -0.1)">
       <defs>
        <path id="DejaVuSans-30" d="M 2034 4250 
Q 1547 4250 1301 3770 
Q 1056 3291 1056 2328 
Q 1056 1369 1301 889 
Q 1547 409 2034 409 
Q 2525 409 2770 889 
Q 3016 1369 3016 2328 
Q 3016 3291 2770 3770 
Q 2525 4250 2034 4250 
z
M 2034 4750 
Q 2819 4750 3233 4129 
Q 3647 3509 3647 2328 
Q 3647 1150 3233 529 
Q 2819 -91 2034 -91 
Q 1250 -91 836 529 
Q 422 1150 422 2328 
Q 422 3509 836 4129 
Q 1250 4750 2034 4750 
z
" transform="scale(0.015625)"/>
       </defs>
       <use xlink:href="#DejaVuSans-30"/>
      </g>
     </g>
    </g>
    <g id="xtick_2">
     <g id="line2d_2">
      <g>
       <use xlink:href="#m76793195db" x="131.972804" y="384.568" style="stroke: #000000; stroke-width: 0.8"/>
      </g>
     </g>
     <g id="text_2">
      <!-- 25 -->
      <g transform="translate(125.610304 399.166438) scale(0.1 -0.1)">
       <defs>
        <path id="DejaVuSans-32" d="M 1228 531 
L 3431 531 
L 3431 0 
L 469 0 
L 469 531 
Q 828 903 1448 1529 
Q 2069 2156 2228 2338 
Q 2531 2678 2651 2914 
Q 2772 3150 2772 3378 
Q 2772 3750 2511 3984 
Q 2250 4219 1831 4219 
Q 1534 4219 1204 4116 
Q 875 4013 500 3803 
L 500 4441 
Q 881 4594 1212 4672 
Q 1544 4750 1819 4750 
Q 2544 4750 2975 4387 
Q 3406 4025 3406 3419 
Q 3406 3131 3298 2873 
Q 3191 2616 2906 2266 
Q 2828 2175 2409 1742 
Q 1991 1309 1228 531 
z
" transform="scale(0.015625)"/>
        <path id="DejaVuSans-35" d="M 691 4666 
L 3169 4666 
L 3169 4134 
L 1269 4134 
L 1269 2991 
Q 1406 3038 1543 3061 
Q 1681 3084 1819 3084 
Q 2600 3084 3056 2656 
Q 3513 2228 3513 1497 
Q 3513 744 3044 326 
Q 2575 -91 1722 -91 
Q 1428 -91 1123 -41 
Q 819 9 494 109 
L 494 744 
Q 775 591 1075 516 
Q 1375 441 1709 441 
Q 2250 441 2565 725 
Q 2881 1009 2881 1497 
Q 2881 1984 2565 2268 
Q 2250 2553 1709 2553 
Q 1456 2553 1204 2497 
Q 953 2441 691 2322 
L 691 4666 
z
" transform="scale(0.015625)"/>
       </defs>
       <use xlink:href="#DejaVuSans-32"/>
       <use xlink:href="#DejaVuSans-35" x="63.623047"/>
      </g>
     </g>
    </g>
    <g id="xtick_3">
     <g id="line2d_3">
      <g>
       <use xlink:href="#m76793195db" x="190.867203" y="384.568" style="stroke: #000000; stroke-width: 0.8"/>
      </g>
     </g>
     <g id="text_3">
      <!-- 50 -->
      <g transform="translate(184.504703 399.166438) scale(0.1 -0.1)">
       <use xlink:href="#DejaVuSans-35"/>
       <use xlink:href="#DejaVuSans-30" x="63.623047"/>
      </g>
     </g>
    </g>
    <g id="xtick_4">
     <g id="line2d_4">
      <g>
       <use xlink:href="#m76793195db" x="249.761601" y="384.568" style="stroke: #000000; stroke-width: 0.8"/>
      </g>
     </g>
     <g id="text_4">
      <!-- 75 -->
      <g transform="translate(243.399101 399.166438) scale(0.1 -0.1)">
       <defs>
        <path id="DejaVuSans-37" d="M 525 4666 
L 3525 4666 
L 3525 4397 
L 1831 0 
L 1172 0 
L 2766 4134 
L 525 4134 
L 525 4666 
z
" transform="scale(0.015625)"/>
       </defs>
       <use xlink:href="#DejaVuSans-37"/>
       <use xlink:href="#DejaVuSans-35" x="63.623047"/>
      </g>
     </g>
    </g>
    <g id="xtick_5">
     <g id="line2d_5">
      <g>
       <use xlink:href="#m76793195db" x="308.656" y="384.568" style="stroke: #000000; stroke-width: 0.8"/>
      </g>
     </g>
     <g id="text_5">
      <!-- 100 -->
      <g transform="translate(299.11225 399.166438) scale(0.1 -0.1)">
       <defs>
        <path id="DejaVuSans-31" d="M 794 531 
L 1825 531 
L 1825 4091 
L 703 3866 
L 703 4441 
L 1819 4666 
L 2450 4666 
L 2450 531 
L 3481 531 
L 3481 0 
L 794 0 
L 794 531 
z
" transform="scale(0.015625)"/>
       </defs>
       <use xlink:href="#DejaVuSans-31"/>
       <use xlink:href="#DejaVuSans-30" x="63.623047"/>
       <use xlink:href="#DejaVuSans-30" x="127.246094"/>
      </g>
     </g>
    </g>
    <g id="xtick_6">
     <g id="line2d_6">
      <g>
       <use xlink:href="#m76793195db" x="367.550399" y="384.568" style="stroke: #000000; stroke-width: 0.8"/>
      </g>
     </g>
     <g id="text_6">
      <!-- 125 -->
      <g transform="translate(358.006649 399.166438) scale(0.1 -0.1)">
       <use xlink:href="#DejaVuSans-31"/>
       <use xlink:href="#DejaVuSans-32" x="63.623047"/>
       <use xlink:href="#DejaVuSans-35" x="127.246094"/>
      </g>
     </g>
    </g>
    <g id="xtick_7">
     <g id="line2d_7">
      <g>
       <use xlink:href="#m76793195db" x="426.444797" y="384.568" style="stroke: #000000; stroke-width: 0.8"/>
      </g>
     </g>
     <g id="text_7">
      <!-- 150 -->
      <g transform="translate(416.901047 399.166438) scale(0.1 -0.1)">
       <use xlink:href="#DejaVuSans-31"/>
       <use xlink:href="#DejaVuSans-35" x="63.623047"/>
       <use xlink:href="#DejaVuSans-30" x="127.246094"/>
      </g>
     </g>
    </g>
    <g id="xtick_8">
     <g id="line2d_8">
      <g>
       <use xlink:href="#m76793195db" x="485.339196" y="384.568" style="stroke: #000000; stroke-width: 0.8"/>
      </g>
     </g>
     <g id="text_8">
      <!-- 175 -->
      <g transform="translate(475.795446 399.166438) scale(0.1 -0.1)">
       <use xlink:href="#DejaVuSans-31"/>
       <use xlink:href="#DejaVuSans-37" x="63.623047"/>
       <use xlink:href="#DejaVuSans-35" x="127.246094"/>
      </g>
     </g>
    </g>
    <g id="xtick_9">
     <g id="line2d_9">
      <g>
       <use xlink:href="#m76793195db" x="544.233594" y="384.568" style="stroke: #000000; stroke-width: 0.8"/>
      </g>
     </g>
     <g id="text_9">
      <!-- 200 -->
      <g transform="translate(534.689844 399.166438) scale(0.1 -0.1)">
       <use xlink:href="#DejaVuSans-32"/>
       <use xlink:href="#DejaVuSans-30" x="63.623047"/>
       <use xlink:href="#DejaVuSans-30" x="127.246094"/>
      </g>
     </g>
    </g>
    <g id="text_10">
     <!-- Vibrational frequency (cm$^{-1}$ -->
     <g transform="translate(238.206 414.246125) scale(0.1 -0.1)">
      <defs>
       <path id="DejaVuSans-56" d="M 1831 0 
L 50 4666 
L 709 4666 
L 2188 738 
L 3669 4666 
L 4325 4666 
L 2547 0 
L 1831 0 
z
" transform="scale(0.015625)"/>
       <path id="DejaVuSans-69" d="M 603 3500 
L 1178 3500 
L 1178 0 
L 603 0 
L 603 3500 
z
M 603 4863 
L 1178 4863 
L 1178 4134 
L 603 4134 
L 603 4863 
z
" transform="scale(0.015625)"/>
       <path id="DejaVuSans-62" d="M 3116 1747 
Q 3116 2381 2855 2742 
Q 2594 3103 2138 3103 
Q 1681 3103 1420 2742 
Q 1159 2381 1159 1747 
Q 1159 1113 1420 752 
Q 1681 391 2138 391 
Q 2594 391 2855 752 
Q 3116 1113 3116 1747 
z
M 1159 2969 
Q 1341 3281 1617 3432 
Q 1894 3584 2278 3584 
Q 2916 3584 3314 3078 
Q 3713 2572 3713 1747 
Q 3713 922 3314 415 
Q 2916 -91 2278 -91 
Q 1894 -91 1617 61 
Q 1341 213 1159 525 
L 1159 0 
L 581 0 
L 581 4863 
L 1159 4863 
L 1159 2969 
z
" transform="scale(0.015625)"/>
       <path id="DejaVuSans-72" d="M 2631 2963 
Q 2534 3019 2420 3045 
Q 2306 3072 2169 3072 
Q 1681 3072 1420 2755 
Q 1159 2438 1159 1844 
L 1159 0 
L 581 0 
L 581 3500 
L 1159 3500 
L 1159 2956 
Q 1341 3275 1631 3429 
Q 1922 3584 2338 3584 
Q 2397 3584 2469 3576 
Q 2541 3569 2628 3553 
L 2631 2963 
z
" transform="scale(0.015625)"/>
       <path id="DejaVuSans-61" d="M 2194 1759 
Q 1497 1759 1228 1600 
Q 959 1441 959 1056 
Q 959 750 1161 570 
Q 1363 391 1709 391 
Q 2188 391 2477 730 
Q 2766 1069 2766 1631 
L 2766 1759 
L 2194 1759 
z
M 3341 1997 
L 3341 0 
L 2766 0 
L 2766 531 
Q 2569 213 2275 61 
Q 1981 -91 1556 -91 
Q 1019 -91 701 211 
Q 384 513 384 1019 
Q 384 1609 779 1909 
Q 1175 2209 1959 2209 
L 2766 2209 
L 2766 2266 
Q 2766 2663 2505 2880 
Q 2244 3097 1772 3097 
Q 1472 3097 1187 3025 
Q 903 2953 641 2809 
L 641 3341 
Q 956 3463 1253 3523 
Q 1550 3584 1831 3584 
Q 2591 3584 2966 3190 
Q 3341 2797 3341 1997 
z
" transform="scale(0.015625)"/>
       <path id="DejaVuSans-74" d="M 1172 4494 
L 1172 3500 
L 2356 3500 
L 2356 3053 
L 1172 3053 
L 1172 1153 
Q 1172 725 1289 603 
Q 1406 481 1766 481 
L 2356 481 
L 2356 0 
L 1766 0 
Q 1100 0 847 248 
Q 594 497 594 1153 
L 594 3053 
L 172 3053 
L 172 3500 
L 594 3500 
L 594 4494 
L 1172 4494 
z
" transform="scale(0.015625)"/>
       <path id="DejaVuSans-6f" d="M 1959 3097 
Q 1497 3097 1228 2736 
Q 959 2375 959 1747 
Q 959 1119 1226 758 
Q 1494 397 1959 397 
Q 2419 397 2687 759 
Q 2956 1122 2956 1747 
Q 2956 2369 2687 2733 
Q 2419 3097 1959 3097 
z
M 1959 3584 
Q 2709 3584 3137 3096 
Q 3566 2609 3566 1747 
Q 3566 888 3137 398 
Q 2709 -91 1959 -91 
Q 1206 -91 779 398 
Q 353 888 353 1747 
Q 353 2609 779 3096 
Q 1206 3584 1959 3584 
z
" transform="scale(0.015625)"/>
       <path id="DejaVuSans-6e" d="M 3513 2113 
L 3513 0 
L 2938 0 
L 2938 2094 
Q 2938 2591 2744 2837 
Q 2550 3084 2163 3084 
Q 1697 3084 1428 2787 
Q 1159 2491 1159 1978 
L 1159 0 
L 581 0 
L 581 3500 
L 1159 3500 
L 1159 2956 
Q 1366 3272 1645 3428 
Q 1925 3584 2291 3584 
Q 2894 3584 3203 3211 
Q 3513 2838 3513 2113 
z
" transform="scale(0.015625)"/>
       <path id="DejaVuSans-6c" d="M 603 4863 
L 1178 4863 
L 1178 0 
L 603 0 
L 603 4863 
z
" transform="scale(0.015625)"/>
       <path id="DejaVuSans-20" transform="scale(0.015625)"/>
       <path id="DejaVuSans-66" d="M 2375 4863 
L 2375 4384 
L 1825 4384 
Q 1516 4384 1395 4259 
Q 1275 4134 1275 3809 
L 1275 3500 
L 2222 3500 
L 2222 3053 
L 1275 3053 
L 1275 0 
L 697 0 
L 697 3053 
L 147 3053 
L 147 3500 
L 697 3500 
L 697 3744 
Q 697 4328 969 4595 
Q 1241 4863 1831 4863 
L 2375 4863 
z
" transform="scale(0.015625)"/>
       <path id="DejaVuSans-65" d="M 3597 1894 
L 3597 1613 
L 953 1613 
Q 991 1019 1311 708 
Q 1631 397 2203 397 
Q 2534 397 2845 478 
Q 3156 559 3463 722 
L 3463 178 
Q 3153 47 2828 -22 
Q 2503 -91 2169 -91 
Q 1331 -91 842 396 
Q 353 884 353 1716 
Q 353 2575 817 3079 
Q 1281 3584 2069 3584 
Q 2775 3584 3186 3129 
Q 3597 2675 3597 1894 
z
M 3022 2063 
Q 3016 2534 2758 2815 
Q 2500 3097 2075 3097 
Q 1594 3097 1305 2825 
Q 1016 2553 972 2059 
L 3022 2063 
z
" transform="scale(0.015625)"/>
       <path id="DejaVuSans-71" d="M 947 1747 
Q 947 1113 1208 752 
Q 1469 391 1925 391 
Q 2381 391 2643 752 
Q 2906 1113 2906 1747 
Q 2906 2381 2643 2742 
Q 2381 3103 1925 3103 
Q 1469 3103 1208 2742 
Q 947 2381 947 1747 
z
M 2906 525 
Q 2725 213 2448 61 
Q 2172 -91 1784 -91 
Q 1150 -91 751 415 
Q 353 922 353 1747 
Q 353 2572 751 3078 
Q 1150 3584 1784 3584 
Q 2172 3584 2448 3432 
Q 2725 3281 2906 2969 
L 2906 3500 
L 3481 3500 
L 3481 -1331 
L 2906 -1331 
L 2906 525 
z
" transform="scale(0.015625)"/>
       <path id="DejaVuSans-75" d="M 544 1381 
L 544 3500 
L 1119 3500 
L 1119 1403 
Q 1119 906 1312 657 
Q 1506 409 1894 409 
Q 2359 409 2629 706 
Q 2900 1003 2900 1516 
L 2900 3500 
L 3475 3500 
L 3475 0 
L 2900 0 
L 2900 538 
Q 2691 219 2414 64 
Q 2138 -91 1772 -91 
Q 1169 -91 856 284 
Q 544 659 544 1381 
z
M 1991 3584 
L 1991 3584 
z
" transform="scale(0.015625)"/>
       <path id="DejaVuSans-63" d="M 3122 3366 
L 3122 2828 
Q 2878 2963 2633 3030 
Q 2388 3097 2138 3097 
Q 1578 3097 1268 2742 
Q 959 2388 959 1747 
Q 959 1106 1268 751 
Q 1578 397 2138 397 
Q 2388 397 2633 464 
Q 2878 531 3122 666 
L 3122 134 
Q 2881 22 2623 -34 
Q 2366 -91 2075 -91 
Q 1284 -91 818 406 
Q 353 903 353 1747 
Q 353 2603 823 3093 
Q 1294 3584 2113 3584 
Q 2378 3584 2631 3529 
Q 2884 3475 3122 3366 
z
" transform="scale(0.015625)"/>
       <path id="DejaVuSans-79" d="M 2059 -325 
Q 1816 -950 1584 -1140 
Q 1353 -1331 966 -1331 
L 506 -1331 
L 506 -850 
L 844 -850 
Q 1081 -850 1212 -737 
Q 1344 -625 1503 -206 
L 1606 56 
L 191 3500 
L 800 3500 
L 1894 763 
L 2988 3500 
L 3597 3500 
L 2059 -325 
z
" transform="scale(0.015625)"/>
       <path id="DejaVuSans-28" d="M 1984 4856 
Q 1566 4138 1362 3434 
Q 1159 2731 1159 2009 
Q 1159 1288 1364 580 
Q 1569 -128 1984 -844 
L 1484 -844 
Q 1016 -109 783 600 
Q 550 1309 550 2009 
Q 550 2706 781 3412 
Q 1013 4119 1484 4856 
L 1984 4856 
z
" transform="scale(0.015625)"/>
       <path id="DejaVuSans-6d" d="M 3328 2828 
Q 3544 3216 3844 3400 
Q 4144 3584 4550 3584 
Q 5097 3584 5394 3201 
Q 5691 2819 5691 2113 
L 5691 0 
L 5113 0 
L 5113 2094 
Q 5113 2597 4934 2840 
Q 4756 3084 4391 3084 
Q 3944 3084 3684 2787 
Q 3425 2491 3425 1978 
L 3425 0 
L 2847 0 
L 2847 2094 
Q 2847 2600 2669 2842 
Q 2491 3084 2119 3084 
Q 1678 3084 1418 2786 
Q 1159 2488 1159 1978 
L 1159 0 
L 581 0 
L 581 3500 
L 1159 3500 
L 1159 2956 
Q 1356 3278 1631 3431 
Q 1906 3584 2284 3584 
Q 2666 3584 2933 3390 
Q 3200 3197 3328 2828 
z
" transform="scale(0.015625)"/>
       <path id="DejaVuSans-2212" d="M 678 2272 
L 4684 2272 
L 4684 1741 
L 678 1741 
L 678 2272 
z
" transform="scale(0.015625)"/>
      </defs>
      <use xlink:href="#DejaVuSans-56" transform="translate(0 0.684375)"/>
      <use xlink:href="#DejaVuSans-69" transform="translate(68.408203 0.684375)"/>
      <use xlink:href="#DejaVuSans-62" transform="translate(96.191406 0.684375)"/>
      <use xlink:href="#DejaVuSans-72" transform="translate(159.667969 0.684375)"/>
      <use xlink:href="#DejaVuSans-61" transform="translate(200.78125 0.684375)"/>
      <use xlink:href="#DejaVuSans-74" transform="translate(262.060547 0.684375)"/>
      <use xlink:href="#DejaVuSans-69" transform="translate(301.269531 0.684375)"/>
      <use xlink:href="#DejaVuSans-6f" transform="translate(329.052734 0.684375)"/>
      <use xlink:href="#DejaVuSans-6e" transform="translate(390.234375 0.684375)"/>
      <use xlink:href="#DejaVuSans-61" transform="translate(453.613281 0.684375)"/>
      <use xlink:href="#DejaVuSans-6c" transform="translate(514.892578 0.684375)"/>
      <use xlink:href="#DejaVuSans-20" transform="translate(542.675781 0.684375)"/>
      <use xlink:href="#DejaVuSans-66" transform="translate(574.462891 0.684375)"/>
      <use xlink:href="#DejaVuSans-72" transform="translate(609.667969 0.684375)"/>
      <use xlink:href="#DejaVuSans-65" transform="translate(650.78125 0.684375)"/>
      <use xlink:href="#DejaVuSans-71" transform="translate(712.304688 0.684375)"/>
      <use xlink:href="#DejaVuSans-75" transform="translate(775.78125 0.684375)"/>
      <use xlink:href="#DejaVuSans-65" transform="translate(839.160156 0.684375)"/>
      <use xlink:href="#DejaVuSans-6e" transform="translate(900.683594 0.684375)"/>
      <use xlink:href="#DejaVuSans-63" transform="translate(964.0625 0.684375)"/>
      <use xlink:href="#DejaVuSans-79" transform="translate(1019.042969 0.684375)"/>
      <use xlink:href="#DejaVuSans-20" transform="translate(1078.222656 0.684375)"/>
      <use xlink:href="#DejaVuSans-28" transform="translate(1110.009766 0.684375)"/>
      <use xlink:href="#DejaVuSans-63" transform="translate(1149.023438 0.684375)"/>
      <use xlink:href="#DejaVuSans-6d" transform="translate(1204.003906 0.684375)"/>
      <use xlink:href="#DejaVuSans-2212" transform="translate(1302.373047 38.965625) scale(0.7)"/>
      <use xlink:href="#DejaVuSans-31" transform="translate(1361.025391 38.965625) scale(0.7)"/>
     </g>
    </g>
   </g>
   <g id="matplotlib.axis_2">
    <g id="ytick_1">
     <g id="line2d_10">
      <defs>
       <path id="mee3b2c5dba" d="M 0 0 
L -3.5 0 
" style="stroke: #000000; stroke-width: 0.8"/>
      </defs>
      <g>
       <use xlink:href="#mee3b2c5dba" x="52.112" y="378.475048" style="stroke: #000000; stroke-width: 0.8"/>
      </g>
     </g>
     <g id="text_11">
      <!-- −6 -->
      <g transform="translate(30.369813 382.274267) scale(0.1 -0.1)">
       <defs>
        <path id="DejaVuSans-36" d="M 2113 2584 
Q 1688 2584 1439 2293 
Q 1191 2003 1191 1497 
Q 1191 994 1439 701 
Q 1688 409 2113 409 
Q 2538 409 2786 701 
Q 3034 994 3034 1497 
Q 3034 2003 2786 2293 
Q 2538 2584 2113 2584 
z
M 3366 4563 
L 3366 3988 
Q 3128 4100 2886 4159 
Q 2644 4219 2406 4219 
Q 1781 4219 1451 3797 
Q 1122 3375 1075 2522 
Q 1259 2794 1537 2939 
Q 1816 3084 2150 3084 
Q 2853 3084 3261 2657 
Q 3669 2231 3669 1497 
Q 3669 778 3244 343 
Q 2819 -91 2113 -91 
Q 1303 -91 875 529 
Q 447 1150 447 2328 
Q 447 3434 972 4092 
Q 1497 4750 2381 4750 
Q 2619 4750 2861 4703 
Q 3103 4656 3366 4563 
z
" transform="scale(0.015625)"/>
       </defs>
       <use xlink:href="#DejaVuSans-2212"/>
       <use xlink:href="#DejaVuSans-36" x="83.789062"/>
      </g>
     </g>
    </g>
    <g id="ytick_2">
     <g id="line2d_11">
      <g>
       <use xlink:href="#mee3b2c5dba" x="52.112" y="333.059878" style="stroke: #000000; stroke-width: 0.8"/>
      </g>
     </g>
     <g id="text_12">
      <!-- −4 -->
      <g transform="translate(30.369813 336.859096) scale(0.1 -0.1)">
       <defs>
        <path id="DejaVuSans-34" d="M 2419 4116 
L 825 1625 
L 2419 1625 
L 2419 4116 
z
M 2253 4666 
L 3047 4666 
L 3047 1625 
L 3713 1625 
L 3713 1100 
L 3047 1100 
L 3047 0 
L 2419 0 
L 2419 1100 
L 313 1100 
L 313 1709 
L 2253 4666 
z
" transform="scale(0.015625)"/>
       </defs>
       <use xlink:href="#DejaVuSans-2212"/>
       <use xlink:href="#DejaVuSans-34" x="83.789062"/>
      </g>
     </g>
    </g>
    <g id="ytick_3">
     <g id="line2d_12">
      <g>
       <use xlink:href="#mee3b2c5dba" x="52.112" y="287.644707" style="stroke: #000000; stroke-width: 0.8"/>
      </g>
     </g>
     <g id="text_13">
      <!-- −2 -->
      <g transform="translate(30.369813 291.443926) scale(0.1 -0.1)">
       <use xlink:href="#DejaVuSans-2212"/>
       <use xlink:href="#DejaVuSans-32" x="83.789062"/>
      </g>
     </g>
    </g>
    <g id="ytick_4">
     <g id="line2d_13">
      <g>
       <use xlink:href="#mee3b2c5dba" x="52.112" y="242.229536" style="stroke: #000000; stroke-width: 0.8"/>
      </g>
     </g>
     <g id="text_14">
      <!-- 0 -->
      <g transform="translate(38.7495 246.028755) scale(0.1 -0.1)">
       <use xlink:href="#DejaVuSans-30"/>
      </g>
     </g>
    </g>
    <g id="ytick_5">
     <g id="line2d_14">
      <g>
       <use xlink:href="#mee3b2c5dba" x="52.112" y="196.814366" style="stroke: #000000; stroke-width: 0.8"/>
      </g>
     </g>
     <g id="text_15">
      <!-- 2 -->
      <g transform="translate(38.7495 200.613585) scale(0.1 -0.1)">
       <use xlink:href="#DejaVuSans-32"/>
      </g>
     </g>
    </g>
    <g id="ytick_6">
     <g id="line2d_15">
      <g>
       <use xlink:href="#mee3b2c5dba" x="52.112" y="151.399195" style="stroke: #000000; stroke-width: 0.8"/>
      </g>
     </g>
     <g id="text_16">
      <!-- 4 -->
      <g transform="translate(38.7495 155.198414) scale(0.1 -0.1)">
       <use xlink:href="#DejaVuSans-34"/>
      </g>
     </g>
    </g>
    <g id="ytick_7">
     <g id="line2d_16">
      <g>
       <use xlink:href="#mee3b2c5dba" x="52.112" y="105.984025" style="stroke: #000000; stroke-width: 0.8"/>
      </g>
     </g>
     <g id="text_17">
      <!-- 6 -->
      <g transform="translate(38.7495 109.783243) scale(0.1 -0.1)">
       <use xlink:href="#DejaVuSans-36"/>
      </g>
     </g>
    </g>
    <g id="ytick_8">
     <g id="line2d_17">
      <g>
       <use xlink:href="#mee3b2c5dba" x="52.112" y="60.568854" style="stroke: #000000; stroke-width: 0.8"/>
      </g>
     </g>
     <g id="text_18">
      <!-- 8 -->
      <g transform="translate(38.7495 64.368073) scale(0.1 -0.1)">
       <defs>
        <path id="DejaVuSans-38" d="M 2034 2216 
Q 1584 2216 1326 1975 
Q 1069 1734 1069 1313 
Q 1069 891 1326 650 
Q 1584 409 2034 409 
Q 2484 409 2743 651 
Q 3003 894 3003 1313 
Q 3003 1734 2745 1975 
Q 2488 2216 2034 2216 
z
M 1403 2484 
Q 997 2584 770 2862 
Q 544 3141 544 3541 
Q 544 4100 942 4425 
Q 1341 4750 2034 4750 
Q 2731 4750 3128 4425 
Q 3525 4100 3525 3541 
Q 3525 3141 3298 2862 
Q 3072 2584 2669 2484 
Q 3125 2378 3379 2068 
Q 3634 1759 3634 1313 
Q 3634 634 3220 271 
Q 2806 -91 2034 -91 
Q 1263 -91 848 271 
Q 434 634 434 1313 
Q 434 1759 690 2068 
Q 947 2378 1403 2484 
z
M 1172 3481 
Q 1172 3119 1398 2916 
Q 1625 2713 2034 2713 
Q 2441 2713 2670 2916 
Q 2900 3119 2900 3481 
Q 2900 3844 2670 4047 
Q 2441 4250 2034 4250 
Q 1625 4250 1398 4047 
Q 1172 3844 1172 3481 
z
" transform="scale(0.015625)"/>
       </defs>
       <use xlink:href="#DejaVuSans-38"/>
      </g>
     </g>
    </g>
    <g id="ytick_9">
     <g id="line2d_18">
      <g>
       <use xlink:href="#mee3b2c5dba" x="52.112" y="15.153684" style="stroke: #000000; stroke-width: 0.8"/>
      </g>
     </g>
     <g id="text_19">
      <!-- 10 -->
      <g transform="translate(32.387 18.952902) scale(0.1 -0.1)">
       <use xlink:href="#DejaVuSans-31"/>
       <use xlink:href="#DejaVuSans-30" x="63.623047"/>
      </g>
     </g>
    </g>
    <g id="text_20">
     <!-- Correction to Helmholtz free energy (kJ mol$^{-1}$) -->
     <g transform="translate(24.269813 314.393622) rotate(-90) scale(0.1 -0.1)">
      <defs>
       <path id="DejaVuSans-43" d="M 4122 4306 
L 4122 3641 
Q 3803 3938 3442 4084 
Q 3081 4231 2675 4231 
Q 1875 4231 1450 3742 
Q 1025 3253 1025 2328 
Q 1025 1406 1450 917 
Q 1875 428 2675 428 
Q 3081 428 3442 575 
Q 3803 722 4122 1019 
L 4122 359 
Q 3791 134 3420 21 
Q 3050 -91 2638 -91 
Q 1578 -91 968 557 
Q 359 1206 359 2328 
Q 359 3453 968 4101 
Q 1578 4750 2638 4750 
Q 3056 4750 3426 4639 
Q 3797 4528 4122 4306 
z
" transform="scale(0.015625)"/>
       <path id="DejaVuSans-48" d="M 628 4666 
L 1259 4666 
L 1259 2753 
L 3553 2753 
L 3553 4666 
L 4184 4666 
L 4184 0 
L 3553 0 
L 3553 2222 
L 1259 2222 
L 1259 0 
L 628 0 
L 628 4666 
z
" transform="scale(0.015625)"/>
       <path id="DejaVuSans-68" d="M 3513 2113 
L 3513 0 
L 2938 0 
L 2938 2094 
Q 2938 2591 2744 2837 
Q 2550 3084 2163 3084 
Q 1697 3084 1428 2787 
Q 1159 2491 1159 1978 
L 1159 0 
L 581 0 
L 581 4863 
L 1159 4863 
L 1159 2956 
Q 1366 3272 1645 3428 
Q 1925 3584 2291 3584 
Q 2894 3584 3203 3211 
Q 3513 2838 3513 2113 
z
" transform="scale(0.015625)"/>
       <path id="DejaVuSans-7a" d="M 353 3500 
L 3084 3500 
L 3084 2975 
L 922 459 
L 3084 459 
L 3084 0 
L 275 0 
L 275 525 
L 2438 3041 
L 353 3041 
L 353 3500 
z
" transform="scale(0.015625)"/>
       <path id="DejaVuSans-67" d="M 2906 1791 
Q 2906 2416 2648 2759 
Q 2391 3103 1925 3103 
Q 1463 3103 1205 2759 
Q 947 2416 947 1791 
Q 947 1169 1205 825 
Q 1463 481 1925 481 
Q 2391 481 2648 825 
Q 2906 1169 2906 1791 
z
M 3481 434 
Q 3481 -459 3084 -895 
Q 2688 -1331 1869 -1331 
Q 1566 -1331 1297 -1286 
Q 1028 -1241 775 -1147 
L 775 -588 
Q 1028 -725 1275 -790 
Q 1522 -856 1778 -856 
Q 2344 -856 2625 -561 
Q 2906 -266 2906 331 
L 2906 616 
Q 2728 306 2450 153 
Q 2172 0 1784 0 
Q 1141 0 747 490 
Q 353 981 353 1791 
Q 353 2603 747 3093 
Q 1141 3584 1784 3584 
Q 2172 3584 2450 3431 
Q 2728 3278 2906 2969 
L 2906 3500 
L 3481 3500 
L 3481 434 
z
" transform="scale(0.015625)"/>
       <path id="DejaVuSans-6b" d="M 581 4863 
L 1159 4863 
L 1159 1991 
L 2875 3500 
L 3609 3500 
L 1753 1863 
L 3688 0 
L 2938 0 
L 1159 1709 
L 1159 0 
L 581 0 
L 581 4863 
z
" transform="scale(0.015625)"/>
       <path id="DejaVuSans-4a" d="M 628 4666 
L 1259 4666 
L 1259 325 
Q 1259 -519 939 -900 
Q 619 -1281 -91 -1281 
L -331 -1281 
L -331 -750 
L -134 -750 
Q 284 -750 456 -515 
Q 628 -281 628 325 
L 628 4666 
z
" transform="scale(0.015625)"/>
       <path id="DejaVuSans-29" d="M 513 4856 
L 1013 4856 
Q 1481 4119 1714 3412 
Q 1947 2706 1947 2009 
Q 1947 1309 1714 600 
Q 1481 -109 1013 -844 
L 513 -844 
Q 928 -128 1133 580 
Q 1338 1288 1338 2009 
Q 1338 2731 1133 3434 
Q 928 4138 513 4856 
z
" transform="scale(0.015625)"/>
      </defs>
      <use xlink:href="#DejaVuSans-43" transform="translate(0 0.684375)"/>
      <use xlink:href="#DejaVuSans-6f" transform="translate(69.824219 0.684375)"/>
      <use xlink:href="#DejaVuSans-72" transform="translate(131.005859 0.684375)"/>
      <use xlink:href="#DejaVuSans-72" transform="translate(172.119141 0.684375)"/>
      <use xlink:href="#DejaVuSans-65" transform="translate(213.232422 0.684375)"/>
      <use xlink:href="#DejaVuSans-63" transform="translate(274.755859 0.684375)"/>
      <use xlink:href="#DejaVuSans-74" transform="translate(329.736328 0.684375)"/>
      <use xlink:href="#DejaVuSans-69" transform="translate(368.945312 0.684375)"/>
      <use xlink:href="#DejaVuSans-6f" transform="translate(396.728516 0.684375)"/>
      <use xlink:href="#DejaVuSans-6e" transform="translate(457.910156 0.684375)"/>
      <use xlink:href="#DejaVuSans-20" transform="translate(521.289062 0.684375)"/>
      <use xlink:href="#DejaVuSans-74" transform="translate(553.076172 0.684375)"/>
      <use xlink:href="#DejaVuSans-6f" transform="translate(592.285156 0.684375)"/>
      <use xlink:href="#DejaVuSans-20" transform="translate(653.466797 0.684375)"/>
      <use xlink:href="#DejaVuSans-48" transform="translate(685.253906 0.684375)"/>
      <use xlink:href="#DejaVuSans-65" transform="translate(760.449219 0.684375)"/>
      <use xlink:href="#DejaVuSans-6c" transform="translate(821.972656 0.684375)"/>
      <use xlink:href="#DejaVuSans-6d" transform="translate(849.755859 0.684375)"/>
      <use xlink:href="#DejaVuSans-68" transform="translate(947.167969 0.684375)"/>
      <use xlink:href="#DejaVuSans-6f" transform="translate(1010.546875 0.684375)"/>
      <use xlink:href="#DejaVuSans-6c" transform="translate(1071.728516 0.684375)"/>
      <use xlink:href="#DejaVuSans-74" transform="translate(1099.511719 0.684375)"/>
      <use xlink:href="#DejaVuSans-7a" transform="translate(1138.720703 0.684375)"/>
      <use xlink:href="#DejaVuSans-20" transform="translate(1191.210938 0.684375)"/>
      <use xlink:href="#DejaVuSans-66" transform="translate(1222.998047 0.684375)"/>
      <use xlink:href="#DejaVuSans-72" transform="translate(1258.203125 0.684375)"/>
      <use xlink:href="#DejaVuSans-65" transform="translate(1299.316406 0.684375)"/>
      <use xlink:href="#DejaVuSans-65" transform="translate(1360.839844 0.684375)"/>
      <use xlink:href="#DejaVuSans-20" transform="translate(1422.363281 0.684375)"/>
      <use xlink:href="#DejaVuSans-65" transform="translate(1454.150391 0.684375)"/>
      <use xlink:href="#DejaVuSans-6e" transform="translate(1515.673828 0.684375)"/>
      <use xlink:href="#DejaVuSans-65" transform="translate(1579.052734 0.684375)"/>
      <use xlink:href="#DejaVuSans-72" transform="translate(1640.576172 0.684375)"/>
      <use xlink:href="#DejaVuSans-67" transform="translate(1681.689453 0.684375)"/>
      <use xlink:href="#DejaVuSans-79" transform="translate(1745.166016 0.684375)"/>
      <use xlink:href="#DejaVuSans-20" transform="translate(1804.345703 0.684375)"/>
      <use xlink:href="#DejaVuSans-28" transform="translate(1836.132812 0.684375)"/>
      <use xlink:href="#DejaVuSans-6b" transform="translate(1875.146484 0.684375)"/>
      <use xlink:href="#DejaVuSans-4a" transform="translate(1933.056641 0.684375)"/>
      <use xlink:href="#DejaVuSans-20" transform="translate(1962.548828 0.684375)"/>
      <use xlink:href="#DejaVuSans-6d" transform="translate(1994.335938 0.684375)"/>
      <use xlink:href="#DejaVuSans-6f" transform="translate(2091.748047 0.684375)"/>
      <use xlink:href="#DejaVuSans-6c" transform="translate(2152.929688 0.684375)"/>
      <use xlink:href="#DejaVuSans-2212" transform="translate(2181.669922 38.965625) scale(0.7)"/>
      <use xlink:href="#DejaVuSans-31" transform="translate(2240.322266 38.965625) scale(0.7)"/>
      <use xlink:href="#DejaVuSans-29" transform="translate(2287.592773 0.684375)"/>
     </g>
    </g>
   </g>
   <g id="line2d_19">
    <path d="M 75.434182 28.476006 
L 80.145734 90.282514 
L 84.857286 118.966252 
L 89.568837 137.799916 
L 94.280389 151.804527 
L 98.991941 162.923059 
L 103.703493 172.114155 
L 108.415045 179.921981 
L 113.126597 186.685396 
L 117.838149 192.629845 
L 122.549701 197.912986 
L 127.261253 202.649454 
L 131.972804 206.92527 
L 136.684356 210.806677 
L 141.395908 214.345816 
L 146.10746 217.584505 
L 150.819012 220.556831 
L 155.530564 223.290979 
L 160.242116 225.810557 
L 164.953668 228.135561 
L 169.665219 230.283108 
L 174.376771 232.267993 
L 179.088323 234.103112 
L 183.799875 235.799799 
L 188.511427 237.368094 
L 193.222979 238.81695 
L 197.934531 240.154407 
L 202.646083 241.387731 
L 207.357635 242.523524 
L 212.069186 243.567823 
L 216.780738 244.526173 
L 221.49229 245.403698 
L 226.203842 246.205149 
L 230.915394 246.934953 
L 235.626946 247.597256 
L 240.338498 248.195946 
L 245.05005 248.734692 
L 249.761601 249.216961 
L 254.473153 249.646039 
L 259.184705 250.02505 
L 263.896257 250.356972 
L 268.607809 250.644645 
L 273.319361 250.890787 
L 278.030913 251.097999 
L 282.742465 251.268777 
L 287.454017 251.405512 
L 292.165568 251.510503 
L 296.87712 251.585957 
L 301.588672 251.633992 
L 306.300224 251.656645 
L 311.011776 251.655869 
L 315.723328 251.63354 
L 320.43488 251.591455 
L 325.146432 251.531335 
L 329.857983 251.454828 
L 334.569535 251.363506 
L 339.281087 251.25887 
L 343.992639 251.142346 
L 348.704191 251.015294 
L 353.415743 250.878997 
L 358.127295 250.734673 
L 362.838847 250.583469 
L 367.550399 250.426464 
L 372.26195 250.264671 
L 376.973502 250.099036 
L 381.685054 249.930441 
L 386.396606 249.759704 
L 391.108158 249.587581 
L 395.81971 249.414769 
L 400.531262 249.241907 
L 405.242814 249.069575 
L 409.954365 248.898302 
L 414.665917 248.728561 
L 419.377469 248.560778 
L 424.089021 248.39533 
L 428.800573 248.232548 
L 433.512125 248.072721 
L 438.223677 247.916097 
L 442.935229 247.762886 
L 447.646781 247.613264 
L 452.358332 247.467371 
L 457.069884 247.325319 
L 461.781436 247.187191 
L 466.492988 247.053043 
L 471.20454 246.922909 
L 475.916092 246.796802 
L 480.627644 246.674715 
L 485.339196 246.556622 
L 490.050747 246.442486 
L 494.762299 246.332254 
L 499.473851 246.225862 
L 504.185403 246.123235 
L 508.896955 246.024291 
L 513.608507 245.92894 
L 518.320059 245.837088 
L 523.031611 245.748634 
L 527.743163 245.663476 
L 532.454714 245.581506 
L 537.166266 245.502619 
L 541.877818 245.426705 
" clip-path="url(#pc0222f9db9)" style="fill: none; stroke: #ff0000; stroke-width: 1.5; stroke-linecap: square"/>
   </g>
   <g id="line2d_20">
    <path d="M 75.434182 28.480514 
L 80.145734 90.323085 
L 84.857286 119.078914 
L 89.568837 138.020629 
L 94.280389 152.169151 
L 98.991941 163.467317 
L 103.703493 172.873603 
L 108.415045 180.931971 
L 113.126597 187.981041 
L 117.838149 194.245991 
L 122.549701 199.884171 
L 127.261253 205.009881 
L 131.972804 209.708769 
L 136.684356 214.046673 
L 141.395908 218.075294 
L 146.10746 221.83598 
L 150.819012 225.36231 
L 155.530564 228.681933 
L 160.242116 231.817885 
L 164.953668 234.789558 
L 169.665219 237.613435 
L 174.376771 240.303642 
L 179.088323 242.872376 
L 183.799875 245.330244 
L 188.511427 247.686525 
L 193.222979 249.949384 
L 197.934531 252.126043 
L 202.646083 254.222923 
L 207.357635 256.245754 
L 212.069186 258.199676 
L 216.780738 260.089311 
L 221.49229 261.918837 
L 226.203842 263.692038 
L 230.915394 265.412356 
L 235.626946 267.082927 
L 240.338498 268.706619 
L 245.05005 270.286061 
L 249.761601 271.823669 
L 254.473153 273.321667 
L 259.184705 274.78211 
L 263.896257 276.206896 
L 268.607809 277.597787 
L 273.319361 278.956418 
L 278.030913 280.284308 
L 282.742465 281.582876 
L 287.454017 282.853443 
L 292.165568 284.097246 
L 296.87712 285.315441 
L 301.588672 286.509115 
L 306.300224 287.679285 
L 311.011776 288.826909 
L 315.723328 289.952887 
L 320.43488 291.058069 
L 325.146432 292.143255 
L 329.857983 293.209203 
L 334.569535 294.256627 
L 339.281087 295.286204 
L 343.992639 296.298574 
L 348.704191 297.294347 
L 353.415743 298.274099 
L 358.127295 299.238378 
L 362.838847 300.187706 
L 367.550399 301.122578 
L 372.26195 302.043467 
L 376.973502 302.950823 
L 381.685054 303.845075 
L 386.396606 304.726633 
L 391.108158 305.595888 
L 395.81971 306.453216 
L 400.531262 307.298973 
L 405.242814 308.133502 
L 409.954365 308.957132 
L 414.665917 309.770176 
L 419.377469 310.572937 
L 424.089021 311.365702 
L 428.800573 312.148751 
L 433.512125 312.922349 
L 438.223677 313.686753 
L 442.935229 314.442209 
L 447.646781 315.188954 
L 452.358332 315.927216 
L 457.069884 316.657215 
L 461.781436 317.379162 
L 466.492988 318.093262 
L 471.20454 318.799711 
L 475.916092 319.498698 
L 480.627644 320.190407 
L 485.339196 320.875015 
L 490.050747 321.552691 
L 494.762299 322.223601 
L 499.473851 322.887905 
L 504.185403 323.545756 
L 508.896955 324.197303 
L 513.608507 324.842691 
L 518.320059 325.48206 
L 523.031611 326.115544 
L 527.743163 326.743275 
L 532.454714 327.365379 
L 537.166266 327.98198 
L 541.877818 328.593196 
" clip-path="url(#pc0222f9db9)" style="fill: none; stroke: #0000ff; stroke-width: 1.5; stroke-linecap: square"/>
   </g>
   <g id="line2d_21">
    <path d="M 75.434182 47.980519 
L 80.145734 109.750979 
L 84.857286 138.362724 
L 89.568837 157.088657 
L 94.280389 170.950109 
L 98.991941 181.890464 
L 103.703493 190.868884 
L 108.415045 198.430151 
L 113.126597 204.913847 
L 117.838149 210.546239 
L 122.549701 215.485912 
L 127.261253 219.848529 
L 131.972804 223.721236 
L 136.684356 227.171503 
L 141.395908 230.252797 
L 146.10746 233.008353 
L 150.819012 235.473772 
L 155.530564 237.678843 
L 160.242116 239.648861 
L 164.953668 241.405594 
L 169.665219 242.968011 
L 174.376771 244.352824 
L 179.088323 245.574917 
L 183.799875 246.647666 
L 188.511427 247.583203 
L 193.222979 248.392616 
L 197.934531 249.086105 
L 202.646083 249.673118 
L 207.357635 250.162447 
L 212.069186 250.562312 
L 216.780738 250.880426 
L 221.49229 251.124043 
L 226.203842 251.300004 
L 230.915394 251.414767 
L 235.626946 251.474427 
L 240.338498 251.484742 
L 245.05005 251.451144 
L 249.761601 251.378749 
L 254.473153 251.272367 
L 259.184705 251.13651 
L 263.896257 250.975391 
L 268.607809 250.792937 
L 273.319361 250.592787 
L 278.030913 250.378299 
L 282.742465 250.152555 
L 287.454017 249.918367 
L 292.165568 249.678282 
L 296.87712 249.434592 
L 301.588672 249.189341 
L 306.300224 248.944336 
L 311.011776 248.70116 
L 315.723328 248.46118 
L 320.43488 248.22556 
L 325.146432 247.995278 
L 329.857983 247.771139 
L 334.569535 247.553784 
L 339.281087 247.343713 
L 343.992639 247.14129 
L 348.704191 246.946766 
L 353.415743 246.760283 
L 358.127295 246.581897 
L 362.838847 246.411582 
L 367.550399 246.249246 
L 372.26195 246.094744 
L 376.973502 245.94788 
L 381.685054 245.808425 
L 386.396606 245.67612 
L 391.108158 245.550685 
L 395.81971 245.431826 
L 400.531262 245.319238 
L 405.242814 245.212613 
L 409.954365 245.111642 
L 414.665917 245.016021 
L 419.377469 244.925449 
L 424.089021 244.839636 
L 428.800573 244.758301 
L 433.512125 244.681172 
L 438.223677 244.607994 
L 442.935229 244.53852 
L 447.646781 244.472519 
L 452.358332 244.409773 
L 457.069884 244.350075 
L 461.781436 244.293233 
L 466.492988 244.239067 
L 471.20454 244.187408 
L 475.916092 244.1381 
L 480.627644 244.090996 
L 485.339196 244.045961 
L 490.050747 244.002869 
L 494.762299 243.961603 
L 499.473851 243.922054 
L 504.185403 243.884122 
L 508.896955 243.847713 
L 513.608507 243.81274 
L 518.320059 243.779124 
L 523.031611 243.746789 
L 527.743163 243.715666 
L 532.454714 243.68569 
L 537.166266 243.656802 
L 541.877818 243.628946 
" clip-path="url(#pc0222f9db9)" style="fill: none; stroke-dasharray: 5.55,2.4; stroke-dashoffset: 0; stroke: #ff0000; stroke-width: 1.5"/>
   </g>
   <g id="line2d_22">
    <path d="M 75.434182 47.989536 
L 80.145734 109.832106 
L 84.857286 138.587935 
L 89.568837 157.52965 
L 94.280389 171.678172 
L 98.991941 182.976338 
L 103.703493 192.382624 
L 108.415045 200.440992 
L 113.126597 207.490062 
L 117.838149 213.755012 
L 122.549701 219.393192 
L 127.261253 224.518903 
L 131.972804 229.21779 
L 136.684356 233.555694 
L 141.395908 237.584315 
L 146.10746 241.345001 
L 150.819012 244.871331 
L 155.530564 248.190954 
L 160.242116 251.326906 
L 164.953668 254.298579 
L 169.665219 257.122456 
L 174.376771 259.812663 
L 179.088323 262.381397 
L 183.799875 264.839265 
L 188.511427 267.195546 
L 193.222979 269.458405 
L 197.934531 271.635065 
L 202.646083 273.731944 
L 207.357635 275.754776 
L 212.069186 277.708697 
L 216.780738 279.598332 
L 221.49229 281.427858 
L 226.203842 283.20106 
L 230.915394 284.921377 
L 235.626946 286.591948 
L 240.338498 288.21564 
L 245.05005 289.795082 
L 249.761601 291.33269 
L 254.473153 292.830688 
L 259.184705 294.291131 
L 263.896257 295.715917 
L 268.607809 297.106809 
L 273.319361 298.465439 
L 278.030913 299.79333 
L 282.742465 301.091897 
L 287.454017 302.362464 
L 292.165568 303.606267 
L 296.87712 304.824462 
L 301.588672 306.018136 
L 306.300224 307.188306 
L 311.011776 308.33593 
L 315.723328 309.461908 
L 320.43488 310.56709 
L 325.146432 311.652277 
L 329.857983 312.718224 
L 334.569535 313.765648 
L 339.281087 314.795225 
L 343.992639 315.807595 
L 348.704191 316.803368 
L 353.415743 317.78312 
L 358.127295 318.747399 
L 362.838847 319.696727 
L 367.550399 320.631599 
L 372.26195 321.552488 
L 376.973502 322.459844 
L 381.685054 323.354096 
L 386.396606 324.235654 
L 391.108158 325.104909 
L 395.81971 325.962237 
L 400.531262 326.807994 
L 405.242814 327.642524 
L 409.954365 328.466153 
L 414.665917 329.279197 
L 419.377469 330.081958 
L 424.089021 330.874723 
L 428.800573 331.657772 
L 433.512125 332.43137 
L 438.223677 333.195774 
L 442.935229 333.95123 
L 447.646781 334.697975 
L 452.358332 335.436237 
L 457.069884 336.166236 
L 461.781436 336.888183 
L 466.492988 337.602283 
L 471.20454 338.308732 
L 475.916092 339.007719 
L 480.627644 339.699428 
L 485.339196 340.384036 
L 490.050747 341.061712 
L 494.762299 341.732622 
L 499.473851 342.396926 
L 504.185403 343.054777 
L 508.896955 343.706324 
L 513.608507 344.351713 
L 518.320059 344.991081 
L 523.031611 345.624565 
L 527.743163 346.252296 
L 532.454714 346.8744 
L 537.166266 347.491001 
L 541.877818 348.102217 
" clip-path="url(#pc0222f9db9)" style="fill: none; stroke-dasharray: 5.55,2.4; stroke-dashoffset: 0; stroke: #0000ff; stroke-width: 1.5"/>
   </g>
   <g id="line2d_23">
    <path d="M 75.434182 67.480523 
L 80.145734 129.178931 
L 84.857286 157.646986 
L 89.568837 176.158419 
L 94.280389 189.735804 
L 98.991941 200.324183 
L 103.703493 208.884785 
L 108.415045 215.964874 
L 113.126597 221.906916 
L 117.838149 226.940472 
L 122.549701 231.227808 
L 127.261253 234.888656 
L 131.972804 238.0146 
L 136.684356 240.677898 
L 141.395908 242.93713 
L 146.10746 244.840943 
L 150.819012 246.430606 
L 155.530564 247.741792 
L 160.242116 248.805847 
L 164.953668 249.650697 
L 169.665219 250.301511 
L 174.376771 250.781173 
L 179.088323 251.110638 
L 183.799875 251.30917 
L 188.511427 251.394527 
L 193.222979 251.383078 
L 197.934531 251.289891 
L 202.646083 251.128787 
L 207.357635 250.912377 
L 212.069186 250.652098 
L 216.780738 250.358232 
L 221.49229 250.039936 
L 226.203842 249.705271 
L 230.915394 249.361239 
L 235.626946 249.013835 
L 240.338498 248.668094 
L 245.05005 248.328163 
L 249.761601 247.997363 
L 254.473153 247.678272 
L 259.184705 247.372801 
L 263.896257 247.082277 
L 268.607809 246.807521 
L 273.319361 246.548931 
L 278.030913 246.30655 
L 282.742465 246.080138 
L 287.454017 245.869237 
L 292.165568 245.67322 
L 296.87712 245.491343 
L 301.588672 245.322789 
L 306.300224 245.166694 
L 311.011776 245.022183 
L 315.723328 244.888387 
L 320.43488 244.764461 
L 325.146432 244.649595 
L 329.857983 244.543027 
L 334.569535 244.44404 
L 339.281087 244.351973 
L 343.992639 244.266216 
L 348.704191 244.186212 
L 353.415743 244.111453 
L 358.127295 244.041479 
L 362.838847 243.975876 
L 367.550399 243.914268 
L 372.26195 243.856318 
L 376.973502 243.801722 
L 381.685054 243.750209 
L 386.396606 243.701533 
L 391.108158 243.655473 
L 395.81971 243.61183 
L 400.531262 243.570426 
L 405.242814 243.531097 
L 409.954365 243.493698 
L 414.665917 243.458095 
L 419.377469 243.424167 
L 424.089021 243.391804 
L 428.800573 243.360905 
L 433.512125 243.331379 
L 438.223677 243.30314 
L 442.935229 243.276111 
L 447.646781 243.250221 
L 452.358332 243.225404 
L 457.069884 243.201598 
L 461.781436 243.178748 
L 466.492988 243.1568 
L 471.20454 243.135707 
L 475.916092 243.115423 
L 480.627644 243.095906 
L 485.339196 243.077116 
L 490.050747 243.059018 
L 494.762299 243.041576 
L 499.473851 243.024758 
L 504.185403 243.008534 
L 508.896955 242.992877 
L 513.608507 242.977758 
L 518.320059 242.963154 
L 523.031611 242.949041 
L 527.743163 242.935396 
L 532.454714 242.922199 
L 537.166266 242.90943 
L 541.877818 242.89707 
" clip-path="url(#pc0222f9db9)" style="fill: none; stroke-dasharray: 1.5,2.475; stroke-dashoffset: 0; stroke: #ff0000; stroke-width: 1.5"/>
   </g>
   <g id="line2d_24">
    <path d="M 75.434182 67.498557 
L 80.145734 129.341127 
L 84.857286 158.096956 
L 89.568837 177.038671 
L 94.280389 191.187193 
L 98.991941 202.485359 
L 103.703493 211.891645 
L 108.415045 219.950013 
L 113.126597 226.999083 
L 117.838149 233.264033 
L 122.549701 238.902213 
L 127.261253 244.027924 
L 131.972804 248.726811 
L 136.684356 253.064715 
L 141.395908 257.093336 
L 146.10746 260.854022 
L 150.819012 264.380352 
L 155.530564 267.699976 
L 160.242116 270.835927 
L 164.953668 273.8076 
L 169.665219 276.631477 
L 174.376771 279.321684 
L 179.088323 281.890418 
L 183.799875 284.348286 
L 188.511427 286.704567 
L 193.222979 288.967426 
L 197.934531 291.144086 
L 202.646083 293.240965 
L 207.357635 295.263797 
L 212.069186 297.217718 
L 216.780738 299.107353 
L 221.49229 300.936879 
L 226.203842 302.710081 
L 230.915394 304.430398 
L 235.626946 306.100969 
L 240.338498 307.724661 
L 245.05005 309.304103 
L 249.761601 310.841711 
L 254.473153 312.339709 
L 259.184705 313.800152 
L 263.896257 315.224938 
L 268.607809 316.61583 
L 273.319361 317.97446 
L 278.030913 319.302351 
L 282.742465 320.600918 
L 287.454017 321.871485 
L 292.165568 323.115288 
L 296.87712 324.333484 
L 301.588672 325.527157 
L 306.300224 326.697327 
L 311.011776 327.844951 
L 315.723328 328.970929 
L 320.43488 330.076111 
L 325.146432 331.161298 
L 329.857983 332.227245 
L 334.569535 333.274669 
L 339.281087 334.304246 
L 343.992639 335.316616 
L 348.704191 336.312389 
L 353.415743 337.292141 
L 358.127295 338.25642 
L 362.838847 339.205748 
L 367.550399 340.14062 
L 372.26195 341.061509 
L 376.973502 341.968865 
L 381.685054 342.863117 
L 386.396606 343.744675 
L 391.108158 344.613931 
L 395.81971 345.471258 
L 400.531262 346.317015 
L 405.242814 347.151545 
L 409.954365 347.975174 
L 414.665917 348.788218 
L 419.377469 349.590979 
L 424.089021 350.383744 
L 428.800573 351.166793 
L 433.512125 351.940391 
L 438.223677 352.704795 
L 442.935229 353.460251 
L 447.646781 354.206996 
L 452.358332 354.945258 
L 457.069884 355.675257 
L 461.781436 356.397204 
L 466.492988 357.111304 
L 471.20454 357.817753 
L 475.916092 358.51674 
L 480.627644 359.208449 
L 485.339196 359.893057 
L 490.050747 360.570733 
L 494.762299 361.241643 
L 499.473851 361.905947 
L 504.185403 362.563798 
L 508.896955 363.215345 
L 513.608507 363.860734 
L 518.320059 364.500102 
L 523.031611 365.133586 
L 527.743163 365.761317 
L 532.454714 366.383421 
L 537.166266 367.000022 
L 541.877818 367.611238 
" clip-path="url(#pc0222f9db9)" style="fill: none; stroke-dasharray: 1.5,2.475; stroke-dashoffset: 0; stroke: #0000ff; stroke-width: 1.5"/>
   </g>
   <g id="patch_3">
    <path d="M 52.112 384.568 
L 52.112 11.519244 
" style="fill: none; stroke: #000000; stroke-width: 0.8; stroke-linejoin: miter; stroke-linecap: square"/>
   </g>
   <g id="patch_4">
    <path d="M 565.2 384.568 
L 565.2 11.519244 
" style="fill: none; stroke: #000000; stroke-width: 0.8; stroke-linejoin: miter; stroke-linecap: square"/>
   </g>
   <g id="patch_5">
    <path d="M 52.112 384.568 
L 565.2 384.568 
" style="fill: none; stroke: #000000; stroke-width: 0.8; stroke-linejoin: miter; stroke-linecap: square"/>
   </g>
   <g id="patch_6">
    <path d="M 52.112 11.519244 
L 565.2 11.519244 
" style="fill: none; stroke: #000000; stroke-width: 0.8; stroke-linejoin: miter; stroke-linecap: square"/>
   </g>
   <g id="legend_1">
    <g id="patch_7">
     <path d="M 511.73125 48.875494 
L 558.2 48.875494 
Q 560.2 48.875494 560.2 46.875494 
L 560.2 18.519244 
Q 560.2 16.519244 558.2 16.519244 
L 511.73125 16.519244 
Q 509.73125 16.519244 509.73125 18.519244 
L 509.73125 46.875494 
Q 509.73125 48.875494 511.73125 48.875494 
z
" style="fill: #ffffff; opacity: 0.8; stroke: #cccccc; stroke-linejoin: miter"/>
    </g>
    <g id="line2d_25">
     <path d="M 513.73125 24.617682 
L 523.73125 24.617682 
L 533.73125 24.617682 
" style="fill: none; stroke: #ff0000; stroke-width: 1.5; stroke-linecap: square"/>
    </g>
    <g id="text_21">
     <!-- HR -->
     <g transform="translate(541.73125 28.117682) scale(0.1 -0.1)">
      <defs>
       <path id="DejaVuSans-52" d="M 2841 2188 
Q 3044 2119 3236 1894 
Q 3428 1669 3622 1275 
L 4263 0 
L 3584 0 
L 2988 1197 
Q 2756 1666 2539 1819 
Q 2322 1972 1947 1972 
L 1259 1972 
L 1259 0 
L 628 0 
L 628 4666 
L 2053 4666 
Q 2853 4666 3247 4331 
Q 3641 3997 3641 3322 
Q 3641 2881 3436 2590 
Q 3231 2300 2841 2188 
z
M 1259 4147 
L 1259 2491 
L 2053 2491 
Q 2509 2491 2742 2702 
Q 2975 2913 2975 3322 
Q 2975 3731 2742 3939 
Q 2509 4147 2053 4147 
L 1259 4147 
z
" transform="scale(0.015625)"/>
      </defs>
      <use xlink:href="#DejaVuSans-48"/>
      <use xlink:href="#DejaVuSans-52" x="75.195312"/>
     </g>
    </g>
    <g id="line2d_26">
     <path d="M 513.73125 39.295807 
L 523.73125 39.295807 
L 533.73125 39.295807 
" style="fill: none; stroke: #0000ff; stroke-width: 1.5; stroke-linecap: square"/>
    </g>
    <g id="text_22">
     <!-- FR -->
     <g transform="translate(541.73125 42.795807) scale(0.1 -0.1)">
      <defs>
       <path id="DejaVuSans-46" d="M 628 4666 
L 3309 4666 
L 3309 4134 
L 1259 4134 
L 1259 2759 
L 3109 2759 
L 3109 2228 
L 1259 2228 
L 1259 0 
L 628 0 
L 628 4666 
z
" transform="scale(0.015625)"/>
      </defs>
      <use xlink:href="#DejaVuSans-46"/>
      <use xlink:href="#DejaVuSans-52" x="57.519531"/>
     </g>
    </g>
   </g>
  </g>
 </g>
 <defs>
  <clipPath id="pc0222f9db9">
   <rect x="52.112" y="11.519244" width="513.088" height="373.048756"/>
  </clipPath>
 </defs>
</svg>
