<?xml version="1.0" encoding="utf-8" standalone="no"?>
<!DOCTYPE svg PUBLIC "-//W3C//DTD SVG 1.1//EN"
  "http://www.w3.org/Graphics/SVG/1.1/DTD/svg11.dtd">
<svg xmlns:xlink="http://www.w3.org/1999/xlink" width="720pt" height="360pt" viewBox="0 0 720 360" xmlns="http://www.w3.org/2000/svg" version="1.1">
 <metadata>
  <rdf:RDF xmlns:dc="http://purl.org/dc/elements/1.1/" xmlns:cc="http://creativecommons.org/ns#" xmlns:rdf="http://www.w3.org/1999/02/22-rdf-syntax-ns#">
   <cc:Work>
    <dc:type rdf:resource="http://purl.org/dc/dcmitype/StillImage"/>
    <dc:date>2024-09-07T22:30:53.154458</dc:date>
    <dc:format>image/svg+xml</dc:format>
    <dc:creator>
     <cc:Agent>
      <dc:title>Matplotlib v3.9.2, https://matplotlib.org/</dc:title>
     </cc:Agent>
    </dc:creator>
   </cc:Work>
  </rdf:RDF>
 </metadata>
 <defs>
  <style type="text/css">*{stroke-linejoin: round; stroke-linecap: butt}</style>
 </defs>
 <g id="figure_1">
  <g id="patch_1">
   <path d="M 0 360 
L 720 360 
L 720 0 
L 0 0 
z
" style="fill: #ffffff"/>
  </g>
  <g id="axes_1">
   <g id="patch_2">
    <path d="M 50.042 318.04 
L 709.2 318.04 
L 709.2 10.8 
L 50.042 10.8 
z
" style="fill: #ffffff"/>
   </g>
   <g id="matplotlib.axis_1">
    <g id="xtick_1">
     <g id="line2d_1">
      <defs>
       <path id="m4aced3c8a1" d="M 0 0 
L 0 3.5 
" style="stroke: #000000; stroke-width: 0.8"/>
      </defs>
      <g>
       <use xlink:href="#m4aced3c8a1" x="80.004061" y="318.04" style="stroke: #000000; stroke-width: 0.8"/>
      </g>
     </g>
     <g id="text_1">
      <!-- 0 -->
      <g transform="translate(76.822811 332.638438) scale(0.1 -0.1)">
       <defs>
        <path id="DejaVuSans-30" d="M 2034 4250 
Q 1547 4250 1301 3770 
Q 1056 3291 1056 2328 
Q 1056 1369 1301 889 
Q 1547 409 2034 409 
Q 2525 409 2770 889 
Q 3016 1369 3016 2328 
Q 3016 3291 2770 3770 
Q 2525 4250 2034 4250 
z
M 2034 4750 
Q 2819 4750 3233 4129 
Q 3647 3509 3647 2328 
Q 3647 1150 3233 529 
Q 2819 -91 2034 -91 
Q 1250 -91 836 529 
Q 422 1150 422 2328 
Q 422 3509 836 4129 
Q 1250 4750 2034 4750 
z
" transform="scale(0.015625)"/>
       </defs>
       <use xlink:href="#DejaVuSans-30"/>
      </g>
     </g>
    </g>
    <g id="xtick_2">
     <g id="line2d_2">
      <g>
       <use xlink:href="#m4aced3c8a1" x="163.462865" y="318.04" style="stroke: #000000; stroke-width: 0.8"/>
      </g>
     </g>
     <g id="text_2">
      <!-- 50 -->
      <g transform="translate(157.100365 332.638438) scale(0.1 -0.1)">
       <defs>
        <path id="DejaVuSans-35" d="M 691 4666 
L 3169 4666 
L 3169 4134 
L 1269 4134 
L 1269 2991 
Q 1406 3038 1543 3061 
Q 1681 3084 1819 3084 
Q 2600 3084 3056 2656 
Q 3513 2228 3513 1497 
Q 3513 744 3044 326 
Q 2575 -91 1722 -91 
Q 1428 -91 1123 -41 
Q 819 9 494 109 
L 494 744 
Q 775 591 1075 516 
Q 1375 441 1709 441 
Q 2250 441 2565 725 
Q 2881 1009 2881 1497 
Q 2881 1984 2565 2268 
Q 2250 2553 1709 2553 
Q 1456 2553 1204 2497 
Q 953 2441 691 2322 
L 691 4666 
z
" transform="scale(0.015625)"/>
       </defs>
       <use xlink:href="#DejaVuSans-35"/>
       <use xlink:href="#DejaVuSans-30" x="63.623047"/>
      </g>
     </g>
    </g>
    <g id="xtick_3">
     <g id="line2d_3">
      <g>
       <use xlink:href="#m4aced3c8a1" x="246.921669" y="318.04" style="stroke: #000000; stroke-width: 0.8"/>
      </g>
     </g>
     <g id="text_3">
      <!-- 100 -->
      <g transform="translate(237.377919 332.638438) scale(0.1 -0.1)">
       <defs>
        <path id="DejaVuSans-31" d="M 794 531 
L 1825 531 
L 1825 4091 
L 703 3866 
L 703 4441 
L 1819 4666 
L 2450 4666 
L 2450 531 
L 3481 531 
L 3481 0 
L 794 0 
L 794 531 
z
" transform="scale(0.015625)"/>
       </defs>
       <use xlink:href="#DejaVuSans-31"/>
       <use xlink:href="#DejaVuSans-30" x="63.623047"/>
       <use xlink:href="#DejaVuSans-30" x="127.246094"/>
      </g>
     </g>
    </g>
    <g id="xtick_4">
     <g id="line2d_4">
      <g>
       <use xlink:href="#m4aced3c8a1" x="330.380473" y="318.04" style="stroke: #000000; stroke-width: 0.8"/>
      </g>
     </g>
     <g id="text_4">
      <!-- 150 -->
      <g transform="translate(320.836723 332.638438) scale(0.1 -0.1)">
       <use xlink:href="#DejaVuSans-31"/>
       <use xlink:href="#DejaVuSans-35" x="63.623047"/>
       <use xlink:href="#DejaVuSans-30" x="127.246094"/>
      </g>
     </g>
    </g>
    <g id="xtick_5">
     <g id="line2d_5">
      <g>
       <use xlink:href="#m4aced3c8a1" x="413.839276" y="318.04" style="stroke: #000000; stroke-width: 0.8"/>
      </g>
     </g>
     <g id="text_5">
      <!-- 200 -->
      <g transform="translate(404.295526 332.638438) scale(0.1 -0.1)">
       <defs>
        <path id="DejaVuSans-32" d="M 1228 531 
L 3431 531 
L 3431 0 
L 469 0 
L 469 531 
Q 828 903 1448 1529 
Q 2069 2156 2228 2338 
Q 2531 2678 2651 2914 
Q 2772 3150 2772 3378 
Q 2772 3750 2511 3984 
Q 2250 4219 1831 4219 
Q 1534 4219 1204 4116 
Q 875 4013 500 3803 
L 500 4441 
Q 881 4594 1212 4672 
Q 1544 4750 1819 4750 
Q 2544 4750 2975 4387 
Q 3406 4025 3406 3419 
Q 3406 3131 3298 2873 
Q 3191 2616 2906 2266 
Q 2828 2175 2409 1742 
Q 1991 1309 1228 531 
z
" transform="scale(0.015625)"/>
       </defs>
       <use xlink:href="#DejaVuSans-32"/>
       <use xlink:href="#DejaVuSans-30" x="63.623047"/>
       <use xlink:href="#DejaVuSans-30" x="127.246094"/>
      </g>
     </g>
    </g>
    <g id="xtick_6">
     <g id="line2d_6">
      <g>
       <use xlink:href="#m4aced3c8a1" x="497.29808" y="318.04" style="stroke: #000000; stroke-width: 0.8"/>
      </g>
     </g>
     <g id="text_6">
      <!-- 250 -->
      <g transform="translate(487.75433 332.638438) scale(0.1 -0.1)">
       <use xlink:href="#DejaVuSans-32"/>
       <use xlink:href="#DejaVuSans-35" x="63.623047"/>
       <use xlink:href="#DejaVuSans-30" x="127.246094"/>
      </g>
     </g>
    </g>
    <g id="xtick_7">
     <g id="line2d_7">
      <g>
       <use xlink:href="#m4aced3c8a1" x="580.756884" y="318.04" style="stroke: #000000; stroke-width: 0.8"/>
      </g>
     </g>
     <g id="text_7">
      <!-- 300 -->
      <g transform="translate(571.213134 332.638438) scale(0.1 -0.1)">
       <defs>
        <path id="DejaVuSans-33" d="M 2597 2516 
Q 3050 2419 3304 2112 
Q 3559 1806 3559 1356 
Q 3559 666 3084 287 
Q 2609 -91 1734 -91 
Q 1441 -91 1130 -33 
Q 819 25 488 141 
L 488 750 
Q 750 597 1062 519 
Q 1375 441 1716 441 
Q 2309 441 2620 675 
Q 2931 909 2931 1356 
Q 2931 1769 2642 2001 
Q 2353 2234 1838 2234 
L 1294 2234 
L 1294 2753 
L 1863 2753 
Q 2328 2753 2575 2939 
Q 2822 3125 2822 3475 
Q 2822 3834 2567 4026 
Q 2313 4219 1838 4219 
Q 1578 4219 1281 4162 
Q 984 4106 628 3988 
L 628 4550 
Q 988 4650 1302 4700 
Q 1616 4750 1894 4750 
Q 2613 4750 3031 4423 
Q 3450 4097 3450 3541 
Q 3450 3153 3228 2886 
Q 3006 2619 2597 2516 
z
" transform="scale(0.015625)"/>
       </defs>
       <use xlink:href="#DejaVuSans-33"/>
       <use xlink:href="#DejaVuSans-30" x="63.623047"/>
       <use xlink:href="#DejaVuSans-30" x="127.246094"/>
      </g>
     </g>
    </g>
    <g id="xtick_8">
     <g id="line2d_8">
      <g>
       <use xlink:href="#m4aced3c8a1" x="664.215688" y="318.04" style="stroke: #000000; stroke-width: 0.8"/>
      </g>
     </g>
     <g id="text_8">
      <!-- 350 -->
      <g transform="translate(654.671938 332.638438) scale(0.1 -0.1)">
       <use xlink:href="#DejaVuSans-33"/>
       <use xlink:href="#DejaVuSans-35" x="63.623047"/>
       <use xlink:href="#DejaVuSans-30" x="127.246094"/>
      </g>
     </g>
    </g>
    <g id="text_9">
     <!-- Angle (°) -->
     <g transform="translate(357.401469 346.316563) scale(0.1 -0.1)">
      <defs>
       <path id="DejaVuSans-41" d="M 2188 4044 
L 1331 1722 
L 3047 1722 
L 2188 4044 
z
M 1831 4666 
L 2547 4666 
L 4325 0 
L 3669 0 
L 3244 1197 
L 1141 1197 
L 716 0 
L 50 0 
L 1831 4666 
z
" transform="scale(0.015625)"/>
       <path id="DejaVuSans-6e" d="M 3513 2113 
L 3513 0 
L 2938 0 
L 2938 2094 
Q 2938 2591 2744 2837 
Q 2550 3084 2163 3084 
Q 1697 3084 1428 2787 
Q 1159 2491 1159 1978 
L 1159 0 
L 581 0 
L 581 3500 
L 1159 3500 
L 1159 2956 
Q 1366 3272 1645 3428 
Q 1925 3584 2291 3584 
Q 2894 3584 3203 3211 
Q 3513 2838 3513 2113 
z
" transform="scale(0.015625)"/>
       <path id="DejaVuSans-67" d="M 2906 1791 
Q 2906 2416 2648 2759 
Q 2391 3103 1925 3103 
Q 1463 3103 1205 2759 
Q 947 2416 947 1791 
Q 947 1169 1205 825 
Q 1463 481 1925 481 
Q 2391 481 2648 825 
Q 2906 1169 2906 1791 
z
M 3481 434 
Q 3481 -459 3084 -895 
Q 2688 -1331 1869 -1331 
Q 1566 -1331 1297 -1286 
Q 1028 -1241 775 -1147 
L 775 -588 
Q 1028 -725 1275 -790 
Q 1522 -856 1778 -856 
Q 2344 -856 2625 -561 
Q 2906 -266 2906 331 
L 2906 616 
Q 2728 306 2450 153 
Q 2172 0 1784 0 
Q 1141 0 747 490 
Q 353 981 353 1791 
Q 353 2603 747 3093 
Q 1141 3584 1784 3584 
Q 2172 3584 2450 3431 
Q 2728 3278 2906 2969 
L 2906 3500 
L 3481 3500 
L 3481 434 
z
" transform="scale(0.015625)"/>
       <path id="DejaVuSans-6c" d="M 603 4863 
L 1178 4863 
L 1178 0 
L 603 0 
L 603 4863 
z
" transform="scale(0.015625)"/>
       <path id="DejaVuSans-65" d="M 3597 1894 
L 3597 1613 
L 953 1613 
Q 991 1019 1311 708 
Q 1631 397 2203 397 
Q 2534 397 2845 478 
Q 3156 559 3463 722 
L 3463 178 
Q 3153 47 2828 -22 
Q 2503 -91 2169 -91 
Q 1331 -91 842 396 
Q 353 884 353 1716 
Q 353 2575 817 3079 
Q 1281 3584 2069 3584 
Q 2775 3584 3186 3129 
Q 3597 2675 3597 1894 
z
M 3022 2063 
Q 3016 2534 2758 2815 
Q 2500 3097 2075 3097 
Q 1594 3097 1305 2825 
Q 1016 2553 972 2059 
L 3022 2063 
z
" transform="scale(0.015625)"/>
       <path id="DejaVuSans-20" transform="scale(0.015625)"/>
       <path id="DejaVuSans-28" d="M 1984 4856 
Q 1566 4138 1362 3434 
Q 1159 2731 1159 2009 
Q 1159 1288 1364 580 
Q 1569 -128 1984 -844 
L 1484 -844 
Q 1016 -109 783 600 
Q 550 1309 550 2009 
Q 550 2706 781 3412 
Q 1013 4119 1484 4856 
L 1984 4856 
z
" transform="scale(0.015625)"/>
       <path id="DejaVuSans-b0" d="M 1600 4347 
Q 1350 4347 1178 4173 
Q 1006 4000 1006 3750 
Q 1006 3503 1178 3333 
Q 1350 3163 1600 3163 
Q 1850 3163 2022 3333 
Q 2194 3503 2194 3750 
Q 2194 3997 2020 4172 
Q 1847 4347 1600 4347 
z
M 1600 4750 
Q 1800 4750 1984 4673 
Q 2169 4597 2303 4453 
Q 2447 4313 2519 4134 
Q 2591 3956 2591 3750 
Q 2591 3338 2302 3052 
Q 2013 2766 1594 2766 
Q 1172 2766 890 3047 
Q 609 3328 609 3750 
Q 609 4169 896 4459 
Q 1184 4750 1600 4750 
z
" transform="scale(0.015625)"/>
       <path id="DejaVuSans-29" d="M 513 4856 
L 1013 4856 
Q 1481 4119 1714 3412 
Q 1947 2706 1947 2009 
Q 1947 1309 1714 600 
Q 1481 -109 1013 -844 
L 513 -844 
Q 928 -128 1133 580 
Q 1338 1288 1338 2009 
Q 1338 2731 1133 3434 
Q 928 4138 513 4856 
z
" transform="scale(0.015625)"/>
      </defs>
      <use xlink:href="#DejaVuSans-41"/>
      <use xlink:href="#DejaVuSans-6e" x="68.408203"/>
      <use xlink:href="#DejaVuSans-67" x="131.787109"/>
      <use xlink:href="#DejaVuSans-6c" x="195.263672"/>
      <use xlink:href="#DejaVuSans-65" x="223.046875"/>
      <use xlink:href="#DejaVuSans-20" x="284.570312"/>
      <use xlink:href="#DejaVuSans-28" x="316.357422"/>
      <use xlink:href="#DejaVuSans-b0" x="355.371094"/>
      <use xlink:href="#DejaVuSans-29" x="405.371094"/>
     </g>
    </g>
   </g>
   <g id="matplotlib.axis_2">
    <g id="ytick_1">
     <g id="line2d_9">
      <defs>
       <path id="m34e2b56324" d="M 0 0 
L -3.5 0 
" style="stroke: #000000; stroke-width: 0.8"/>
      </defs>
      <g>
       <use xlink:href="#m34e2b56324" x="50.042" y="318.04" style="stroke: #000000; stroke-width: 0.8"/>
      </g>
     </g>
     <g id="text_10">
      <!-- 0 -->
      <g transform="translate(36.6795 321.839219) scale(0.1 -0.1)">
       <use xlink:href="#DejaVuSans-30"/>
      </g>
     </g>
    </g>
    <g id="ytick_2">
     <g id="line2d_10">
      <g>
       <use xlink:href="#m34e2b56324" x="50.042" y="270.772308" style="stroke: #000000; stroke-width: 0.8"/>
      </g>
     </g>
     <g id="text_11">
      <!-- 2 -->
      <g transform="translate(36.6795 274.571526) scale(0.1 -0.1)">
       <use xlink:href="#DejaVuSans-32"/>
      </g>
     </g>
    </g>
    <g id="ytick_3">
     <g id="line2d_11">
      <g>
       <use xlink:href="#m34e2b56324" x="50.042" y="223.504615" style="stroke: #000000; stroke-width: 0.8"/>
      </g>
     </g>
     <g id="text_12">
      <!-- 4 -->
      <g transform="translate(36.6795 227.303834) scale(0.1 -0.1)">
       <defs>
        <path id="DejaVuSans-34" d="M 2419 4116 
L 825 1625 
L 2419 1625 
L 2419 4116 
z
M 2253 4666 
L 3047 4666 
L 3047 1625 
L 3713 1625 
L 3713 1100 
L 3047 1100 
L 3047 0 
L 2419 0 
L 2419 1100 
L 313 1100 
L 313 1709 
L 2253 4666 
z
" transform="scale(0.015625)"/>
       </defs>
       <use xlink:href="#DejaVuSans-34"/>
      </g>
     </g>
    </g>
    <g id="ytick_4">
     <g id="line2d_12">
      <g>
       <use xlink:href="#m34e2b56324" x="50.042" y="176.236923" style="stroke: #000000; stroke-width: 0.8"/>
      </g>
     </g>
     <g id="text_13">
      <!-- 6 -->
      <g transform="translate(36.6795 180.036142) scale(0.1 -0.1)">
       <defs>
        <path id="DejaVuSans-36" d="M 2113 2584 
Q 1688 2584 1439 2293 
Q 1191 2003 1191 1497 
Q 1191 994 1439 701 
Q 1688 409 2113 409 
Q 2538 409 2786 701 
Q 3034 994 3034 1497 
Q 3034 2003 2786 2293 
Q 2538 2584 2113 2584 
z
M 3366 4563 
L 3366 3988 
Q 3128 4100 2886 4159 
Q 2644 4219 2406 4219 
Q 1781 4219 1451 3797 
Q 1122 3375 1075 2522 
Q 1259 2794 1537 2939 
Q 1816 3084 2150 3084 
Q 2853 3084 3261 2657 
Q 3669 2231 3669 1497 
Q 3669 778 3244 343 
Q 2819 -91 2113 -91 
Q 1303 -91 875 529 
Q 447 1150 447 2328 
Q 447 3434 972 4092 
Q 1497 4750 2381 4750 
Q 2619 4750 2861 4703 
Q 3103 4656 3366 4563 
z
" transform="scale(0.015625)"/>
       </defs>
       <use xlink:href="#DejaVuSans-36"/>
      </g>
     </g>
    </g>
    <g id="ytick_5">
     <g id="line2d_13">
      <g>
       <use xlink:href="#m34e2b56324" x="50.042" y="128.969231" style="stroke: #000000; stroke-width: 0.8"/>
      </g>
     </g>
     <g id="text_14">
      <!-- 8 -->
      <g transform="translate(36.6795 132.76845) scale(0.1 -0.1)">
       <defs>
        <path id="DejaVuSans-38" d="M 2034 2216 
Q 1584 2216 1326 1975 
Q 1069 1734 1069 1313 
Q 1069 891 1326 650 
Q 1584 409 2034 409 
Q 2484 409 2743 651 
Q 3003 894 3003 1313 
Q 3003 1734 2745 1975 
Q 2488 2216 2034 2216 
z
M 1403 2484 
Q 997 2584 770 2862 
Q 544 3141 544 3541 
Q 544 4100 942 4425 
Q 1341 4750 2034 4750 
Q 2731 4750 3128 4425 
Q 3525 4100 3525 3541 
Q 3525 3141 3298 2862 
Q 3072 2584 2669 2484 
Q 3125 2378 3379 2068 
Q 3634 1759 3634 1313 
Q 3634 634 3220 271 
Q 2806 -91 2034 -91 
Q 1263 -91 848 271 
Q 434 634 434 1313 
Q 434 1759 690 2068 
Q 947 2378 1403 2484 
z
M 1172 3481 
Q 1172 3119 1398 2916 
Q 1625 2713 2034 2713 
Q 2441 2713 2670 2916 
Q 2900 3119 2900 3481 
Q 2900 3844 2670 4047 
Q 2441 4250 2034 4250 
Q 1625 4250 1398 4047 
Q 1172 3844 1172 3481 
z
" transform="scale(0.015625)"/>
       </defs>
       <use xlink:href="#DejaVuSans-38"/>
      </g>
     </g>
    </g>
    <g id="ytick_6">
     <g id="line2d_14">
      <g>
       <use xlink:href="#m34e2b56324" x="50.042" y="81.701538" style="stroke: #000000; stroke-width: 0.8"/>
      </g>
     </g>
     <g id="text_15">
      <!-- 10 -->
      <g transform="translate(30.317 85.500757) scale(0.1 -0.1)">
       <use xlink:href="#DejaVuSans-31"/>
       <use xlink:href="#DejaVuSans-30" x="63.623047"/>
      </g>
     </g>
    </g>
    <g id="ytick_7">
     <g id="line2d_15">
      <g>
       <use xlink:href="#m34e2b56324" x="50.042" y="34.433846" style="stroke: #000000; stroke-width: 0.8"/>
      </g>
     </g>
     <g id="text_16">
      <!-- 12 -->
      <g transform="translate(30.317 38.233065) scale(0.1 -0.1)">
       <use xlink:href="#DejaVuSans-31"/>
       <use xlink:href="#DejaVuSans-32" x="63.623047"/>
      </g>
     </g>
    </g>
    <g id="text_17">
     <!-- Energy (kJ mol$^{-1}$) -->
     <g transform="translate(24.217 208.17) rotate(-90) scale(0.1 -0.1)">
      <defs>
       <path id="DejaVuSans-45" d="M 628 4666 
L 3578 4666 
L 3578 4134 
L 1259 4134 
L 1259 2753 
L 3481 2753 
L 3481 2222 
L 1259 2222 
L 1259 531 
L 3634 531 
L 3634 0 
L 628 0 
L 628 4666 
z
" transform="scale(0.015625)"/>
       <path id="DejaVuSans-72" d="M 2631 2963 
Q 2534 3019 2420 3045 
Q 2306 3072 2169 3072 
Q 1681 3072 1420 2755 
Q 1159 2438 1159 1844 
L 1159 0 
L 581 0 
L 581 3500 
L 1159 3500 
L 1159 2956 
Q 1341 3275 1631 3429 
Q 1922 3584 2338 3584 
Q 2397 3584 2469 3576 
Q 2541 3569 2628 3553 
L 2631 2963 
z
" transform="scale(0.015625)"/>
       <path id="DejaVuSans-79" d="M 2059 -325 
Q 1816 -950 1584 -1140 
Q 1353 -1331 966 -1331 
L 506 -1331 
L 506 -850 
L 844 -850 
Q 1081 -850 1212 -737 
Q 1344 -625 1503 -206 
L 1606 56 
L 191 3500 
L 800 3500 
L 1894 763 
L 2988 3500 
L 3597 3500 
L 2059 -325 
z
" transform="scale(0.015625)"/>
       <path id="DejaVuSans-6b" d="M 581 4863 
L 1159 4863 
L 1159 1991 
L 2875 3500 
L 3609 3500 
L 1753 1863 
L 3688 0 
L 2938 0 
L 1159 1709 
L 1159 0 
L 581 0 
L 581 4863 
z
" transform="scale(0.015625)"/>
       <path id="DejaVuSans-4a" d="M 628 4666 
L 1259 4666 
L 1259 325 
Q 1259 -519 939 -900 
Q 619 -1281 -91 -1281 
L -331 -1281 
L -331 -750 
L -134 -750 
Q 284 -750 456 -515 
Q 628 -281 628 325 
L 628 4666 
z
" transform="scale(0.015625)"/>
       <path id="DejaVuSans-6d" d="M 3328 2828 
Q 3544 3216 3844 3400 
Q 4144 3584 4550 3584 
Q 5097 3584 5394 3201 
Q 5691 2819 5691 2113 
L 5691 0 
L 5113 0 
L 5113 2094 
Q 5113 2597 4934 2840 
Q 4756 3084 4391 3084 
Q 3944 3084 3684 2787 
Q 3425 2491 3425 1978 
L 3425 0 
L 2847 0 
L 2847 2094 
Q 2847 2600 2669 2842 
Q 2491 3084 2119 3084 
Q 1678 3084 1418 2786 
Q 1159 2488 1159 1978 
L 1159 0 
L 581 0 
L 581 3500 
L 1159 3500 
L 1159 2956 
Q 1356 3278 1631 3431 
Q 1906 3584 2284 3584 
Q 2666 3584 2933 3390 
Q 3200 3197 3328 2828 
z
" transform="scale(0.015625)"/>
       <path id="DejaVuSans-6f" d="M 1959 3097 
Q 1497 3097 1228 2736 
Q 959 2375 959 1747 
Q 959 1119 1226 758 
Q 1494 397 1959 397 
Q 2419 397 2687 759 
Q 2956 1122 2956 1747 
Q 2956 2369 2687 2733 
Q 2419 3097 1959 3097 
z
M 1959 3584 
Q 2709 3584 3137 3096 
Q 3566 2609 3566 1747 
Q 3566 888 3137 398 
Q 2709 -91 1959 -91 
Q 1206 -91 779 398 
Q 353 888 353 1747 
Q 353 2609 779 3096 
Q 1206 3584 1959 3584 
z
" transform="scale(0.015625)"/>
       <path id="DejaVuSans-2212" d="M 678 2272 
L 4684 2272 
L 4684 1741 
L 678 1741 
L 678 2272 
z
" transform="scale(0.015625)"/>
      </defs>
      <use xlink:href="#DejaVuSans-45" transform="translate(0 0.684375)"/>
      <use xlink:href="#DejaVuSans-6e" transform="translate(63.183594 0.684375)"/>
      <use xlink:href="#DejaVuSans-65" transform="translate(126.5625 0.684375)"/>
      <use xlink:href="#DejaVuSans-72" transform="translate(188.085938 0.684375)"/>
      <use xlink:href="#DejaVuSans-67" transform="translate(229.199219 0.684375)"/>
      <use xlink:href="#DejaVuSans-79" transform="translate(292.675781 0.684375)"/>
      <use xlink:href="#DejaVuSans-20" transform="translate(351.855469 0.684375)"/>
      <use xlink:href="#DejaVuSans-28" transform="translate(383.642578 0.684375)"/>
      <use xlink:href="#DejaVuSans-6b" transform="translate(422.65625 0.684375)"/>
      <use xlink:href="#DejaVuSans-4a" transform="translate(480.566406 0.684375)"/>
      <use xlink:href="#DejaVuSans-20" transform="translate(510.058594 0.684375)"/>
      <use xlink:href="#DejaVuSans-6d" transform="translate(541.845703 0.684375)"/>
      <use xlink:href="#DejaVuSans-6f" transform="translate(639.257812 0.684375)"/>
      <use xlink:href="#DejaVuSans-6c" transform="translate(700.439453 0.684375)"/>
      <use xlink:href="#DejaVuSans-2212" transform="translate(729.179688 38.965625) scale(0.7)"/>
      <use xlink:href="#DejaVuSans-31" transform="translate(787.832031 38.965625) scale(0.7)"/>
      <use xlink:href="#DejaVuSans-29" transform="translate(835.102539 0.684375)"/>
     </g>
    </g>
   </g>
   <g id="line2d_16">
    <defs>
     <path id="m1460888a22" d="M 0 3 
C 0.795609 3 1.55874 2.683901 2.12132 2.12132 
C 2.683901 1.55874 3 0.795609 3 0 
C 3 -0.795609 2.683901 -1.55874 2.12132 -2.12132 
C 1.55874 -2.683901 0.795609 -3 0 -3 
C -0.795609 -3 -1.55874 -2.683901 -2.12132 -2.12132 
C -2.683901 -1.55874 -3 -0.795609 -3 0 
C -3 0.795609 -2.683901 1.55874 -2.12132 2.12132 
C -1.55874 2.683901 -0.795609 3 0 3 
z
" style="stroke: #0000ff"/>
    </defs>
    <g clip-path="url(#pd15df95a0f)">
     <use xlink:href="#m1460888a22" x="80.003727" y="318.04" style="fill: #0000ff; stroke: #0000ff"/>
     <use xlink:href="#m1460888a22" x="96.695989" y="301.297001" style="fill: #0000ff; stroke: #0000ff"/>
     <use xlink:href="#m1460888a22" x="113.38775" y="254.991469" style="fill: #0000ff; stroke: #0000ff"/>
     <use xlink:href="#m1460888a22" x="130.07951" y="189.581464" style="fill: #0000ff; stroke: #0000ff"/>
     <use xlink:href="#m1460888a22" x="146.770937" y="121.597877" style="fill: #0000ff; stroke: #0000ff"/>
     <use xlink:href="#m1460888a22" x="163.463199" y="69.815443" style="fill: #0000ff; stroke: #0000ff"/>
     <use xlink:href="#m1460888a22" x="180.154793" y="50.318915" style="fill: #0000ff; stroke: #0000ff"/>
     <use xlink:href="#m1460888a22" x="196.84672" y="69.815033" style="fill: #0000ff; stroke: #0000ff"/>
     <use xlink:href="#m1460888a22" x="213.538314" y="121.598485" style="fill: #0000ff; stroke: #0000ff"/>
     <use xlink:href="#m1460888a22" x="230.230075" y="189.582587" style="fill: #0000ff; stroke: #0000ff"/>
     <use xlink:href="#m1460888a22" x="246.922003" y="254.993945" style="fill: #0000ff; stroke: #0000ff"/>
     <use xlink:href="#m1460888a22" x="263.613596" y="301.316746" style="fill: #0000ff; stroke: #0000ff"/>
    </g>
   </g>
   <g id="line2d_17">
    <path d="M 80.004061 318.04 
L 81.673237 317.859129 
L 83.342413 317.317011 
L 85.011589 316.415132 
L 86.680765 315.155964 
L 88.349941 313.542959 
L 90.019118 311.580537 
L 91.688294 309.274077 
L 93.35747 306.629902 
L 95.026646 303.655259 
L 96.695822 300.3583 
L 98.364998 296.748064 
L 100.034174 292.834444 
L 103.372526 284.140767 
L 106.710878 274.372518 
L 110.04923 263.636721 
L 113.387583 252.050999 
L 116.725935 239.742287 
L 121.733463 220.220418 
L 128.410167 192.969193 
L 138.425224 151.903577 
L 143.432752 132.381708 
L 146.771104 120.072996 
L 150.109456 108.487274 
L 153.447808 97.751477 
L 156.786161 87.983228 
L 160.124513 79.289551 
L 161.793689 75.375931 
L 163.462865 71.765695 
L 165.132041 68.468736 
L 166.801217 65.494093 
L 168.470393 62.849918 
L 170.139569 60.543458 
L 171.808745 58.581037 
L 173.477921 56.968031 
L 175.147097 55.708863 
L 176.816274 54.806985 
L 178.48545 54.264867 
L 180.154626 54.083995 
L 181.823802 54.264867 
L 183.492978 54.806985 
L 185.162154 55.708863 
L 186.83133 56.968031 
L 188.500506 58.581037 
L 190.169682 60.543458 
L 191.838858 62.849918 
L 193.508034 65.494093 
L 195.17721 68.468736 
L 196.846386 71.765695 
L 198.515563 75.375931 
L 200.184739 79.289551 
L 203.523091 87.983228 
L 206.861443 97.751477 
L 210.199795 108.487274 
L 213.538147 120.072996 
L 216.876499 132.381708 
L 221.884028 151.903577 
L 228.560732 179.154803 
L 238.575788 220.220418 
L 243.583317 239.742287 
L 246.921669 252.050999 
L 250.260021 263.636721 
L 253.598373 274.372518 
L 256.936725 284.140767 
L 260.275077 292.834444 
L 261.944253 296.748064 
L 263.61343 300.3583 
L 265.282606 303.655259 
L 266.951782 306.629902 
L 268.620958 309.274077 
L 270.290134 311.580537 
L 271.95931 313.542959 
L 273.628486 315.155964 
L 275.297662 316.415132 
L 276.966838 317.317011 
L 278.636014 317.859129 
L 280.30519 318.04 
L 281.974366 317.859129 
L 283.643542 317.317011 
L 285.312719 316.415132 
L 286.981895 315.155964 
L 288.651071 313.542959 
L 290.320247 311.580537 
L 291.989423 309.274077 
L 293.658599 306.629902 
L 295.327775 303.655259 
L 296.996951 300.3583 
L 298.666127 296.748064 
L 300.335303 292.834444 
L 303.673655 284.140767 
L 307.012008 274.372518 
L 310.35036 263.636721 
L 313.688712 252.050999 
L 317.027064 239.742287 
L 322.034592 220.220418 
L 328.711297 192.969193 
L 338.726353 151.903577 
L 343.733881 132.381708 
L 347.072233 120.072996 
L 350.410586 108.487274 
L 353.748938 97.751477 
L 357.08729 87.983228 
L 360.425642 79.289551 
L 362.094818 75.375931 
L 363.763994 71.765695 
L 365.43317 68.468736 
L 367.102346 65.494093 
L 368.771522 62.849918 
L 370.440698 60.543458 
L 372.109875 58.581037 
L 373.779051 56.968031 
L 375.448227 55.708863 
L 377.117403 54.806985 
L 378.786579 54.264867 
L 380.455755 54.083995 
L 382.124931 54.264867 
L 383.794107 54.806985 
L 385.463283 55.708863 
L 387.132459 56.968031 
L 388.801635 58.581037 
L 390.470811 60.543458 
L 392.139987 62.849918 
L 393.809164 65.494093 
L 395.47834 68.468736 
L 397.147516 71.765695 
L 398.816692 75.375931 
L 400.485868 79.289551 
L 403.82422 87.983228 
L 407.162572 97.751477 
L 410.500924 108.487274 
L 413.839276 120.072996 
L 417.177629 132.381708 
L 422.185157 151.903577 
L 428.861861 179.154803 
L 438.876918 220.220418 
L 443.884446 239.742287 
L 447.222798 252.050999 
L 450.56115 263.636721 
L 453.899502 274.372518 
L 457.237854 284.140767 
L 460.576207 292.834444 
L 462.245383 296.748064 
L 463.914559 300.3583 
L 465.583735 303.655259 
L 467.252911 306.629902 
L 468.922087 309.274077 
L 470.591263 311.580537 
L 472.260439 313.542959 
L 473.929615 315.155964 
L 475.598791 316.415132 
L 477.267967 317.317011 
L 478.937143 317.859129 
L 480.60632 318.04 
L 482.275496 317.859129 
L 483.944672 317.317011 
L 485.613848 316.415132 
L 487.283024 315.155964 
L 488.9522 313.542959 
L 490.621376 311.580537 
L 492.290552 309.274077 
L 493.959728 306.629902 
L 495.628904 303.655259 
L 497.29808 300.3583 
L 498.967256 296.748064 
L 500.636432 292.834444 
L 503.974785 284.140767 
L 507.313137 274.372518 
L 510.651489 263.636721 
L 513.989841 252.050999 
L 517.328193 239.742287 
L 522.335721 220.220418 
L 529.012426 192.969193 
L 539.027482 151.903577 
L 544.03501 132.381708 
L 547.373363 120.072996 
L 550.711715 108.487274 
L 554.050067 97.751477 
L 557.388419 87.983228 
L 560.726771 79.289551 
L 562.395947 75.375931 
L 564.065123 71.765695 
L 565.734299 68.468736 
L 567.403476 65.494093 
L 569.072652 62.849918 
L 570.741828 60.543458 
L 572.411004 58.581037 
L 574.08018 56.968031 
L 575.749356 55.708863 
L 577.418532 54.806985 
L 579.087708 54.264867 
L 580.756884 54.083995 
L 582.42606 54.264867 
L 584.095236 54.806985 
L 585.764412 55.708863 
L 587.433588 56.968031 
L 589.102765 58.581037 
L 590.771941 60.543458 
L 592.441117 62.849918 
L 594.110293 65.494093 
L 595.779469 68.468736 
L 597.448645 71.765695 
L 599.117821 75.375931 
L 600.786997 79.289551 
L 604.125349 87.983228 
L 607.463701 97.751477 
L 610.802054 108.487274 
L 614.140406 120.072996 
L 617.478758 132.381708 
L 622.486286 151.903577 
L 629.16299 179.154803 
L 639.178047 220.220418 
L 644.185575 239.742287 
L 647.523927 252.050999 
L 650.862279 263.636721 
L 654.200632 274.372518 
L 657.538984 284.140767 
L 660.877336 292.834444 
L 662.546512 296.748064 
L 664.215688 300.3583 
L 665.884864 303.655259 
L 667.55404 306.629902 
L 669.223216 309.274077 
L 670.892392 311.580537 
L 672.561568 313.542959 
L 674.230744 315.155964 
L 675.899921 316.415132 
L 677.569097 317.317011 
L 679.238273 317.859129 
L 679.238273 317.859129 
" clip-path="url(#pd15df95a0f)" style="fill: none; stroke: #0000ff; stroke-width: 1.5; stroke-linecap: square"/>
   </g>
   <g id="patch_3">
    <path d="M 50.042 318.04 
L 50.042 10.8 
" style="fill: none; stroke: #000000; stroke-width: 0.8; stroke-linejoin: miter; stroke-linecap: square"/>
   </g>
   <g id="patch_4">
    <path d="M 709.2 318.04 
L 709.2 10.8 
" style="fill: none; stroke: #000000; stroke-width: 0.8; stroke-linejoin: miter; stroke-linecap: square"/>
   </g>
   <g id="patch_5">
    <path d="M 50.042 318.04 
L 709.2 318.04 
" style="fill: none; stroke: #000000; stroke-width: 0.8; stroke-linejoin: miter; stroke-linecap: square"/>
   </g>
   <g id="patch_6">
    <path d="M 50.042 10.8 
L 709.2 10.8 
" style="fill: none; stroke: #000000; stroke-width: 0.8; stroke-linejoin: miter; stroke-linecap: square"/>
   </g>
   <g id="legend_1">
    <g id="patch_7">
     <path d="M 525.6 34.9 
L 702.2 34.9 
Q 704.2 34.9 704.2 32.9 
L 704.2 17.8 
Q 704.2 15.8 702.2 15.8 
L 525.6 15.8 
Q 523.6 15.8 523.6 17.8 
L 523.6 32.9 
Q 523.6 34.9 525.6 34.9 
z
" style="fill: #ffffff; opacity: 0.8; stroke: #cccccc; stroke-linejoin: miter"/>
    </g>
    <g id="line2d_18">
     <path d="M 527.6 25.3 
L 537.6 25.3 
L 547.6 25.3 
" style="fill: none; stroke: #0000ff; stroke-width: 1.5; stroke-linecap: square"/>
    </g>
    <g id="text_18">
     <!-- V($\theta)$, with $V_0$=11.17 kJ mol$^{-1}$ -->
     <g transform="translate(555.6 28.8) scale(0.1 -0.1)">
      <defs>
       <path id="DejaVuSans-56" d="M 1831 0 
L 50 4666 
L 709 4666 
L 2188 738 
L 3669 4666 
L 4325 4666 
L 2547 0 
L 1831 0 
z
" transform="scale(0.015625)"/>
       <path id="DejaVuSans-Oblique-3b8" d="M 2913 2219 
L 925 2219 
Q 791 1284 928 888 
Q 1100 400 1566 400 
Q 2034 400 2391 891 
Q 2703 1322 2913 2219 
z
M 3009 2750 
Q 3094 3638 2984 3950 
Q 2813 4444 2353 4444 
Q 1875 4444 1525 3956 
Q 1250 3563 1034 2750 
L 3009 2750 
z
M 2444 4913 
Q 3194 4913 3494 4250 
Q 3794 3591 3566 2422 
Q 3341 1256 2781 594 
Q 2225 -72 1475 -72 
Q 722 -72 425 594 
Q 128 1256 353 2422 
Q 581 3591 1134 4250 
Q 1691 4913 2444 4913 
z
" transform="scale(0.015625)"/>
       <path id="DejaVuSans-2c" d="M 750 794 
L 1409 794 
L 1409 256 
L 897 -744 
L 494 -744 
L 750 256 
L 750 794 
z
" transform="scale(0.015625)"/>
       <path id="DejaVuSans-77" d="M 269 3500 
L 844 3500 
L 1563 769 
L 2278 3500 
L 2956 3500 
L 3675 769 
L 4391 3500 
L 4966 3500 
L 4050 0 
L 3372 0 
L 2619 2869 
L 1863 0 
L 1184 0 
L 269 3500 
z
" transform="scale(0.015625)"/>
       <path id="DejaVuSans-69" d="M 603 3500 
L 1178 3500 
L 1178 0 
L 603 0 
L 603 3500 
z
M 603 4863 
L 1178 4863 
L 1178 4134 
L 603 4134 
L 603 4863 
z
" transform="scale(0.015625)"/>
       <path id="DejaVuSans-74" d="M 1172 4494 
L 1172 3500 
L 2356 3500 
L 2356 3053 
L 1172 3053 
L 1172 1153 
Q 1172 725 1289 603 
Q 1406 481 1766 481 
L 2356 481 
L 2356 0 
L 1766 0 
Q 1100 0 847 248 
Q 594 497 594 1153 
L 594 3053 
L 172 3053 
L 172 3500 
L 594 3500 
L 594 4494 
L 1172 4494 
z
" transform="scale(0.015625)"/>
       <path id="DejaVuSans-68" d="M 3513 2113 
L 3513 0 
L 2938 0 
L 2938 2094 
Q 2938 2591 2744 2837 
Q 2550 3084 2163 3084 
Q 1697 3084 1428 2787 
Q 1159 2491 1159 1978 
L 1159 0 
L 581 0 
L 581 4863 
L 1159 4863 
L 1159 2956 
Q 1366 3272 1645 3428 
Q 1925 3584 2291 3584 
Q 2894 3584 3203 3211 
Q 3513 2838 3513 2113 
z
" transform="scale(0.015625)"/>
       <path id="DejaVuSans-Oblique-56" d="M 1319 0 
L 500 4666 
L 1119 4666 
L 1797 653 
L 4063 4666 
L 4750 4666 
L 2053 0 
L 1319 0 
z
" transform="scale(0.015625)"/>
       <path id="DejaVuSans-3d" d="M 678 2906 
L 4684 2906 
L 4684 2381 
L 678 2381 
L 678 2906 
z
M 678 1631 
L 4684 1631 
L 4684 1100 
L 678 1100 
L 678 1631 
z
" transform="scale(0.015625)"/>
       <path id="DejaVuSans-2e" d="M 684 794 
L 1344 794 
L 1344 0 
L 684 0 
L 684 794 
z
" transform="scale(0.015625)"/>
       <path id="DejaVuSans-37" d="M 525 4666 
L 3525 4666 
L 3525 4397 
L 1831 0 
L 1172 0 
L 2766 4134 
L 525 4134 
L 525 4666 
z
" transform="scale(0.015625)"/>
      </defs>
      <use xlink:href="#DejaVuSans-56" transform="translate(0 0.684375)"/>
      <use xlink:href="#DejaVuSans-28" transform="translate(68.408203 0.684375)"/>
      <use xlink:href="#DejaVuSans-Oblique-3b8" transform="translate(107.421875 0.684375)"/>
      <use xlink:href="#DejaVuSans-29" transform="translate(168.603516 0.684375)"/>
      <use xlink:href="#DejaVuSans-2c" transform="translate(207.617188 0.684375)"/>
      <use xlink:href="#DejaVuSans-20" transform="translate(239.404297 0.684375)"/>
      <use xlink:href="#DejaVuSans-77" transform="translate(271.191406 0.684375)"/>
      <use xlink:href="#DejaVuSans-69" transform="translate(352.978516 0.684375)"/>
      <use xlink:href="#DejaVuSans-74" transform="translate(380.761719 0.684375)"/>
      <use xlink:href="#DejaVuSans-68" transform="translate(419.970703 0.684375)"/>
      <use xlink:href="#DejaVuSans-20" transform="translate(483.349609 0.684375)"/>
      <use xlink:href="#DejaVuSans-Oblique-56" transform="translate(515.136719 0.684375)"/>
      <use xlink:href="#DejaVuSans-30" transform="translate(583.544922 -15.721875) scale(0.7)"/>
      <use xlink:href="#DejaVuSans-3d" transform="translate(630.81543 0.684375)"/>
      <use xlink:href="#DejaVuSans-31" transform="translate(714.604492 0.684375)"/>
      <use xlink:href="#DejaVuSans-31" transform="translate(778.227539 0.684375)"/>
      <use xlink:href="#DejaVuSans-2e" transform="translate(841.850586 0.684375)"/>
      <use xlink:href="#DejaVuSans-31" transform="translate(873.637695 0.684375)"/>
      <use xlink:href="#DejaVuSans-37" transform="translate(937.260742 0.684375)"/>
      <use xlink:href="#DejaVuSans-20" transform="translate(1000.883789 0.684375)"/>
      <use xlink:href="#DejaVuSans-6b" transform="translate(1032.670898 0.684375)"/>
      <use xlink:href="#DejaVuSans-4a" transform="translate(1090.581055 0.684375)"/>
      <use xlink:href="#DejaVuSans-20" transform="translate(1120.073242 0.684375)"/>
      <use xlink:href="#DejaVuSans-6d" transform="translate(1151.860352 0.684375)"/>
      <use xlink:href="#DejaVuSans-6f" transform="translate(1249.272461 0.684375)"/>
      <use xlink:href="#DejaVuSans-6c" transform="translate(1310.454102 0.684375)"/>
      <use xlink:href="#DejaVuSans-2212" transform="translate(1339.194336 38.965625) scale(0.7)"/>
      <use xlink:href="#DejaVuSans-31" transform="translate(1397.84668 38.965625) scale(0.7)"/>
     </g>
    </g>
   </g>
  </g>
 </g>
 <defs>
  <clipPath id="pd15df95a0f">
   <rect x="50.042" y="10.8" width="659.158" height="307.24"/>
  </clipPath>
 </defs>
</svg>
