<?xml version="1.0" encoding="utf-8" standalone="no"?>
<!DOCTYPE svg PUBLIC "-//W3C//DTD SVG 1.1//EN"
  "http://www.w3.org/Graphics/SVG/1.1/DTD/svg11.dtd">
<svg xmlns:xlink="http://www.w3.org/1999/xlink" width="576pt" height="432pt" viewBox="0 0 576 432" xmlns="http://www.w3.org/2000/svg" version="1.1">
 <metadata>
  <rdf:RDF xmlns:dc="http://purl.org/dc/elements/1.1/" xmlns:cc="http://creativecommons.org/ns#" xmlns:rdf="http://www.w3.org/1999/02/22-rdf-syntax-ns#">
   <cc:Work>
    <dc:type rdf:resource="http://purl.org/dc/dcmitype/StillImage"/>
    <dc:date>2024-09-08T17:46:41.309108</dc:date>
    <dc:format>image/svg+xml</dc:format>
    <dc:creator>
     <cc:Agent>
      <dc:title>Matplotlib v3.9.2, https://matplotlib.org/</dc:title>
     </cc:Agent>
    </dc:creator>
   </cc:Work>
  </rdf:RDF>
 </metadata>
 <defs>
  <style type="text/css">*{stroke-linejoin: round; stroke-linecap: butt}</style>
 </defs>
 <g id="figure_1">
  <g id="patch_1">
   <path d="M 0 432 
L 576 432 
L 576 0 
L 0 0 
z
" style="fill: #ffffff"/>
  </g>
  <g id="axes_1">
   <g id="patch_2">
    <path d="M 72 384.48 
L 518.4 384.48 
L 518.4 51.84 
L 72 51.84 
z
" style="fill: #ffffff"/>
   </g>
   <g id="matplotlib.axis_1">
    <g id="xtick_1">
     <g id="line2d_1">
      <defs>
       <path id="m2f68c3af1f" d="M 0 0 
L 0 3.5 
" style="stroke: #000000; stroke-width: 0.8"/>
      </defs>
      <g>
       <use xlink:href="#m2f68c3af1f" x="90.241322" y="384.48" style="stroke: #000000; stroke-width: 0.8"/>
      </g>
     </g>
     <g id="text_1">
      <!-- 0 -->
      <g transform="translate(87.060072 399.078438) scale(0.1 -0.1)">
       <defs>
        <path id="DejaVuSans-30" d="M 2034 4250 
Q 1547 4250 1301 3770 
Q 1056 3291 1056 2328 
Q 1056 1369 1301 889 
Q 1547 409 2034 409 
Q 2525 409 2770 889 
Q 3016 1369 3016 2328 
Q 3016 3291 2770 3770 
Q 2525 4250 2034 4250 
z
M 2034 4750 
Q 2819 4750 3233 4129 
Q 3647 3509 3647 2328 
Q 3647 1150 3233 529 
Q 2819 -91 2034 -91 
Q 1250 -91 836 529 
Q 422 1150 422 2328 
Q 422 3509 836 4129 
Q 1250 4750 2034 4750 
z
" transform="scale(0.015625)"/>
       </defs>
       <use xlink:href="#DejaVuSans-30"/>
      </g>
     </g>
    </g>
    <g id="xtick_2">
     <g id="line2d_2">
      <g>
       <use xlink:href="#m2f68c3af1f" x="141.480992" y="384.48" style="stroke: #000000; stroke-width: 0.8"/>
      </g>
     </g>
     <g id="text_2">
      <!-- 25 -->
      <g transform="translate(135.118492 399.078438) scale(0.1 -0.1)">
       <defs>
        <path id="DejaVuSans-32" d="M 1228 531 
L 3431 531 
L 3431 0 
L 469 0 
L 469 531 
Q 828 903 1448 1529 
Q 2069 2156 2228 2338 
Q 2531 2678 2651 2914 
Q 2772 3150 2772 3378 
Q 2772 3750 2511 3984 
Q 2250 4219 1831 4219 
Q 1534 4219 1204 4116 
Q 875 4013 500 3803 
L 500 4441 
Q 881 4594 1212 4672 
Q 1544 4750 1819 4750 
Q 2544 4750 2975 4387 
Q 3406 4025 3406 3419 
Q 3406 3131 3298 2873 
Q 3191 2616 2906 2266 
Q 2828 2175 2409 1742 
Q 1991 1309 1228 531 
z
" transform="scale(0.015625)"/>
        <path id="DejaVuSans-35" d="M 691 4666 
L 3169 4666 
L 3169 4134 
L 1269 4134 
L 1269 2991 
Q 1406 3038 1543 3061 
Q 1681 3084 1819 3084 
Q 2600 3084 3056 2656 
Q 3513 2228 3513 1497 
Q 3513 744 3044 326 
Q 2575 -91 1722 -91 
Q 1428 -91 1123 -41 
Q 819 9 494 109 
L 494 744 
Q 775 591 1075 516 
Q 1375 441 1709 441 
Q 2250 441 2565 725 
Q 2881 1009 2881 1497 
Q 2881 1984 2565 2268 
Q 2250 2553 1709 2553 
Q 1456 2553 1204 2497 
Q 953 2441 691 2322 
L 691 4666 
z
" transform="scale(0.015625)"/>
       </defs>
       <use xlink:href="#DejaVuSans-32"/>
       <use xlink:href="#DejaVuSans-35" x="63.623047"/>
      </g>
     </g>
    </g>
    <g id="xtick_3">
     <g id="line2d_3">
      <g>
       <use xlink:href="#m2f68c3af1f" x="192.720661" y="384.48" style="stroke: #000000; stroke-width: 0.8"/>
      </g>
     </g>
     <g id="text_3">
      <!-- 50 -->
      <g transform="translate(186.358161 399.078438) scale(0.1 -0.1)">
       <use xlink:href="#DejaVuSans-35"/>
       <use xlink:href="#DejaVuSans-30" x="63.623047"/>
      </g>
     </g>
    </g>
    <g id="xtick_4">
     <g id="line2d_4">
      <g>
       <use xlink:href="#m2f68c3af1f" x="243.960331" y="384.48" style="stroke: #000000; stroke-width: 0.8"/>
      </g>
     </g>
     <g id="text_4">
      <!-- 75 -->
      <g transform="translate(237.597831 399.078438) scale(0.1 -0.1)">
       <defs>
        <path id="DejaVuSans-37" d="M 525 4666 
L 3525 4666 
L 3525 4397 
L 1831 0 
L 1172 0 
L 2766 4134 
L 525 4134 
L 525 4666 
z
" transform="scale(0.015625)"/>
       </defs>
       <use xlink:href="#DejaVuSans-37"/>
       <use xlink:href="#DejaVuSans-35" x="63.623047"/>
      </g>
     </g>
    </g>
    <g id="xtick_5">
     <g id="line2d_5">
      <g>
       <use xlink:href="#m2f68c3af1f" x="295.2" y="384.48" style="stroke: #000000; stroke-width: 0.8"/>
      </g>
     </g>
     <g id="text_5">
      <!-- 100 -->
      <g transform="translate(285.65625 399.078438) scale(0.1 -0.1)">
       <defs>
        <path id="DejaVuSans-31" d="M 794 531 
L 1825 531 
L 1825 4091 
L 703 3866 
L 703 4441 
L 1819 4666 
L 2450 4666 
L 2450 531 
L 3481 531 
L 3481 0 
L 794 0 
L 794 531 
z
" transform="scale(0.015625)"/>
       </defs>
       <use xlink:href="#DejaVuSans-31"/>
       <use xlink:href="#DejaVuSans-30" x="63.623047"/>
       <use xlink:href="#DejaVuSans-30" x="127.246094"/>
      </g>
     </g>
    </g>
    <g id="xtick_6">
     <g id="line2d_6">
      <g>
       <use xlink:href="#m2f68c3af1f" x="346.439669" y="384.48" style="stroke: #000000; stroke-width: 0.8"/>
      </g>
     </g>
     <g id="text_6">
      <!-- 125 -->
      <g transform="translate(336.895919 399.078438) scale(0.1 -0.1)">
       <use xlink:href="#DejaVuSans-31"/>
       <use xlink:href="#DejaVuSans-32" x="63.623047"/>
       <use xlink:href="#DejaVuSans-35" x="127.246094"/>
      </g>
     </g>
    </g>
    <g id="xtick_7">
     <g id="line2d_7">
      <g>
       <use xlink:href="#m2f68c3af1f" x="397.679339" y="384.48" style="stroke: #000000; stroke-width: 0.8"/>
      </g>
     </g>
     <g id="text_7">
      <!-- 150 -->
      <g transform="translate(388.135589 399.078438) scale(0.1 -0.1)">
       <use xlink:href="#DejaVuSans-31"/>
       <use xlink:href="#DejaVuSans-35" x="63.623047"/>
       <use xlink:href="#DejaVuSans-30" x="127.246094"/>
      </g>
     </g>
    </g>
    <g id="xtick_8">
     <g id="line2d_8">
      <g>
       <use xlink:href="#m2f68c3af1f" x="448.919008" y="384.48" style="stroke: #000000; stroke-width: 0.8"/>
      </g>
     </g>
     <g id="text_8">
      <!-- 175 -->
      <g transform="translate(439.375258 399.078438) scale(0.1 -0.1)">
       <use xlink:href="#DejaVuSans-31"/>
       <use xlink:href="#DejaVuSans-37" x="63.623047"/>
       <use xlink:href="#DejaVuSans-35" x="127.246094"/>
      </g>
     </g>
    </g>
    <g id="xtick_9">
     <g id="line2d_9">
      <g>
       <use xlink:href="#m2f68c3af1f" x="500.158678" y="384.48" style="stroke: #000000; stroke-width: 0.8"/>
      </g>
     </g>
     <g id="text_9">
      <!-- 200 -->
      <g transform="translate(490.614928 399.078438) scale(0.1 -0.1)">
       <use xlink:href="#DejaVuSans-32"/>
       <use xlink:href="#DejaVuSans-30" x="63.623047"/>
       <use xlink:href="#DejaVuSans-30" x="127.246094"/>
      </g>
     </g>
    </g>
    <g id="text_10">
     <!-- $\nu_{vib}$ (cm$^{-1}$) -->
     <g transform="translate(268.55 413.878438) scale(0.1 -0.1)">
      <defs>
       <path id="DejaVuSans-Oblique-3bd" d="M 959 0 
L 572 3500 
L 1191 3500 
L 1522 563 
Q 1972 950 2391 1488 
Q 2706 1891 2788 2241 
Q 2825 2406 2809 2719 
Q 2794 3091 2544 3500 
L 3125 3500 
L 3125 3500 
Q 3288 3222 3353 2834 
Q 3416 2478 3369 2234 
Q 3250 1622 2719 1075 
Q 2025 363 1572 0 
L 959 0 
z
" transform="scale(0.015625)"/>
       <path id="DejaVuSans-Oblique-76" d="M 459 3500 
L 1069 3500 
L 1581 525 
L 3256 3500 
L 3866 3500 
L 1875 0 
L 1100 0 
L 459 3500 
z
" transform="scale(0.015625)"/>
       <path id="DejaVuSans-Oblique-69" d="M 1172 4863 
L 1747 4863 
L 1606 4134 
L 1031 4134 
L 1172 4863 
z
M 909 3500 
L 1484 3500 
L 800 0 
L 225 0 
L 909 3500 
z
" transform="scale(0.015625)"/>
       <path id="DejaVuSans-Oblique-62" d="M 3169 2138 
Q 3169 2591 2961 2847 
Q 2753 3103 2388 3103 
Q 2122 3103 1889 2973 
Q 1656 2844 1484 2597 
Q 1303 2338 1198 1995 
Q 1094 1653 1094 1313 
Q 1094 881 1298 636 
Q 1503 391 1863 391 
Q 2134 391 2365 517 
Q 2597 644 2772 891 
Q 2950 1147 3059 1487 
Q 3169 1828 3169 2138 
z
M 1381 2969 
Q 1594 3256 1914 3420 
Q 2234 3584 2584 3584 
Q 3122 3584 3439 3221 
Q 3756 2859 3756 2241 
Q 3756 1734 3570 1259 
Q 3384 784 3041 416 
Q 2816 172 2522 40 
Q 2228 -91 1906 -91 
Q 1566 -91 1316 65 
Q 1066 222 909 531 
L 806 0 
L 231 0 
L 1178 4863 
L 1753 4863 
L 1381 2969 
z
" transform="scale(0.015625)"/>
       <path id="DejaVuSans-20" transform="scale(0.015625)"/>
       <path id="DejaVuSans-28" d="M 1984 4856 
Q 1566 4138 1362 3434 
Q 1159 2731 1159 2009 
Q 1159 1288 1364 580 
Q 1569 -128 1984 -844 
L 1484 -844 
Q 1016 -109 783 600 
Q 550 1309 550 2009 
Q 550 2706 781 3412 
Q 1013 4119 1484 4856 
L 1984 4856 
z
" transform="scale(0.015625)"/>
       <path id="DejaVuSans-63" d="M 3122 3366 
L 3122 2828 
Q 2878 2963 2633 3030 
Q 2388 3097 2138 3097 
Q 1578 3097 1268 2742 
Q 959 2388 959 1747 
Q 959 1106 1268 751 
Q 1578 397 2138 397 
Q 2388 397 2633 464 
Q 2878 531 3122 666 
L 3122 134 
Q 2881 22 2623 -34 
Q 2366 -91 2075 -91 
Q 1284 -91 818 406 
Q 353 903 353 1747 
Q 353 2603 823 3093 
Q 1294 3584 2113 3584 
Q 2378 3584 2631 3529 
Q 2884 3475 3122 3366 
z
" transform="scale(0.015625)"/>
       <path id="DejaVuSans-6d" d="M 3328 2828 
Q 3544 3216 3844 3400 
Q 4144 3584 4550 3584 
Q 5097 3584 5394 3201 
Q 5691 2819 5691 2113 
L 5691 0 
L 5113 0 
L 5113 2094 
Q 5113 2597 4934 2840 
Q 4756 3084 4391 3084 
Q 3944 3084 3684 2787 
Q 3425 2491 3425 1978 
L 3425 0 
L 2847 0 
L 2847 2094 
Q 2847 2600 2669 2842 
Q 2491 3084 2119 3084 
Q 1678 3084 1418 2786 
Q 1159 2488 1159 1978 
L 1159 0 
L 581 0 
L 581 3500 
L 1159 3500 
L 1159 2956 
Q 1356 3278 1631 3431 
Q 1906 3584 2284 3584 
Q 2666 3584 2933 3390 
Q 3200 3197 3328 2828 
z
" transform="scale(0.015625)"/>
       <path id="DejaVuSans-2212" d="M 678 2272 
L 4684 2272 
L 4684 1741 
L 678 1741 
L 678 2272 
z
" transform="scale(0.015625)"/>
       <path id="DejaVuSans-29" d="M 513 4856 
L 1013 4856 
Q 1481 4119 1714 3412 
Q 1947 2706 1947 2009 
Q 1947 1309 1714 600 
Q 1481 -109 1013 -844 
L 513 -844 
Q 928 -128 1133 580 
Q 1338 1288 1338 2009 
Q 1338 2731 1133 3434 
Q 928 4138 513 4856 
z
" transform="scale(0.015625)"/>
      </defs>
      <use xlink:href="#DejaVuSans-Oblique-3bd" transform="translate(0 0.684375)"/>
      <use xlink:href="#DejaVuSans-Oblique-76" transform="translate(55.859375 -15.721875) scale(0.7)"/>
      <use xlink:href="#DejaVuSans-Oblique-69" transform="translate(97.285156 -15.721875) scale(0.7)"/>
      <use xlink:href="#DejaVuSans-Oblique-62" transform="translate(116.733398 -15.721875) scale(0.7)"/>
      <use xlink:href="#DejaVuSans-20" transform="translate(163.901367 0.684375)"/>
      <use xlink:href="#DejaVuSans-28" transform="translate(195.688477 0.684375)"/>
      <use xlink:href="#DejaVuSans-63" transform="translate(234.702148 0.684375)"/>
      <use xlink:href="#DejaVuSans-6d" transform="translate(289.682617 0.684375)"/>
      <use xlink:href="#DejaVuSans-2212" transform="translate(388.051758 38.965625) scale(0.7)"/>
      <use xlink:href="#DejaVuSans-31" transform="translate(446.704102 38.965625) scale(0.7)"/>
      <use xlink:href="#DejaVuSans-29" transform="translate(493.974609 0.684375)"/>
     </g>
    </g>
   </g>
   <g id="matplotlib.axis_2">
    <g id="ytick_1">
     <g id="line2d_10">
      <defs>
       <path id="m6cc8e30cd7" d="M 0 0 
L -3.5 0 
" style="stroke: #000000; stroke-width: 0.8"/>
      </defs>
      <g>
       <use xlink:href="#m6cc8e30cd7" x="72" y="384.48" style="stroke: #000000; stroke-width: 0.8"/>
      </g>
     </g>
     <g id="text_11">
      <!-- 0 -->
      <g transform="translate(58.6375 388.279219) scale(0.1 -0.1)">
       <use xlink:href="#DejaVuSans-30"/>
      </g>
     </g>
    </g>
    <g id="ytick_2">
     <g id="line2d_11">
      <g>
       <use xlink:href="#m6cc8e30cd7" x="72" y="317.952" style="stroke: #000000; stroke-width: 0.8"/>
      </g>
     </g>
     <g id="text_12">
      <!-- 2 -->
      <g transform="translate(58.6375 321.751219) scale(0.1 -0.1)">
       <use xlink:href="#DejaVuSans-32"/>
      </g>
     </g>
    </g>
    <g id="ytick_3">
     <g id="line2d_12">
      <g>
       <use xlink:href="#m6cc8e30cd7" x="72" y="251.424" style="stroke: #000000; stroke-width: 0.8"/>
      </g>
     </g>
     <g id="text_13">
      <!-- 4 -->
      <g transform="translate(58.6375 255.223219) scale(0.1 -0.1)">
       <defs>
        <path id="DejaVuSans-34" d="M 2419 4116 
L 825 1625 
L 2419 1625 
L 2419 4116 
z
M 2253 4666 
L 3047 4666 
L 3047 1625 
L 3713 1625 
L 3713 1100 
L 3047 1100 
L 3047 0 
L 2419 0 
L 2419 1100 
L 313 1100 
L 313 1709 
L 2253 4666 
z
" transform="scale(0.015625)"/>
       </defs>
       <use xlink:href="#DejaVuSans-34"/>
      </g>
     </g>
    </g>
    <g id="ytick_4">
     <g id="line2d_13">
      <g>
       <use xlink:href="#m6cc8e30cd7" x="72" y="184.896" style="stroke: #000000; stroke-width: 0.8"/>
      </g>
     </g>
     <g id="text_14">
      <!-- 6 -->
      <g transform="translate(58.6375 188.695219) scale(0.1 -0.1)">
       <defs>
        <path id="DejaVuSans-36" d="M 2113 2584 
Q 1688 2584 1439 2293 
Q 1191 2003 1191 1497 
Q 1191 994 1439 701 
Q 1688 409 2113 409 
Q 2538 409 2786 701 
Q 3034 994 3034 1497 
Q 3034 2003 2786 2293 
Q 2538 2584 2113 2584 
z
M 3366 4563 
L 3366 3988 
Q 3128 4100 2886 4159 
Q 2644 4219 2406 4219 
Q 1781 4219 1451 3797 
Q 1122 3375 1075 2522 
Q 1259 2794 1537 2939 
Q 1816 3084 2150 3084 
Q 2853 3084 3261 2657 
Q 3669 2231 3669 1497 
Q 3669 778 3244 343 
Q 2819 -91 2113 -91 
Q 1303 -91 875 529 
Q 447 1150 447 2328 
Q 447 3434 972 4092 
Q 1497 4750 2381 4750 
Q 2619 4750 2861 4703 
Q 3103 4656 3366 4563 
z
" transform="scale(0.015625)"/>
       </defs>
       <use xlink:href="#DejaVuSans-36"/>
      </g>
     </g>
    </g>
    <g id="ytick_5">
     <g id="line2d_14">
      <g>
       <use xlink:href="#m6cc8e30cd7" x="72" y="118.368" style="stroke: #000000; stroke-width: 0.8"/>
      </g>
     </g>
     <g id="text_15">
      <!-- 8 -->
      <g transform="translate(58.6375 122.167219) scale(0.1 -0.1)">
       <defs>
        <path id="DejaVuSans-38" d="M 2034 2216 
Q 1584 2216 1326 1975 
Q 1069 1734 1069 1313 
Q 1069 891 1326 650 
Q 1584 409 2034 409 
Q 2484 409 2743 651 
Q 3003 894 3003 1313 
Q 3003 1734 2745 1975 
Q 2488 2216 2034 2216 
z
M 1403 2484 
Q 997 2584 770 2862 
Q 544 3141 544 3541 
Q 544 4100 942 4425 
Q 1341 4750 2034 4750 
Q 2731 4750 3128 4425 
Q 3525 4100 3525 3541 
Q 3525 3141 3298 2862 
Q 3072 2584 2669 2484 
Q 3125 2378 3379 2068 
Q 3634 1759 3634 1313 
Q 3634 634 3220 271 
Q 2806 -91 2034 -91 
Q 1263 -91 848 271 
Q 434 634 434 1313 
Q 434 1759 690 2068 
Q 947 2378 1403 2484 
z
M 1172 3481 
Q 1172 3119 1398 2916 
Q 1625 2713 2034 2713 
Q 2441 2713 2670 2916 
Q 2900 3119 2900 3481 
Q 2900 3844 2670 4047 
Q 2441 4250 2034 4250 
Q 1625 4250 1398 4047 
Q 1172 3844 1172 3481 
z
" transform="scale(0.015625)"/>
       </defs>
       <use xlink:href="#DejaVuSans-38"/>
      </g>
     </g>
    </g>
    <g id="ytick_6">
     <g id="line2d_15">
      <g>
       <use xlink:href="#m6cc8e30cd7" x="72" y="51.84" style="stroke: #000000; stroke-width: 0.8"/>
      </g>
     </g>
     <g id="text_16">
      <!-- 10 -->
      <g transform="translate(52.275 55.639219) scale(0.1 -0.1)">
       <use xlink:href="#DejaVuSans-31"/>
       <use xlink:href="#DejaVuSans-30" x="63.623047"/>
      </g>
     </g>
    </g>
    <g id="text_17">
     <!-- $V_0'/ k_BT$  -->
     <g transform="translate(45.375 235.71) rotate(-90) scale(0.1 -0.1)">
      <defs>
       <path id="DejaVuSans-Oblique-56" d="M 1319 0 
L 500 4666 
L 1119 4666 
L 1797 653 
L 4063 4666 
L 4750 4666 
L 2053 0 
L 1319 0 
z
" transform="scale(0.015625)"/>
       <path id="Cmsy10-30" d="M 225 347 
Q 184 359 184 409 
L 966 3316 
Q 1003 3434 1093 3506 
Q 1184 3578 1300 3578 
Q 1450 3578 1564 3479 
Q 1678 3381 1678 3231 
Q 1678 3166 1644 3084 
L 488 319 
Q 466 275 428 275 
Q 394 275 320 306 
Q 247 338 225 347 
z
" transform="scale(0.015625)"/>
       <path id="DejaVuSans-2f" d="M 1625 4666 
L 2156 4666 
L 531 -594 
L 0 -594 
L 1625 4666 
z
" transform="scale(0.015625)"/>
       <path id="DejaVuSans-Oblique-6b" d="M 1172 4863 
L 1747 4863 
L 1197 2028 
L 3169 3500 
L 3916 3500 
L 1716 1825 
L 3322 0 
L 2625 0 
L 1131 1709 
L 800 0 
L 225 0 
L 1172 4863 
z
" transform="scale(0.015625)"/>
       <path id="DejaVuSans-Oblique-42" d="M 1081 4666 
L 2694 4666 
Q 3350 4666 3675 4422 
Q 4000 4178 4000 3688 
Q 4000 3238 3720 2911 
Q 3441 2584 2988 2516 
Q 3375 2428 3569 2181 
Q 3763 1934 3763 1522 
Q 3763 819 3242 409 
Q 2722 0 1819 0 
L 172 0 
L 1081 4666 
z
M 1234 2228 
L 903 519 
L 1919 519 
Q 2491 519 2800 781 
Q 3109 1044 3109 1522 
Q 3109 1891 2904 2059 
Q 2700 2228 2247 2228 
L 1234 2228 
z
M 1606 4147 
L 1331 2741 
L 2272 2741 
Q 2775 2741 3058 2959 
Q 3341 3178 3341 3566 
Q 3341 3869 3150 4008 
Q 2959 4147 2541 4147 
L 1606 4147 
z
" transform="scale(0.015625)"/>
       <path id="DejaVuSans-Oblique-54" d="M 378 4666 
L 4325 4666 
L 4225 4134 
L 2559 4134 
L 1759 0 
L 1125 0 
L 1925 4134 
L 275 4134 
L 378 4666 
z
" transform="scale(0.015625)"/>
      </defs>
      <use xlink:href="#DejaVuSans-Oblique-56" transform="translate(0 0.584375)"/>
      <use xlink:href="#Cmsy10-30" transform="translate(75.424974 38.865625) scale(0.7)"/>
      <use xlink:href="#DejaVuSans-30" transform="translate(68.408203 -26.759375) scale(0.7)"/>
      <use xlink:href="#DejaVuSans-2f" transform="translate(115.678711 0.584375)"/>
      <use xlink:href="#DejaVuSans-Oblique-6b" transform="translate(149.370117 0.584375)"/>
      <use xlink:href="#DejaVuSans-Oblique-42" transform="translate(207.280273 -15.821875) scale(0.7)"/>
      <use xlink:href="#DejaVuSans-Oblique-54" transform="translate(258.037109 0.584375)"/>
      <use xlink:href="#DejaVuSans-20" transform="translate(319.121094 0.584375)"/>
     </g>
    </g>
   </g>
   <g id="line2d_16">
    <path d="M 92.290909 384.474671 
L 96.390083 384.432043 
L 100.489256 384.346785 
L 104.58843 384.218899 
L 108.687603 384.048384 
L 112.786777 383.83524 
L 116.88595 383.579467 
L 120.985124 383.281066 
L 125.084298 382.940036 
L 129.183471 382.556377 
L 133.282645 382.130089 
L 137.381818 381.661173 
L 141.480992 381.149628 
L 145.580165 380.595454 
L 149.679339 379.998651 
L 153.778512 379.359219 
L 157.877686 378.677159 
L 161.97686 377.95247 
L 166.076033 377.185152 
L 170.175207 376.375205 
L 174.27438 375.52263 
L 178.373554 374.627426 
L 182.472727 373.689593 
L 186.571901 372.709131 
L 190.671074 371.686041 
L 194.770248 370.620322 
L 198.869421 369.511974 
L 202.968595 368.360997 
L 207.067769 367.167392 
L 211.166942 365.931157 
L 215.266116 364.652294 
L 219.365289 363.330803 
L 223.464463 361.966682 
L 227.563636 360.559933 
L 231.66281 359.110554 
L 235.761983 357.618548 
L 239.861157 356.083912 
L 243.960331 354.506648 
L 248.059504 352.886754 
L 252.158678 351.224232 
L 256.257851 349.519082 
L 260.357025 347.771302 
L 264.456198 345.980894 
L 268.555372 344.147857 
L 272.654545 342.272191 
L 276.753719 340.353897 
L 280.852893 338.392973 
L 284.952066 336.389421 
L 289.05124 334.34324 
L 293.150413 332.254431 
L 297.249587 330.122992 
L 301.34876 327.948925 
L 305.447934 325.732229 
L 309.547107 323.472904 
L 313.646281 321.170951 
L 317.745455 318.826369 
L 321.844628 316.439158 
L 325.943802 314.009318 
L 330.042975 311.536849 
L 334.142149 309.021752 
L 338.241322 306.464026 
L 342.340496 303.863671 
L 346.439669 301.220688 
L 350.538843 298.535075 
L 354.638017 295.806834 
L 358.73719 293.035964 
L 362.836364 290.222465 
L 366.935537 287.366338 
L 371.034711 284.467582 
L 375.133884 281.526197 
L 379.233058 278.542183 
L 383.332231 275.515541 
L 387.431405 272.446269 
L 391.530579 269.334369 
L 395.629752 266.17984 
L 399.728926 262.982683 
L 403.828099 259.742896 
L 407.927273 256.460481 
L 412.026446 253.135437 
L 416.12562 249.767765 
L 420.224793 246.357463 
L 424.323967 242.904533 
L 428.42314 239.408974 
L 432.522314 235.870786 
L 436.621488 232.28997 
L 440.720661 228.666525 
L 444.819835 225.000451 
L 448.919008 221.291748 
L 453.018182 217.540416 
L 457.117355 213.746456 
L 461.216529 209.909867 
L 465.315702 206.030649 
L 469.414876 202.108802 
L 473.51405 198.144327 
L 477.613223 194.137223 
L 481.712397 190.08749 
L 485.81157 185.995128 
L 489.910744 181.860137 
L 494.009917 177.682518 
L 498.109091 173.46227 
" clip-path="url(#pb68d60731f)" style="fill: none; stroke: #ff0000; stroke-width: 1.5; stroke-linecap: square"/>
   </g>
   <g id="line2d_17">
    <path d="M 92.290909 384.469343 
L 96.390083 384.384085 
L 100.489256 384.21357 
L 104.58843 383.957798 
L 108.687603 383.616767 
L 112.786777 383.19048 
L 116.88595 382.678935 
L 120.985124 382.082132 
L 125.084298 381.400072 
L 129.183471 380.632754 
L 133.282645 379.780178 
L 137.381818 378.842345 
L 141.480992 377.819255 
L 145.580165 376.710907 
L 149.679339 375.517302 
L 153.778512 374.238439 
L 157.877686 372.874318 
L 161.97686 371.42494 
L 166.076033 369.890304 
L 170.175207 368.270411 
L 174.27438 366.56526 
L 178.373554 364.774852 
L 182.472727 362.899186 
L 186.571901 360.938263 
L 190.671074 358.892082 
L 194.770248 356.760644 
L 198.869421 354.543948 
L 202.968595 352.241994 
L 207.067769 349.854783 
L 211.166942 347.382315 
L 215.266116 344.824589 
L 219.365289 342.181605 
L 223.464463 339.453364 
L 227.563636 336.639865 
L 231.66281 333.741109 
L 235.761983 330.757095 
L 239.861157 327.687824 
L 243.960331 324.533295 
L 248.059504 321.293509 
L 252.158678 317.968465 
L 256.257851 314.558163 
L 260.357025 311.062604 
L 264.456198 307.481788 
L 268.555372 303.815714 
L 272.654545 300.064382 
L 276.753719 296.227793 
L 280.852893 292.305947 
L 284.952066 288.298842 
L 289.05124 284.206481 
L 293.150413 280.028861 
L 297.249587 275.765985 
L 301.34876 271.41785 
L 305.447934 266.984458 
L 309.547107 262.465809 
L 313.646281 257.861902 
L 317.745455 253.172738 
L 321.844628 248.398316 
L 325.943802 243.538636 
L 330.042975 238.593699 
L 334.142149 233.563504 
L 338.241322 228.448052 
L 342.340496 223.247342 
L 346.439669 217.961375 
L 350.538843 212.59015 
L 354.638017 207.133668 
L 358.73719 201.591928 
L 362.836364 195.964931 
L 366.935537 190.252676 
L 371.034711 184.455164 
L 375.133884 178.572394 
L 379.233058 172.604366 
L 383.332231 166.551081 
L 387.431405 160.412539 
L 391.530579 154.188738 
L 395.629752 147.879681 
L 399.728926 141.485366 
L 403.828099 135.005793 
L 407.927273 128.440963 
L 412.026446 121.790875 
L 416.12562 115.055529 
L 420.224793 108.234927 
L 424.323967 101.329066 
L 428.42314 94.337948 
L 432.522314 87.261573 
L 436.621488 80.09994 
L 440.720661 72.853049 
L 444.819835 65.520901 
L 448.919008 58.103495 
L 453.018182 50.600832 
L 457.117355 43.012912 
L 461.216529 35.339733 
L 465.315702 27.581298 
L 469.414876 19.737604 
L 473.51405 11.808654 
L 477.613223 3.794445 
L 480.039712 -1 
" clip-path="url(#pb68d60731f)" style="fill: none; stroke-dasharray: 5.55,2.4; stroke-dashoffset: 0; stroke: #ff0000; stroke-width: 1.5"/>
   </g>
   <g id="line2d_18">
    <path d="M 92.290909 384.458686 
L 96.390083 384.288171 
L 100.489256 383.94714 
L 104.58843 383.435595 
L 108.687603 382.753535 
L 112.786777 381.90096 
L 116.88595 380.877869 
L 120.985124 379.684264 
L 125.084298 378.320143 
L 129.183471 376.785507 
L 133.282645 375.080357 
L 137.381818 373.204691 
L 141.480992 371.15851 
L 145.580165 368.941814 
L 149.679339 366.554603 
L 153.778512 363.996877 
L 157.877686 361.268636 
L 161.97686 358.36988 
L 166.076033 355.300608 
L 170.175207 352.060822 
L 174.27438 348.650521 
L 178.373554 345.069704 
L 182.472727 341.318372 
L 186.571901 337.396526 
L 190.671074 333.304164 
L 194.770248 329.041287 
L 198.869421 324.607895 
L 202.968595 320.003988 
L 207.067769 315.229566 
L 211.166942 310.284629 
L 215.266116 305.169177 
L 219.365289 299.88321 
L 223.464463 294.426728 
L 227.563636 288.79973 
L 231.66281 283.002218 
L 235.761983 277.03419 
L 239.861157 270.895648 
L 243.960331 264.58659 
L 248.059504 258.107017 
L 252.158678 251.45693 
L 256.257851 244.636327 
L 260.357025 237.645209 
L 264.456198 230.483576 
L 268.555372 223.151428 
L 272.654545 215.648765 
L 276.753719 207.975586 
L 280.852893 200.131893 
L 284.952066 192.117685 
L 289.05124 183.932961 
L 293.150413 175.577723 
L 297.249587 167.051969 
L 301.34876 158.3557 
L 305.447934 149.488917 
L 309.547107 140.451618 
L 313.646281 131.243804 
L 317.745455 121.865475 
L 321.844628 112.316631 
L 325.943802 102.597272 
L 330.042975 92.707398 
L 334.142149 82.647009 
L 338.241322 72.416104 
L 342.340496 62.014685 
L 346.439669 51.442751 
L 350.538843 40.700301 
L 354.638017 29.787336 
L 358.73719 18.703857 
L 362.836364 7.449862 
L 365.868218 -1 
" clip-path="url(#pb68d60731f)" style="fill: none; stroke-dasharray: 1.5,2.475; stroke-dashoffset: 0; stroke: #ff0000; stroke-width: 1.5"/>
   </g>
   <g id="patch_3">
    <path d="M 72 384.48 
L 72 51.84 
" style="fill: none; stroke: #000000; stroke-width: 0.8; stroke-linejoin: miter; stroke-linecap: square"/>
   </g>
   <g id="patch_4">
    <path d="M 518.4 384.48 
L 518.4 51.84 
" style="fill: none; stroke: #000000; stroke-width: 0.8; stroke-linejoin: miter; stroke-linecap: square"/>
   </g>
   <g id="patch_5">
    <path d="M 72 384.48 
L 518.4 384.48 
" style="fill: none; stroke: #000000; stroke-width: 0.8; stroke-linejoin: miter; stroke-linecap: square"/>
   </g>
   <g id="patch_6">
    <path d="M 72 51.84 
L 518.4 51.84 
" style="fill: none; stroke: #000000; stroke-width: 0.8; stroke-linejoin: miter; stroke-linecap: square"/>
   </g>
  </g>
 </g>
 <defs>
  <clipPath id="pb68d60731f">
   <rect x="72" y="51.84" width="446.4" height="332.64"/>
  </clipPath>
 </defs>
</svg>
