<?xml version="1.0" encoding="UTF-8" standalone="no"?>
<svg
   width="335.48203pt"
   height="245.82816pt"
   viewBox="0 0 335.48203 245.82816"
   version="1.1"
   id="svg109"
   sodipodi:docname="twophase_Tx.svg"
   xmlns:inkscape="http://www.inkscape.org/namespaces/inkscape"
   xmlns:sodipodi="http://sodipodi.sourceforge.net/DTD/sodipodi-0.dtd"
   xmlns:xlink="http://www.w3.org/1999/xlink"
   xmlns="http://www.w3.org/2000/svg"
   xmlns:svg="http://www.w3.org/2000/svg"
   xmlns:rdf="http://www.w3.org/1999/02/22-rdf-syntax-ns#"
   xmlns:cc="http://creativecommons.org/ns#"
   xmlns:dc="http://purl.org/dc/elements/1.1/">
  <sodipodi:namedview
     id="namedview109"
     pagecolor="#ffffff"
     bordercolor="#000000"
     borderopacity="0.25"
     inkscape:showpageshadow="2"
     inkscape:pageopacity="0.0"
     inkscape:pagecheckerboard="0"
     inkscape:deskcolor="#d1d1d1"
     inkscape:document-units="pt" />
  <metadata
     id="metadata1">
    <rdf:RDF>
      <cc:Work>
        <dc:type
           rdf:resource="http://purl.org/dc/dcmitype/StillImage" />
        <dc:date>2024-09-17T22:55:47.887510</dc:date>
        <dc:format>image/svg+xml</dc:format>
        <dc:creator>
          <cc:Agent>
            <dc:title>Matplotlib v3.9.2, https://matplotlib.org/</dc:title>
          </cc:Agent>
        </dc:creator>
      </cc:Work>
    </rdf:RDF>
  </metadata>
  <defs
     id="defs1">
    <style
       type="text/css"
       id="style1">*{stroke-linejoin: round; stroke-linecap: butt}</style>
  </defs>
  <g
     id="figure_1"
     transform="translate(-12.101552,-243.67946)">
    <g
       id="patch_1">
      <path
         d="M 0,504 H 360 V 0 H 0 Z"
         style="fill:#ffffff"
         id="path1" />
    </g>
    <g
       id="axes_2">
      <g
         id="patch_7">
        <path
           d="M 36.471864,459.592 H 323.52814 V 244.39791 H 36.471864 Z"
           style="fill:#ffffff"
           id="path34" />
      </g>
      <g
         id="patch_8" />
      <g
         id="matplotlib.axis_3">
        <g
           id="xtick_7">
          <g
             id="line2d_12">
            <g
               id="g36">
              <path
                 id="use36"
                 d="m 36.471863,459.59201 v 3.5"
                 style="stroke:#000000;stroke-width:0.8" />
            </g>
          </g>
          <g
             id="text_4">
            <!-- 0.0 -->
            <g
               transform="matrix(0.1,0,0,-0.1,28.520302,474.19044)"
               id="g39">
              <defs
                 id="defs36">
                <path
                   id="DejaVuSans-30"
                   d="m 2034,4250 q -487,0 -733,-480 -245,-479 -245,-1442 0,-959 245,-1439 246,-480 733,-480 491,0 736,480 246,480 246,1439 0,963 -246,1442 -245,480 -736,480 z m 0,500 q 785,0 1199,-621 414,-620 414,-1801 0,-1178 -414,-1799 -414,-620 -1199,-620 -784,0 -1198,620 -414,621 -414,1799 0,1181 414,1801 414,621 1198,621 z"
                   transform="scale(0.015625)" />
                <path
                   id="DejaVuSans-2e"
                   d="m 684,794 h 660 V 0 H 684 Z"
                   transform="scale(0.015625)" />
              </defs>
              <use
                 xlink:href="#DejaVuSans-30"
                 id="use37" />
              <use
                 xlink:href="#DejaVuSans-2e"
                 x="63.623047"
                 id="use38" />
              <use
                 xlink:href="#DejaVuSans-30"
                 x="95.410156"
                 id="use39" />
            </g>
          </g>
        </g>
        <g
           id="xtick_8">
          <g
             id="line2d_13">
            <g
               id="g40">
              <path
                 id="use40"
                 d="m 93.883118,459.59201 v 3.5"
                 style="stroke:#000000;stroke-width:0.8" />
            </g>
          </g>
          <g
             id="text_5">
            <!-- 0.2 -->
            <g
               transform="matrix(0.1,0,0,-0.1,85.931556,474.19044)"
               id="g43">
              <defs
                 id="defs40">
                <path
                   id="DejaVuSans-32"
                   d="M 1228,531 H 3431 V 0 H 469 v 531 q 359,372 979,998 621,627 780,809 303,340 423,576 121,236 121,464 0,372 -261,606 -261,235 -680,235 -297,0 -627,-103 -329,-103 -704,-313 v 638 q 381,153 712,231 332,78 607,78 725,0 1156,-363 431,-362 431,-968 0,-288 -108,-546 -107,-257 -392,-607 -78,-91 -497,-524 Q 1991,1309 1228,531 Z"
                   transform="scale(0.015625)" />
              </defs>
              <use
                 xlink:href="#DejaVuSans-30"
                 id="use41" />
              <use
                 xlink:href="#DejaVuSans-2e"
                 x="63.623047"
                 id="use42" />
              <use
                 xlink:href="#DejaVuSans-32"
                 x="95.410156"
                 id="use43" />
            </g>
          </g>
        </g>
        <g
           id="xtick_9">
          <g
             id="line2d_14">
            <g
               id="g44">
              <path
                 id="use44"
                 d="m 151.29437,459.59201 v 3.5"
                 style="stroke:#000000;stroke-width:0.8" />
            </g>
          </g>
          <g
             id="text_6">
            <!-- 0.4 -->
            <g
               transform="matrix(0.1,0,0,-0.1,143.34281,474.19044)"
               id="g47">
              <defs
                 id="defs44">
                <path
                   id="DejaVuSans-34"
                   d="M 2419,4116 825,1625 h 1594 z m -166,550 h 794 V 1625 h 666 V 1100 H 3047 V 0 H 2419 V 1100 H 313 v 609 z"
                   transform="scale(0.015625)" />
              </defs>
              <use
                 xlink:href="#DejaVuSans-30"
                 id="use45" />
              <use
                 xlink:href="#DejaVuSans-2e"
                 x="63.623047"
                 id="use46" />
              <use
                 xlink:href="#DejaVuSans-34"
                 x="95.410156"
                 id="use47" />
            </g>
          </g>
        </g>
        <g
           id="xtick_10">
          <g
             id="line2d_15">
            <g
               id="g48">
              <path
                 id="use48"
                 d="m 208.70563,459.59201 v 3.5"
                 style="stroke:#000000;stroke-width:0.8" />
            </g>
          </g>
          <g
             id="text_7">
            <!-- 0.6 -->
            <g
               transform="matrix(0.1,0,0,-0.1,200.75406,474.19044)"
               id="g51">
              <defs
                 id="defs48">
                <path
                   id="DejaVuSans-36"
                   d="m 2113,2584 q -425,0 -674,-291 -248,-290 -248,-796 0,-503 248,-796 249,-292 674,-292 425,0 673,292 248,293 248,796 0,506 -248,796 -248,291 -673,291 z m 1253,1979 v -575 q -238,112 -480,171 -242,60 -480,60 -625,0 -955,-422 -329,-422 -376,-1275 184,272 462,417 279,145 613,145 703,0 1111,-427 408,-426 408,-1160 0,-719 -425,-1154 -425,-434 -1131,-434 -810,0 -1238,620 -428,621 -428,1799 0,1106 525,1764 525,658 1409,658 238,0 480,-47 242,-47 505,-140 z"
                   transform="scale(0.015625)" />
              </defs>
              <use
                 xlink:href="#DejaVuSans-30"
                 id="use49" />
              <use
                 xlink:href="#DejaVuSans-2e"
                 x="63.623047"
                 id="use50" />
              <use
                 xlink:href="#DejaVuSans-36"
                 x="95.410156"
                 id="use51" />
            </g>
          </g>
        </g>
        <g
           id="xtick_11">
          <g
             id="line2d_16">
            <g
               id="g52">
              <path
                 id="use52"
                 d="m 266.11688,459.59201 v 3.5"
                 style="stroke:#000000;stroke-width:0.8" />
            </g>
          </g>
          <g
             id="text_8">
            <!-- 0.8 -->
            <g
               transform="matrix(0.1,0,0,-0.1,258.16532,474.19044)"
               id="g55">
              <defs
                 id="defs52">
                <path
                   id="DejaVuSans-38"
                   d="m 2034,2216 q -450,0 -708,-241 -257,-241 -257,-662 0,-422 257,-663 258,-241 708,-241 450,0 709,242 260,243 260,662 0,421 -258,662 -257,241 -711,241 z m -631,268 q -406,100 -633,378 -226,279 -226,679 0,559 398,884 399,325 1092,325 697,0 1094,-325 397,-325 397,-884 0,-400 -227,-679 -226,-278 -629,-378 456,-106 710,-416 255,-309 255,-755 Q 3634,634 3220,271 2806,-91 2034,-91 1263,-91 848,271 434,634 434,1313 q 0,446 256,755 257,310 713,416 z m -231,997 q 0,-362 226,-565 227,-203 636,-203 407,0 636,203 230,203 230,565 0,363 -230,566 -229,203 -636,203 -409,0 -636,-203 -226,-203 -226,-566 z"
                   transform="scale(0.015625)" />
              </defs>
              <use
                 xlink:href="#DejaVuSans-30"
                 id="use53" />
              <use
                 xlink:href="#DejaVuSans-2e"
                 x="63.623047"
                 id="use54" />
              <use
                 xlink:href="#DejaVuSans-38"
                 x="95.410156"
                 id="use55" />
            </g>
          </g>
        </g>
        <g
           id="xtick_12">
          <g
             id="line2d_17">
            <g
               id="g56">
              <path
                 id="use56"
                 d="m 323.52814,459.59201 v 3.5"
                 style="stroke:#000000;stroke-width:0.8" />
            </g>
          </g>
          <g
             id="text_9">
            <!-- 1.0 -->
            <g
               transform="matrix(0.1,0,0,-0.1,315.57657,474.19044)"
               id="g59">
              <defs
                 id="defs56">
                <path
                   id="DejaVuSans-31"
                   d="M 794,531 H 1825 V 4091 L 703,3866 v 575 l 1116,225 h 631 V 531 H 3481 V 0 H 794 Z"
                   transform="scale(0.015625)" />
              </defs>
              <use
                 xlink:href="#DejaVuSans-31"
                 id="use57" />
              <use
                 xlink:href="#DejaVuSans-2e"
                 x="63.623047"
                 id="use58" />
              <use
                 xlink:href="#DejaVuSans-30"
                 x="95.410156"
                 id="use59" />
            </g>
          </g>
        </g>
        <g
           id="text_10">
          <!-- molar fraction, $x_A$ -->
          <g
             transform="matrix(0.1,0,0,-0.1,136.05,487.86856)"
             id="g77">
            <defs
               id="defs59">
              <path
                 id="DejaVuSans-6d"
                 d="m 3328,2828 q 216,388 516,572 300,184 706,184 547,0 844,-383 297,-382 297,-1088 V 0 h -578 v 2094 q 0,503 -179,746 -178,244 -543,244 -447,0 -707,-297 -259,-296 -259,-809 V 0 h -578 v 2094 q 0,506 -178,748 -178,242 -550,242 -441,0 -701,-298 -259,-298 -259,-808 V 0 H 581 v 3500 h 578 v -544 q 197,322 472,475 275,153 653,153 382,0 649,-194 267,-193 395,-562 z"
                 transform="scale(0.015625)" />
              <path
                 id="DejaVuSans-6f"
                 d="m 1959,3097 q -462,0 -731,-361 -269,-361 -269,-989 0,-628 267,-989 268,-361 733,-361 460,0 728,362 269,363 269,988 0,622 -269,986 -268,364 -728,364 z m 0,487 q 750,0 1178,-488 429,-487 429,-1349 Q 3566,888 3137,398 2709,-91 1959,-91 1206,-91 779,398 353,888 353,1747 q 0,862 426,1349 427,488 1180,488 z"
                 transform="scale(0.015625)" />
              <path
                 id="DejaVuSans-6c"
                 d="m 603,4863 h 575 V 0 H 603 Z"
                 transform="scale(0.015625)" />
              <path
                 id="DejaVuSans-61"
                 d="m 2194,1759 q -697,0 -966,-159 -269,-159 -269,-544 0,-306 202,-486 202,-179 548,-179 479,0 768,339 289,339 289,901 v 128 z m 1147,238 V 0 H 2766 V 531 Q 2569,213 2275,61 1981,-91 1556,-91 q -537,0 -855,302 -317,302 -317,808 0,590 395,890 396,300 1180,300 h 807 v 57 q 0,397 -261,614 -261,217 -733,217 -300,0 -585,-72 -284,-72 -546,-216 v 532 q 315,122 612,182 297,61 578,61 760,0 1135,-394 375,-393 375,-1193 z"
                 transform="scale(0.015625)" />
              <path
                 id="DejaVuSans-66"
                 d="m 2375,4863 v -479 h -550 q -309,0 -430,-125 -120,-125 -120,-450 v -309 h 947 V 3053 H 1275 V 0 H 697 V 3053 H 147 v 447 h 550 v 244 q 0,584 272,851 272,268 862,268 z"
                 transform="scale(0.015625)" />
              <path
                 id="DejaVuSans-63"
                 d="m 3122,3366 v -538 q -244,135 -489,202 -245,67 -495,67 -560,0 -870,-355 -309,-354 -309,-995 0,-641 309,-996 310,-354 870,-354 250,0 495,67 245,67 489,202 V 134 Q 2881,22 2623,-34 2366,-91 2075,-91 1284,-91 818,406 353,903 353,1747 q 0,856 470,1346 471,491 1290,491 265,0 518,-55 253,-54 491,-163 z"
                 transform="scale(0.015625)" />
              <path
                 id="DejaVuSans-74"
                 d="M 1172,4494 V 3500 H 2356 V 3053 H 1172 V 1153 q 0,-428 117,-550 117,-122 477,-122 h 590 V 0 H 1766 Q 1100,0 847,248 594,497 594,1153 V 3053 H 172 v 447 h 422 v 994 z"
                 transform="scale(0.015625)" />
              <path
                 id="DejaVuSans-69"
                 d="m 603,3500 h 575 V 0 H 603 Z m 0,1363 h 575 V 4134 H 603 Z"
                 transform="scale(0.015625)" />
              <path
                 id="DejaVuSans-2c"
                 d="m 750,794 h 659 V 256 L 897,-744 H 494 L 750,256 Z"
                 transform="scale(0.015625)" />
              <path
                 id="DejaVuSans-Oblique-78"
                 d="M 3841,3500 2234,1784 3219,0 H 2559 L 1819,1388 531,0 H -166 L 1556,1844 641,3500 h 659 l 672,-1266 1172,1266 z"
                 transform="scale(0.015625)" />
            </defs>
            <use
               xlink:href="#DejaVuSans-6d"
               transform="translate(0,0.015625)"
               id="use60" />
            <use
               xlink:href="#DejaVuSans-6f"
               transform="translate(97.412109,0.015625)"
               id="use61" />
            <use
               xlink:href="#DejaVuSans-6c"
               transform="translate(158.59375,0.015625)"
               id="use62" />
            <use
               xlink:href="#DejaVuSans-61"
               transform="translate(186.37695,0.015625)"
               id="use63" />
            <path
               id="use64"
               d="m 288.76562,46.3125 q -1.51562,0.875 -3.29687,1.28125 -1.78125,0.421875 -3.92188,0.421875 -7.625,0 -11.70312,-4.953125 -4.07813,-4.953125 -4.07813,-14.234375 v -28.8125 h -9.03125 v 54.6875 h 9.03125 v -8.5 q 2.84375,4.984375 7.375,7.390625 4.54688,2.421875 11.04688,2.421875 0.92187,0 2.04687,-0.125 1.125,-0.109375 2.48438,-0.359375 z"
               style="stroke-width:0.015625" />
            <path
               id="use65"
               d=""
               style="stroke-width:0.015625" />
            <use
               xlink:href="#DejaVuSans-66"
               transform="translate(320.55664,0.015625)"
               id="use66" />
            <path
               id="use67"
               d="m 396.87109,46.3125 q -1.51562,0.875 -3.29687,1.28125 -1.78125,0.421875 -3.92188,0.421875 -7.625,0 -11.70312,-4.953125 -4.07813,-4.953125 -4.07813,-14.234375 v -28.8125 h -9.03125 v 54.6875 h 9.03125 v -8.5 q 2.84375,4.984375 7.375,7.390625 4.54688,2.421875 11.04688,2.421875 0.92187,0 2.04687,-0.125 1.125,-0.109375 2.48438,-0.359375 z"
               style="stroke-width:0.015625" />
            <use
               xlink:href="#DejaVuSans-61"
               transform="translate(396.875,0.015625)"
               id="use68" />
            <use
               xlink:href="#DejaVuSans-63"
               transform="translate(458.1543,0.015625)"
               id="use69" />
            <use
               xlink:href="#DejaVuSans-74"
               transform="translate(513.13477,0.015625)"
               id="use70" />
            <use
               xlink:href="#DejaVuSans-69"
               transform="translate(552.34375,0.015625)"
               id="use71" />
            <use
               xlink:href="#DejaVuSans-6f"
               transform="translate(580.12695,0.015625)"
               id="use72" />
            <path
               id="use73"
               d="M 696.19922,33.03125 V 0.015625 h -8.98438 v 32.71875 q 0,7.765625 -3.03125,11.609375 -3.03125,3.859375 -9.07812,3.859375 -7.28125,0 -11.48438,-4.640625 -4.20312,-4.625 -4.20312,-12.640625 V 0.015625 h -9.03125 v 54.6875 h 9.03125 v -8.5 q 3.23437,4.9375 7.59375,7.375 4.375,2.4375 10.09375,2.4375 9.42187,0 14.25,-5.828125 4.84375,-5.828125 4.84375,-17.15625 z"
               style="stroke-width:0.015625" />
            <use
               xlink:href="#DejaVuSans-2c"
               transform="translate(704.6875,0.015625)"
               id="use74" />
            <path
               id="use75"
               d=""
               style="stroke-width:0.015625" />
            <use
               xlink:href="#DejaVuSans-Oblique-78"
               transform="translate(768.26172,0.015625)"
               id="use76" />
            <path
               id="use77"
               d="m 853.21016,34.64375 h 7.83125 l 9.47187,-51.034375 h -7.21875 l -2.12187,13.0921875 h -22.96875 l -7.20782,-13.0921875 h -7.28437 z M 855.70391,27.840625 841.38672,2.44375 h 18.73594 z"
               style="stroke-width:0.0109375" />
          </g>
        </g>
      </g>
      <g
         id="matplotlib.axis_4">
        <g
           id="ytick_9" />
        <g
           id="ytick_10" />
        <g
           id="ytick_11" />
        <g
           id="ytick_12" />
        <g
           id="ytick_13" />
        <g
           id="ytick_14" />
        <g
           id="ytick_15" />
        <g
           id="ytick_16" />
        <g
           id="ytick_17" />
        <g
           id="text_11">
          <!-- Temperature -->
          <g
             transform="matrix(0,-0.1,-0.1,0,23.392177,383.66449)"
             id="g88">
            <defs
               id="defs77">
              <path
                 id="DejaVuSans-54"
                 d="M -19,4666 H 3928 V 4134 H 2272 V 0 H 1638 V 4134 H -19 Z"
                 transform="scale(0.015625)" />
              <path
                 id="DejaVuSans-70"
                 d="M 1159,525 V -1331 H 581 v 4831 h 578 v -531 q 182,312 458,463 277,152 661,152 638,0 1036,-506 399,-506 399,-1331 0,-825 -399,-1332 -398,-506 -1036,-506 -384,0 -661,152 -276,152 -458,464 z m 1957,1222 q 0,634 -261,995 -261,361 -717,361 -457,0 -718,-361 -261,-361 -261,-995 0,-634 261,-995 261,-361 718,-361 456,0 717,361 261,361 261,995 z"
                 transform="scale(0.015625)" />
              <path
                 id="DejaVuSans-75"
                 d="m 544,1381 v 2119 h 575 V 1403 q 0,-497 193,-746 194,-248 582,-248 465,0 735,297 271,297 271,810 v 1984 h 575 V 0 H 2900 V 538 Q 2691,219 2414,64 2138,-91 1772,-91 1169,-91 856,284 544,659 544,1381 Z m 1447,2203 z"
                 transform="scale(0.015625)" />
            </defs>
            <use
               xlink:href="#DejaVuSans-54"
               id="use78" />
            <path
               id="use79"
               d="M 100.28711,29.59375 V 25.203125 H 58.974609 q 0.59375,-9.28125 5.59375,-14.140625 5,-4.859375 13.9375,-4.859375 5.171875,0 10.03125,1.265625 4.859375,1.265625 9.65625,3.8125 v -8.5 q -4.84375,-2.046875 -9.921875,-3.125 -5.078125,-1.078125 -10.296875,-1.078125 -13.09375,0 -20.734375,7.609375 -7.640625,7.625 -7.640625,20.625 0,13.421875 7.25,21.296875 Q 64.099609,56 76.412109,56 q 11.03125,0 17.453125,-7.109375 6.421876,-7.09375 6.421876,-19.296875 z m -8.984376,2.640625 q -0.09375,7.359375 -4.125,11.75 -4.03125,4.40625 -10.671875,4.40625 -7.515625,0 -12.03125,-4.25 -4.515625,-4.25 -5.203125,-11.96875 z"
               style="stroke-width:0.015625" />
            <use
               xlink:href="#DejaVuSans-6d"
               x="105.60742"
               id="use80" />
            <use
               xlink:href="#DejaVuSans-70"
               x="203.01953"
               id="use81" />
            <path
               id="use82"
               d="m 322.69922,29.59375 v -4.390625 h -41.3125 q 0.59375,-9.28125 5.59375,-14.140625 5,-4.859375 13.9375,-4.859375 5.17187,0 10.03125,1.265625 4.85937,1.265625 9.65625,3.8125 v -8.5 q -4.84375,-2.046875 -9.92188,-3.125 -5.07812,-1.078125 -10.29687,-1.078125 -13.09375,0 -20.73438,7.609375 -7.64062,7.625 -7.64062,20.625 0,13.421875 7.25,21.296875 Q 286.51172,56 298.82422,56 q 11.03125,0 17.45312,-7.109375 6.42188,-7.09375 6.42188,-19.296875 z m -8.98438,2.640625 q -0.0937,7.359375 -4.125,11.75 -4.03125,4.40625 -10.67187,4.40625 -7.51563,0 -12.03125,-4.25 -4.51563,-4.25 -5.20313,-11.96875 z"
               style="stroke-width:0.015625" />
            <path
               id="use83"
               d="m 369.12891,46.296875 q -1.51563,0.875 -3.29688,1.28125 Q 364.05078,48 361.91016,48 354.28516,48 350.20703,43.046875 346.12891,38.09375 346.12891,28.8125 V 0 h -9.03125 v 54.6875 h 9.03125 v -8.5 q 2.84375,4.984375 7.375,7.390625 Q 358.05078,56 364.55078,56 q 0.92188,0 2.04688,-0.125 1.125,-0.109375 2.48437,-0.359375 z"
               style="stroke-width:0.015625" />
            <use
               xlink:href="#DejaVuSans-61"
               x="369.13281"
               id="use84" />
            <use
               xlink:href="#DejaVuSans-74"
               x="430.41211"
               id="use85" />
            <use
               xlink:href="#DejaVuSans-75"
               x="469.62109"
               id="use86" />
            <path
               id="use87"
               d="m 574.10937,46.296875 q -1.51562,0.875 -3.29687,1.28125 Q 569.03125,48 566.89062,48 559.26562,48 555.1875,43.046875 551.10937,38.09375 551.10937,28.8125 V 0 h -9.03125 v 54.6875 h 9.03125 v -8.5 q 2.84375,4.984375 7.375,7.390625 Q 563.03125,56 569.53125,56 q 0.92187,0 2.04687,-0.125 1.125,-0.109375 2.48438,-0.359375 z"
               style="stroke-width:0.015625" />
            <path
               id="use88"
               d="m 628.06641,29.59375 v -4.390625 h -41.3125 q 0.59375,-9.28125 5.59375,-14.140625 5,-4.859375 13.9375,-4.859375 5.17187,0 10.03125,1.265625 4.85937,1.265625 9.65625,3.8125 v -8.5 q -4.84375,-2.046875 -9.92188,-3.125 -5.07812,-1.078125 -10.29687,-1.078125 -13.09375,0 -20.73438,7.609375 -7.64062,7.625 -7.64062,20.625 0,13.421875 7.25,21.296875 Q 591.87891,56 604.19141,56 q 11.03125,0 17.45312,-7.109375 6.42188,-7.09375 6.42188,-19.296875 z m -8.98438,2.640625 q -0.0937,7.359375 -4.125,11.75 -4.03125,4.40625 -10.67187,4.40625 -7.51563,0 -12.03125,-4.25 -4.51563,-4.25 -5.20313,-11.96875 z"
               style="stroke-width:0.015625" />
          </g>
        </g>
      </g>
      <g
         id="line2d_18">
        <path
           d="m 323.52814,254.17946 -6.81263,9.78155 -7.30659,9.78155 -7.83639,9.78155 -8.40458,9.78155 -9.01399,9.78155 -9.66757,9.78155 -10.36855,9.78155 -11.12036,9.78154 -11.92667,9.78156 -12.79146,9.78154 -13.71894,9.78155 -14.71367,9.78155 -15.78054,9.78155 -16.92475,9.78155 -18.15194,9.78155 -19.4681,9.78155 -20.8797,9.78155 -22.393649,9.78155 -24.01737,9.78155 -25.758827,9.78155"
           clip-path="url(#pb8ac5af569)"
           style="fill:none;stroke:#ff0000;stroke-width:1.5;stroke-linecap:square"
           id="path88" />
      </g>
      <g
         id="line2d_19">
        <path
           d="m 323.52814,254.17946 -25.75883,9.78155 -24.01737,9.78155 -22.39365,9.78155 -20.8797,9.78155 -19.4681,9.78155 -18.15194,9.78155 -16.92475,9.78155 -15.78054,9.78154 -14.71368,9.78156 -13.71894,9.78154 -12.79145,9.78155 -11.92667,9.78155 -11.120359,9.78155 -10.368552,9.78155 -9.667573,9.78155 -9.013986,9.78155 -8.404584,9.78155 -7.836383,9.78155 -7.306595,9.78155 -6.812624,9.78155"
           clip-path="url(#pb8ac5af569)"
           style="fill:none;stroke:#0000ff;stroke-width:1.5;stroke-linecap:square"
           id="path89" />
      </g>
      <g
         id="patch_10">
        <path
           d="M 36.471864,459.592 V 244.39791"
           style="fill:none;stroke:#000000;stroke-width:0.8;stroke-linecap:square;stroke-linejoin:miter"
           id="path91" />
      </g>
      <g
         id="patch_11">
        <path
           d="M 323.52814,459.592 V 244.39791"
           style="fill:none;stroke:#000000;stroke-width:0.8;stroke-linecap:square;stroke-linejoin:miter"
           id="path92" />
      </g>
      <g
         id="patch_12">
        <path
           d="M 36.471864,459.592 H 323.52814"
           style="fill:none;stroke:#000000;stroke-width:0.8;stroke-linecap:square;stroke-linejoin:miter"
           id="path93" />
      </g>
      <g
         id="patch_13">
        <path
           d="M 36.471864,244.39791 H 323.52814"
           style="fill:none;stroke:#000000;stroke-width:0.8;stroke-linecap:square;stroke-linejoin:miter"
           id="path94" />
      </g>
      <g
         id="text_12">
        <!-- $T_B^{\alpha\rightarrow\beta}$ -->
        <g
           transform="matrix(0.1,0,0,-0.1,11.671864,449.81045)"
           id="g98">
          <defs
             id="defs94">
            <path
               id="DejaVuSans-Oblique-54"
               d="M 378,4666 H 4325 L 4225,4134 H 2559 L 1759,0 h -634 l 800,4134 H 275 Z"
               transform="scale(0.015625)" />
            <path
               id="DejaVuSans-2192"
               d="M 5050,2147 V 1866 L 3822,638 l -375,375 728,728 H 366 v 531 h 3809 l -728,728 375,375 z"
               transform="scale(0.015625)" />
          </defs>
          <use
             xlink:href="#DejaVuSans-Oblique-54"
             transform="translate(0,0.625)"
             id="use94" />
          <path
             id="use95"
             d="m 96.746068,69.179688 0.03281,7.896875 q 0.03281,8.071875 -6.048437,8.104688 -4.550001,0.03281 -7.382813,-3.7625 -3.554687,-4.681251 -4.757812,-10.9375 -1.465625,-7.525001 0.382812,-11.112501 1.914063,-3.653124 6.048437,-3.653124 4.582813,0 8.443751,7.284374 z M 91.79138,90.507813 q 10.66406,0.175 10.52187,-10.871875 0,0 5.33751,10.01875 h 5.59999 L 102.21482,68.90625 102.10544,61.425 q 0,-1.673437 0.92969,-3.073437 1.06094,-1.640625 2.15469,-1.640625 h 3.04062 l -1.02812,-5.3375 H 103.407 q -3.21562,0 -5.53437,2.876562 -1.09375,1.432813 -1.126562,4.440625 -2.220313,-3.664062 -6.048438,-6.770312 -1.815625,-1.432812 -6.704688,-1.4 -7.995312,0.06562 -10.904687,5.195313 -2.975,5.326562 -1.126562,14.765625 1.979687,10.149999 7.175,14.765624 5.851562,5.1625 12.654687,5.260938 z"
             style="stroke-width:0.0109375" />
          <use
             xlink:href="#DejaVuSans-2192"
             transform="matrix(0.7,0,0,0.7,127.88103,51.373438)"
             id="use96" />
          <path
             id="use97"
             d="m 209.70857,53.735938 -3.28125,-16.920312 h -6.32188 l 10.21563,52.598437 Q 213.36169,105 227.93044,105 q 14.76563,0 12.26094,-13.157812 -1.70625,-9.3625 -8.36719,-12.785937 8.95782,-3.073438 7.20782,-12.195313 -3.07344,-16.242188 -19.62188,-16.209375 -7.24062,0.03281 -9.70156,3.084375 z m 1.60781,8.203125 q 2.625,-5.95 9.3625,-5.917188 9.84375,0 11.93281,10.729688 1.88125,9.646875 -14.12031,8.892187 l 1.12656,5.807813 q 12.37032,-0.207812 14.525,10.9375 1.47657,7.525 -6.52968,7.48125 -8.94688,0 -11.00313,-10.664063 z"
             style="stroke-width:0.0109375" />
          <path
             id="use98"
             d="m 72.907421,24.315625 h 17.642188 q 7.175,0 10.729691,-2.66875 3.55468,-2.66875 3.55468,-8.028125 0,-4.921875 -3.0625,-8.4984375 Q 98.719921,1.54375 93.765234,0.8 q 4.232812,-0.9625 6.354686,-3.6640625 2.12188,-2.7015625 2.12188,-7.2078125 0,-7.689062 -5.698441,-12.173437 -5.6875,-4.473438 -15.564062,-4.473438 H 62.965234 Z M 74.580859,-2.35 70.960546,-21.042187 h 11.112501 q 6.256249,0 9.635937,2.865624 3.379688,2.876563 3.379688,8.104688 0,4.0359375 -2.242188,5.8734375 Q 90.615234,-2.35 85.660546,-2.35 Z m 4.06875,20.989062 -3.007813,-15.3781245 h 10.292188 q 5.501562,0 8.596875,2.384375 3.095312,2.3953125 3.095312,6.6390625 0,3.314062 -2.089062,4.834375 -2.089062,1.520312 -6.660938,1.520312 z"
             style="stroke-width:0.0109375" />
        </g>
      </g>
      <g
         id="text_13">
        <!-- $T_A^{\alpha\rightarrow\beta}$ -->
        <g
           transform="matrix(0.1,0,0,-0.1,323.52814,254.17946)"
           id="g103">
          <use
             xlink:href="#DejaVuSans-Oblique-54"
             transform="translate(0,0.625)"
             id="use99" />
          <path
             id="use100"
             d="m 96.746068,69.179688 0.03281,7.896875 q 0.03281,8.071875 -6.048437,8.104688 -4.550001,0.03281 -7.382813,-3.7625 -3.554687,-4.681251 -4.757812,-10.9375 -1.465625,-7.525001 0.382812,-11.112501 1.914063,-3.653124 6.048437,-3.653124 4.582813,0 8.443751,7.284374 z M 91.79138,90.507813 q 10.66406,0.175 10.52187,-10.871875 0,0 5.33751,10.01875 h 5.59999 L 102.21482,68.90625 102.10544,61.425 q 0,-1.673437 0.92969,-3.073437 1.06094,-1.640625 2.15469,-1.640625 h 3.04062 l -1.02812,-5.3375 H 103.407 q -3.21562,0 -5.53437,2.876562 -1.09375,1.432813 -1.126562,4.440625 -2.220313,-3.664062 -6.048438,-6.770312 -1.815625,-1.432812 -6.704688,-1.4 -7.995312,0.06562 -10.904687,5.195313 -2.975,5.326562 -1.126562,14.765625 1.979687,10.149999 7.175,14.765624 5.851562,5.1625 12.654687,5.260938 z"
             style="stroke-width:0.0109375" />
          <use
             xlink:href="#DejaVuSans-2192"
             transform="matrix(0.7,0,0,0.7,127.88103,51.373438)"
             id="use101" />
          <path
             id="use102"
             d="m 209.70857,53.735938 -3.28125,-16.920312 h -6.32188 l 10.21563,52.598437 Q 213.36169,105 227.93044,105 q 14.76563,0 12.26094,-13.157812 -1.70625,-9.3625 -8.36719,-12.785937 8.95782,-3.073438 7.20782,-12.195313 -3.07344,-16.242188 -19.62188,-16.209375 -7.24062,0.03281 -9.70156,3.084375 z m 1.60781,8.203125 q 2.625,-5.95 9.3625,-5.917188 9.84375,0 11.93281,10.729688 1.88125,9.646875 -14.12031,8.892187 l 1.12656,5.807813 q 12.37032,-0.207812 14.525,10.9375 1.47657,7.525 -6.52968,7.48125 -8.94688,0 -11.00313,-10.664063 z"
             style="stroke-width:0.0109375" />
          <path
             id="use103"
             d="m 86.852734,24.315625 h 7.83125 l 9.471876,-51.034375 h -7.218751 l -2.121875,13.092187 H 71.846484 L 64.638671,-26.71875 H 57.354297 Z M 89.346484,17.5125 75.029296,-7.884375 h 18.735938 z"
             style="stroke-width:0.0109375" />
        </g>
      </g>
      <g
         id="text_14"
         transform="translate(21.753333,5.1283496)">
        <!-- $\beta$ -->
        <g
           style="fill:#0000ff"
           transform="matrix(0.16,0,0,-0.16,65.177491,265.91732)"
           id="g104">
          <path
             id="use104"
             d="M 13.625,3.765625 8.9375,-20.40625 H -0.09375 L 14.5,54.734375 Q 18.84375,77 39.65625,77 60.75,77 57.171875,58.203125 54.734375,44.828125 45.21875,39.9375 58.015625,35.546875 55.515625,22.515625 51.125,-0.6875 27.484375,-0.640625 17.140625,-0.59375 13.625,3.765625 Z m 2.296875,11.71875 q 3.75,-8.5 13.375,-8.453125 14.0625,0 17.046875,15.328125 2.6875,13.78125 -20.171875,12.703125 l 1.609375,8.296875 q 17.671875,-0.296875 20.75,15.625 2.109375,10.75 -9.328125,10.6875 -12.78125,0 -15.71875,-15.234375 z"
             style="stroke-width:0.015625" />
        </g>
      </g>
      <g
         id="text_15"
         transform="translate(-23.264768,-0.7065658)">
        <!-- $\alpha+\beta$ -->
        <g
           transform="matrix(0.16,0,0,-0.16,180,351.99495)"
           id="g107">
          <defs
             id="defs104">
            <path
               id="DejaVuSans-2b"
               d="M 2944,4013 V 2272 H 4684 V 1741 H 2944 V 0 H 2419 V 1741 H 678 v 531 h 1741 v 1741 z"
               transform="scale(0.015625)" />
          </defs>
          <path
             id="use105"
             d="m 40.921875,25.828125 0.04687,11.28125 q 0.04687,11.53125 -8.640625,11.578125 -6.5,0.04687 -10.546875,-5.375 -5.078125,-6.6875 -6.796875,-15.625 -2.09375,-10.75 0.546875,-15.875 2.734375,-5.21875 8.640625,-5.21875 6.546875,0 12.0625,10.40625 z m -7.078125,30.46875 q 15.234375,0.25 15.03125,-15.53125 0,0 7.625,14.3125 h 8 L 48.734375,25.4375 48.578125,14.75 q 0,-2.390625 1.328125,-4.390625 1.515625,-2.34375 3.078125,-2.34375 h 4.34375 l -1.46875,-7.625 H 50.4375 q -4.59375,0 -7.90625,4.109375 -1.5625,2.046875 -1.609375,6.34375 Q 37.75,5.609375 32.28125,1.171875 29.6875,-0.875 22.703125,-0.828125 11.28125,-0.734375 7.125,6.59375 2.875,14.203125 5.515625,27.6875 q 2.828125,14.5 10.25,21.09375 8.359375,7.375 18.078125,7.515625 z"
             style="stroke-width:0.015625" />
          <use
             xlink:href="#DejaVuSans-2b"
             transform="translate(85.400391,0.390625)"
             id="use106" />
          <path
             id="use107"
             d="m 202.29687,3.765625 -4.6875,-24.171875 h -9.03125 l 14.59375,75.140625 Q 207.51562,77 228.32812,77 249.42187,77 245.84375,58.203125 243.40625,44.828125 233.89062,39.9375 246.6875,35.546875 244.1875,22.515625 239.79687,-0.6875 216.15625,-0.640625 205.8125,-0.59375 202.29687,3.765625 Z m 2.29688,11.71875 q 3.75,-8.5 13.375,-8.453125 14.0625,0 17.04687,15.328125 2.6875,13.78125 -20.17187,12.703125 l 1.60937,8.296875 q 17.67188,-0.296875 20.75,15.625 2.10938,10.75 -9.32812,10.6875 -12.78125,0 -15.71875,-15.234375 z"
             style="stroke-width:0.015625" />
        </g>
      </g>
      <g
         id="text_16"
         transform="translate(-22.664694,-6.4988493)">
        <!-- $\alpha$ -->
        <g
           style="fill:#ff0000"
           transform="matrix(0.16,0,0,-0.16,294.82251,438.07259)"
           id="g108">
          <path
             id="use108"
             d="m 40.921875,26.28125 0.04687,11.28125 q 0.04687,11.53125 -8.640625,11.578125 -6.5,0.04687 -10.546875,-5.375 -5.078125,-6.6875 -6.796875,-15.625 -2.09375,-10.75 0.546875,-15.875 2.734375,-5.21875 8.640625,-5.21875 6.546875,0 12.0625,10.40625 z M 33.84375,56.75 Q 49.078125,57 48.875,41.21875 q 0,0 7.625,14.3125 h 8 l -15.765625,-29.640625 -0.15625,-10.6875 q 0,-2.390625 1.328125,-4.390625 1.515625,-2.34375 3.078125,-2.34375 h 4.34375 l -1.46875,-7.625 H 50.4375 q -4.59375,0 -7.90625,4.109375 Q 40.96875,7 40.921875,11.296875 37.75,6.0625 32.28125,1.625 29.6875,-0.421875 22.703125,-0.375 11.28125,-0.28125 7.125,7.046875 q -4.25,7.609375 -1.609375,21.09375 2.828125,14.5 10.25,21.09375 8.359375,7.375 18.078125,7.515625 z"
             style="stroke-width:0.015625" />
        </g>
      </g>
      <text
         xml:space="preserve"
         style="font-style:normal;font-variant:normal;font-weight:normal;font-stretch:normal;font-size:16px;font-family:FreeSans;-inkscape-font-specification:FreeSans;fill:#000000;fill-opacity:1;stroke:none;stroke-width:3;stroke-linecap:round;stroke-linejoin:round"
         x="60.171543"
         y="291.45273"
         id="text109"><tspan
           sodipodi:role="line"
           id="tspan109"
           style="font-style:normal;font-variant:normal;font-weight:normal;font-stretch:normal;font-size:16px;font-family:FreeSans;-inkscape-font-specification:FreeSans;fill:#000000;fill-opacity:1;stroke:none;stroke-width:3"
           x="60.171543"
           y="291.45273">C=2, P=1</tspan></text>
      <text
         xml:space="preserve"
         style="font-style:normal;font-variant:normal;font-weight:normal;font-stretch:normal;font-size:16px;font-family:FreeSans;-inkscape-font-specification:FreeSans;fill:#000000;fill-opacity:1;stroke:none;stroke-width:3;stroke-linecap:round;stroke-linejoin:round"
         x="125.68952"
         y="371.7886"
         id="text109-61"><tspan
           sodipodi:role="line"
           id="tspan109-5"
           style="font-style:normal;font-variant:normal;font-weight:normal;font-stretch:normal;font-size:16px;font-family:FreeSans;-inkscape-font-specification:FreeSans;fill:#000000;fill-opacity:1;stroke:none;stroke-width:3"
           x="125.68952"
           y="371.7886">C=2, P=2</tspan></text>
      <text
         xml:space="preserve"
         style="font-style:normal;font-variant:normal;font-weight:normal;font-stretch:normal;font-size:16px;font-family:FreeSans;-inkscape-font-specification:FreeSans;fill:#000000;fill-opacity:1;stroke:none;stroke-width:3;stroke-linecap:round;stroke-linejoin:round"
         x="246.46324"
         y="448.93326"
         id="text109-6"><tspan
           sodipodi:role="line"
           id="tspan109-1"
           style="font-style:normal;font-variant:normal;font-weight:normal;font-stretch:normal;font-size:16px;font-family:FreeSans;-inkscape-font-specification:FreeSans;fill:#000000;fill-opacity:1;stroke:none;stroke-width:3"
           x="246.46324"
           y="448.93326">C=2, P=1</tspan></text>
    </g>
  </g>
  <defs
     id="defs109">
    <clipPath
       id="pb8ac5af569">
      <rect
         x="36.471863"
         y="244.3979"
         width="287.05627"
         height="215.19409"
         id="rect109" />
    </clipPath>
  </defs>
</svg>
