<?xml version="1.0" encoding="utf-8" standalone="no"?>
<!DOCTYPE svg PUBLIC "-//W3C//DTD SVG 1.1//EN"
  "http://www.w3.org/Graphics/SVG/1.1/DTD/svg11.dtd">
<svg xmlns:xlink="http://www.w3.org/1999/xlink" width="360pt" height="504pt" viewBox="0 0 360 504" xmlns="http://www.w3.org/2000/svg" version="1.1">
 <metadata>
  <rdf:RDF xmlns:dc="http://purl.org/dc/elements/1.1/" xmlns:cc="http://creativecommons.org/ns#" xmlns:rdf="http://www.w3.org/1999/02/22-rdf-syntax-ns#">
   <cc:Work>
    <dc:type rdf:resource="http://purl.org/dc/dcmitype/StillImage"/>
    <dc:date>2024-09-18T08:59:13.609915</dc:date>
    <dc:format>image/svg+xml</dc:format>
    <dc:creator>
     <cc:Agent>
      <dc:title>Matplotlib v3.9.2, https://matplotlib.org/</dc:title>
     </cc:Agent>
    </dc:creator>
   </cc:Work>
  </rdf:RDF>
 </metadata>
 <defs>
  <style type="text/css">*{stroke-linejoin: round; stroke-linecap: butt}</style>
 </defs>
 <g id="figure_1">
  <g id="patch_1">
   <path d="M 0 504 
L 360 504 
L 360 0 
L 0 0 
z
" style="fill: #ffffff"/>
  </g>
  <g id="axes_1">
   <g id="patch_2">
    <path d="M 36.632 228.046 
L 341.28 228.046 
L 341.28 10.8 
L 36.632 10.8 
z
" style="fill: #ffffff"/>
   </g>
   <g id="matplotlib.axis_1">
    <g id="xtick_1">
     <g id="line2d_1">
      <defs>
       <path id="meea80b668a" d="M 0 0 
L 0 3.5 
" style="stroke: #000000; stroke-width: 0.8"/>
      </defs>
      <g>
       <use xlink:href="#meea80b668a" x="36.632" y="228.046" style="stroke: #000000; stroke-width: 0.8"/>
      </g>
     </g>
    </g>
    <g id="xtick_2">
     <g id="line2d_2">
      <g>
       <use xlink:href="#meea80b668a" x="97.5616" y="228.046" style="stroke: #000000; stroke-width: 0.8"/>
      </g>
     </g>
    </g>
    <g id="xtick_3">
     <g id="line2d_3">
      <g>
       <use xlink:href="#meea80b668a" x="158.4912" y="228.046" style="stroke: #000000; stroke-width: 0.8"/>
      </g>
     </g>
    </g>
    <g id="xtick_4">
     <g id="line2d_4">
      <g>
       <use xlink:href="#meea80b668a" x="219.4208" y="228.046" style="stroke: #000000; stroke-width: 0.8"/>
      </g>
     </g>
    </g>
    <g id="xtick_5">
     <g id="line2d_5">
      <g>
       <use xlink:href="#meea80b668a" x="280.3504" y="228.046" style="stroke: #000000; stroke-width: 0.8"/>
      </g>
     </g>
    </g>
    <g id="xtick_6">
     <g id="line2d_6">
      <g>
       <use xlink:href="#meea80b668a" x="341.28" y="228.046" style="stroke: #000000; stroke-width: 0.8"/>
      </g>
     </g>
    </g>
   </g>
   <g id="matplotlib.axis_2">
    <g id="ytick_1"/>
    <g id="ytick_2"/>
    <g id="ytick_3"/>
    <g id="ytick_4"/>
    <g id="ytick_5"/>
    <g id="ytick_6"/>
    <g id="ytick_7"/>
    <g id="ytick_8"/>
    <g id="text_1">
     <!-- Free energy -->
     <g transform="translate(23.552313 149.044875) rotate(-90) scale(0.1 -0.1)">
      <defs>
       <path id="DejaVuSans-46" d="M 628 4666 
L 3309 4666 
L 3309 4134 
L 1259 4134 
L 1259 2759 
L 3109 2759 
L 3109 2228 
L 1259 2228 
L 1259 0 
L 628 0 
L 628 4666 
z
" transform="scale(0.015625)"/>
       <path id="DejaVuSans-72" d="M 2631 2963 
Q 2534 3019 2420 3045 
Q 2306 3072 2169 3072 
Q 1681 3072 1420 2755 
Q 1159 2438 1159 1844 
L 1159 0 
L 581 0 
L 581 3500 
L 1159 3500 
L 1159 2956 
Q 1341 3275 1631 3429 
Q 1922 3584 2338 3584 
Q 2397 3584 2469 3576 
Q 2541 3569 2628 3553 
L 2631 2963 
z
" transform="scale(0.015625)"/>
       <path id="DejaVuSans-65" d="M 3597 1894 
L 3597 1613 
L 953 1613 
Q 991 1019 1311 708 
Q 1631 397 2203 397 
Q 2534 397 2845 478 
Q 3156 559 3463 722 
L 3463 178 
Q 3153 47 2828 -22 
Q 2503 -91 2169 -91 
Q 1331 -91 842 396 
Q 353 884 353 1716 
Q 353 2575 817 3079 
Q 1281 3584 2069 3584 
Q 2775 3584 3186 3129 
Q 3597 2675 3597 1894 
z
M 3022 2063 
Q 3016 2534 2758 2815 
Q 2500 3097 2075 3097 
Q 1594 3097 1305 2825 
Q 1016 2553 972 2059 
L 3022 2063 
z
" transform="scale(0.015625)"/>
       <path id="DejaVuSans-20" transform="scale(0.015625)"/>
       <path id="DejaVuSans-6e" d="M 3513 2113 
L 3513 0 
L 2938 0 
L 2938 2094 
Q 2938 2591 2744 2837 
Q 2550 3084 2163 3084 
Q 1697 3084 1428 2787 
Q 1159 2491 1159 1978 
L 1159 0 
L 581 0 
L 581 3500 
L 1159 3500 
L 1159 2956 
Q 1366 3272 1645 3428 
Q 1925 3584 2291 3584 
Q 2894 3584 3203 3211 
Q 3513 2838 3513 2113 
z
" transform="scale(0.015625)"/>
       <path id="DejaVuSans-67" d="M 2906 1791 
Q 2906 2416 2648 2759 
Q 2391 3103 1925 3103 
Q 1463 3103 1205 2759 
Q 947 2416 947 1791 
Q 947 1169 1205 825 
Q 1463 481 1925 481 
Q 2391 481 2648 825 
Q 2906 1169 2906 1791 
z
M 3481 434 
Q 3481 -459 3084 -895 
Q 2688 -1331 1869 -1331 
Q 1566 -1331 1297 -1286 
Q 1028 -1241 775 -1147 
L 775 -588 
Q 1028 -725 1275 -790 
Q 1522 -856 1778 -856 
Q 2344 -856 2625 -561 
Q 2906 -266 2906 331 
L 2906 616 
Q 2728 306 2450 153 
Q 2172 0 1784 0 
Q 1141 0 747 490 
Q 353 981 353 1791 
Q 353 2603 747 3093 
Q 1141 3584 1784 3584 
Q 2172 3584 2450 3431 
Q 2728 3278 2906 2969 
L 2906 3500 
L 3481 3500 
L 3481 434 
z
" transform="scale(0.015625)"/>
       <path id="DejaVuSans-79" d="M 2059 -325 
Q 1816 -950 1584 -1140 
Q 1353 -1331 966 -1331 
L 506 -1331 
L 506 -850 
L 844 -850 
Q 1081 -850 1212 -737 
Q 1344 -625 1503 -206 
L 1606 56 
L 191 3500 
L 800 3500 
L 1894 763 
L 2988 3500 
L 3597 3500 
L 2059 -325 
z
" transform="scale(0.015625)"/>
      </defs>
      <use xlink:href="#DejaVuSans-46"/>
      <use xlink:href="#DejaVuSans-72" x="50.269531"/>
      <use xlink:href="#DejaVuSans-65" x="89.132812"/>
      <use xlink:href="#DejaVuSans-65" x="150.65625"/>
      <use xlink:href="#DejaVuSans-20" x="212.179688"/>
      <use xlink:href="#DejaVuSans-65" x="243.966797"/>
      <use xlink:href="#DejaVuSans-6e" x="305.490234"/>
      <use xlink:href="#DejaVuSans-65" x="368.869141"/>
      <use xlink:href="#DejaVuSans-72" x="430.392578"/>
      <use xlink:href="#DejaVuSans-67" x="469.755859"/>
      <use xlink:href="#DejaVuSans-79" x="533.232422"/>
     </g>
    </g>
   </g>
   <g id="line2d_7">
    <path d="M 37.39362 128.282735 
L 38.91686 131.400689 
L 41.20172 135.338838 
L 43.48658 138.811914 
L 46.53306 142.983464 
L 49.57954 146.77763 
L 53.38764 151.119753 
L 57.19574 155.1078 
L 61.00384 158.804314 
L 65.57356 162.914426 
L 70.14328 166.717681 
L 74.713 170.251729 
L 80.04434 174.072065 
L 85.37568 177.599008 
L 90.70702 180.859333 
L 96.03836 183.874296 
L 101.3697 186.66112 
L 107.46266 189.58478 
L 113.55562 192.246344 
L 119.64858 194.660155 
L 125.74154 196.838116 
L 131.8345 198.790162 
L 137.92746 200.52462 
L 144.02042 202.048461 
L 150.875 203.518241 
L 157.72958 204.735598 
L 164.58416 205.705937 
L 171.43874 206.433429 
L 178.29332 206.921126 
L 185.1479 207.171036 
L 192.00248 207.184179 
L 198.85706 206.960609 
L 205.71164 206.499414 
L 212.56622 205.798697 
L 219.4208 204.855525 
L 226.27538 203.665858 
L 233.12996 202.224433 
L 239.22292 200.726488 
L 245.31588 199.018714 
L 251.40884 197.094291 
L 257.5018 194.945077 
L 263.59476 192.561354 
L 269.68772 189.931488 
L 275.78068 187.041473 
L 281.11202 184.286022 
L 286.44336 181.304624 
L 291.7747 178.080545 
L 297.10604 174.593181 
L 302.43738 170.816662 
L 307.0071 167.324522 
L 311.57682 163.568451 
L 316.14654 159.512624 
L 319.95464 155.868844 
L 323.76274 151.9433 
L 327.57084 147.678424 
L 330.61732 143.963107 
L 333.6638 139.897248 
L 335.94866 136.53738 
L 338.23352 132.782934 
L 339.75676 129.918479 
L 340.51838 128.282735 
L 340.51838 128.282735 
" clip-path="url(#pcb06e31615)" style="fill: none; stroke: #ff0000; stroke-width: 1.5; stroke-linecap: square"/>
   </g>
   <g id="line2d_8">
    <path d="M 37.39362 174.180018 
L 38.91686 176.526589 
L 40.4401 178.445174 
L 42.72496 180.890762 
L 45.00982 182.992951 
L 48.0563 185.41872 
L 51.10278 187.517059 
L 54.14926 189.355371 
L 57.95736 191.352458 
L 61.76546 193.067781 
L 65.57356 194.541126 
L 69.38166 195.801624 
L 73.95138 197.064214 
L 78.5211 198.081765 
L 83.09082 198.877318 
L 87.66054 199.469238 
L 92.99188 199.922228 
L 98.32322 200.137664 
L 103.65456 200.131364 
L 108.9859 199.916421 
L 115.07886 199.429276 
L 121.17182 198.697561 
L 127.26478 197.732648 
L 133.35774 196.544042 
L 139.4507 195.139708 
L 145.54366 193.526314 
L 152.39824 191.468242 
L 159.25282 189.159061 
L 166.1074 186.603891 
L 172.96198 183.806647 
L 179.81656 180.770141 
L 186.67114 177.496159 
L 193.52572 173.985505 
L 200.3803 170.238019 
L 207.23488 166.252573 
L 214.08946 162.027045 
L 220.94404 157.558265 
L 227.79862 152.841928 
L 234.6532 147.872486 
L 241.50778 142.642975 
L 248.36236 137.144809 
L 255.21694 131.367481 
L 262.07152 125.298173 
L 268.9261 118.921215 
L 275.78068 112.21733 
L 281.87364 105.964622 
L 287.9666 99.413835 
L 294.05956 92.53883 
L 300.15252 85.30624 
L 305.48386 78.650297 
L 310.8152 71.648229 
L 316.14654 64.246834 
L 320.71626 57.527861 
L 325.28598 50.388068 
L 329.09408 44.03634 
L 332.90218 37.20158 
L 335.94866 31.243613 
L 338.23352 26.332092 
L 339.75676 22.696254 
L 340.51838 20.674818 
L 340.51838 20.674818 
" clip-path="url(#pcb06e31615)" style="fill: none; stroke: #0000ff; stroke-width: 1.5; stroke-linecap: square"/>
   </g>
   <g id="line2d_9">
    <path d="M 36.632 197.185223 
L 341.28 218.171182 
L 341.28 218.171182 
" clip-path="url(#pcb06e31615)" style="fill: none; stroke-dasharray: 2.775,1.2; stroke-dashoffset: 0; stroke: #000000; stroke-width: 0.75"/>
   </g>
   <g id="line2d_10">
    <defs>
     <path id="m37226fbd5e" d="M 0 3 
C 0.795609 3 1.55874 2.683901 2.12132 2.12132 
C 2.683901 1.55874 3 0.795609 3 0 
C 3 -0.795609 2.683901 -1.55874 2.12132 -2.12132 
C 1.55874 -2.683901 0.795609 -3 0 -3 
C -0.795609 -3 -1.55874 -2.683901 -2.12132 -2.12132 
C -2.683901 -1.55874 -3 -0.795609 -3 0 
C -3 0.795609 -2.683901 1.55874 -2.12132 2.12132 
C -1.55874 2.683901 -0.795609 3 0 3 
z
" style="stroke: #000000"/>
    </defs>
    <g clip-path="url(#pcb06e31615)">
     <use xlink:href="#m37226fbd5e" x="175.309435" y="206.738146" style="stroke: #000000"/>
    </g>
   </g>
   <g id="line2d_11">
    <g clip-path="url(#pcb06e31615)">
     <use xlink:href="#m37226fbd5e" x="88.67918" y="199.574993" style="stroke: #000000"/>
    </g>
   </g>
   <g id="patch_3">
    <path d="M 36.632 228.046 
L 36.632 10.8 
" style="fill: none; stroke: #000000; stroke-width: 0.8; stroke-linejoin: miter; stroke-linecap: square"/>
   </g>
   <g id="patch_4">
    <path d="M 341.28 228.046 
L 341.28 10.8 
" style="fill: none; stroke: #000000; stroke-width: 0.8; stroke-linejoin: miter; stroke-linecap: square"/>
   </g>
   <g id="patch_5">
    <path d="M 36.632 228.046 
L 341.28 228.046 
" style="fill: none; stroke: #000000; stroke-width: 0.8; stroke-linejoin: miter; stroke-linecap: square"/>
   </g>
   <g id="patch_6">
    <path d="M 36.632 10.8 
L 341.28 10.8 
" style="fill: none; stroke: #000000; stroke-width: 0.8; stroke-linejoin: miter; stroke-linecap: square"/>
   </g>
   <g id="text_2">
    <!--  $G_{AB}^{\alpha}$ -->
    <g style="fill: #ff0000" transform="translate(97.5616 184.693141) scale(0.16 -0.16)">
     <defs>
      <path id="DejaVuSans-Oblique-47" d="M 3494 697 
L 3738 1919 
L 2700 1919 
L 2797 2438 
L 4453 2438 
L 4050 384 
Q 3634 156 3143 32 
Q 2653 -91 2156 -91 
Q 1278 -91 783 396 
Q 288 884 288 1753 
Q 288 2475 589 3126 
Q 891 3778 1422 4213 
Q 1756 4484 2153 4617 
Q 2550 4750 3034 4750 
Q 3472 4750 3873 4639 
Q 4275 4528 4641 4306 
L 4513 3634 
Q 4231 3928 3853 4083 
Q 3475 4238 3047 4238 
Q 2550 4238 2172 4048 
Q 1794 3859 1497 3463 
Q 1244 3125 1098 2667 
Q 953 2209 953 1734 
Q 953 1081 1287 751 
Q 1622 422 2284 422 
Q 2616 422 2925 492 
Q 3234 563 3494 697 
z
" transform="scale(0.015625)"/>
      <path id="DejaVuSans-Oblique-3b1" d="M 2619 1628 
L 2622 2350 
Q 2625 3088 2069 3091 
Q 1653 3094 1394 2747 
Q 1069 2319 959 1747 
Q 825 1059 994 731 
Q 1169 397 1547 397 
Q 1966 397 2319 1063 
L 2619 1628 
z
M 2166 3578 
Q 3141 3594 3128 2584 
Q 3128 2584 3616 3500 
L 4128 3500 
L 3119 1603 
L 3109 919 
Q 3109 766 3194 638 
Q 3291 488 3391 488 
L 3669 488 
L 3575 0 
L 3228 0 
Q 2934 0 2722 263 
Q 2622 394 2619 669 
Q 2416 334 2066 50 
Q 1900 -81 1453 -78 
Q 722 -72 456 397 
Q 184 884 353 1747 
Q 534 2675 1009 3097 
Q 1544 3569 2166 3578 
z
" transform="scale(0.015625)"/>
      <path id="DejaVuSans-Oblique-41" d="M 2356 4666 
L 3072 4666 
L 3938 0 
L 3278 0 
L 3084 1197 
L 984 1197 
L 325 0 
L -341 0 
L 2356 4666 
z
M 2584 4044 
L 1275 1722 
L 2988 1722 
L 2584 4044 
z
" transform="scale(0.015625)"/>
      <path id="DejaVuSans-Oblique-42" d="M 1081 4666 
L 2694 4666 
Q 3350 4666 3675 4422 
Q 4000 4178 4000 3688 
Q 4000 3238 3720 2911 
Q 3441 2584 2988 2516 
Q 3375 2428 3569 2181 
Q 3763 1934 3763 1522 
Q 3763 819 3242 409 
Q 2722 0 1819 0 
L 172 0 
L 1081 4666 
z
M 1234 2228 
L 903 519 
L 1919 519 
Q 2491 519 2800 781 
Q 3109 1044 3109 1522 
Q 3109 1891 2904 2059 
Q 2700 2228 2247 2228 
L 1234 2228 
z
M 1606 4147 
L 1331 2741 
L 2272 2741 
Q 2775 2741 3058 2959 
Q 3341 3178 3341 3566 
Q 3341 3869 3150 4008 
Q 2959 4147 2541 4147 
L 1606 4147 
z
" transform="scale(0.015625)"/>
     </defs>
     <use xlink:href="#DejaVuSans-20" transform="translate(0 0.409375)"/>
     <use xlink:href="#DejaVuSans-Oblique-47" transform="translate(31.787109 0.409375)"/>
     <use xlink:href="#DejaVuSans-Oblique-3b1" transform="translate(116.477865 38.690625) scale(0.7)"/>
     <use xlink:href="#DejaVuSans-Oblique-41" transform="translate(109.277344 -26.934375) scale(0.7)"/>
     <use xlink:href="#DejaVuSans-Oblique-42" transform="translate(157.163086 -26.934375) scale(0.7)"/>
    </g>
   </g>
   <g id="text_3">
    <!-- $G_{AB}^{\beta}$   -->
    <g style="fill: #0000ff" transform="translate(241.9504 107.55485) scale(0.16 -0.16)">
     <defs>
      <path id="DejaVuSans-Oblique-3b2" d="M 872 216 
L 572 -1331 
L -6 -1331 
L 928 3478 
Q 1206 4903 2538 4903 
Q 3888 4903 3659 3700 
Q 3503 2844 2894 2531 
Q 3713 2250 3553 1416 
Q 3272 -69 1759 -66 
Q 1097 -63 872 216 
z
M 1019 966 
Q 1259 422 1875 425 
Q 2775 425 2966 1406 
Q 3138 2288 1675 2219 
L 1778 2750 
Q 2909 2731 3106 3750 
Q 3241 4438 2509 4434 
Q 1691 4434 1503 3459 
L 1019 966 
z
" transform="scale(0.015625)"/>
     </defs>
     <use xlink:href="#DejaVuSans-Oblique-47" transform="translate(0 0.625)"/>
     <use xlink:href="#DejaVuSans-Oblique-3b2" transform="translate(84.690755 51.373438) scale(0.7)"/>
     <use xlink:href="#DejaVuSans-Oblique-41" transform="translate(77.490234 -26.71875) scale(0.7)"/>
     <use xlink:href="#DejaVuSans-Oblique-42" transform="translate(125.375977 -26.71875) scale(0.7)"/>
     <use xlink:href="#DejaVuSans-20" transform="translate(176.132812 0.625)"/>
     <use xlink:href="#DejaVuSans-20" transform="translate(207.919922 0.625)"/>
    </g>
   </g>
   <g id="text_4">
    <!-- $Q_2$ -->
    <g transform="translate(175.309435 203.410646) scale(0.16 -0.16)">
     <defs>
      <path id="DejaVuSans-Oblique-51" d="M 2309 -84 
Q 2275 -88 2237 -89 
Q 2200 -91 2125 -91 
Q 1250 -91 756 411 
Q 263 913 263 1797 
Q 263 2319 452 2844 
Q 641 3369 978 3788 
Q 1369 4269 1858 4509 
Q 2347 4750 2938 4750 
Q 3794 4750 4287 4245 
Q 4781 3741 4781 2869 
Q 4781 1928 4265 1147 
Q 3750 366 2919 44 
L 3553 -825 
L 2847 -825 
L 2309 -84 
z
M 2919 4238 
Q 2400 4238 2003 3986 
Q 1606 3734 1313 3219 
Q 1125 2891 1026 2522 
Q 928 2153 928 1778 
Q 928 1128 1239 775 
Q 1550 422 2119 422 
Q 2631 422 3032 676 
Q 3434 931 3719 1434 
Q 3909 1772 4009 2142 
Q 4109 2513 4109 2881 
Q 4109 3528 3796 3883 
Q 3484 4238 2919 4238 
z
" transform="scale(0.015625)"/>
      <path id="DejaVuSans-32" d="M 1228 531 
L 3431 531 
L 3431 0 
L 469 0 
L 469 531 
Q 828 903 1448 1529 
Q 2069 2156 2228 2338 
Q 2531 2678 2651 2914 
Q 2772 3150 2772 3378 
Q 2772 3750 2511 3984 
Q 2250 4219 1831 4219 
Q 1534 4219 1204 4116 
Q 875 4013 500 3803 
L 500 4441 
Q 881 4594 1212 4672 
Q 1544 4750 1819 4750 
Q 2544 4750 2975 4387 
Q 3406 4025 3406 3419 
Q 3406 3131 3298 2873 
Q 3191 2616 2906 2266 
Q 2828 2175 2409 1742 
Q 1991 1309 1228 531 
z
" transform="scale(0.015625)"/>
     </defs>
     <use xlink:href="#DejaVuSans-Oblique-51" transform="translate(0 0.78125)"/>
     <use xlink:href="#DejaVuSans-32" transform="translate(78.710938 -15.625) scale(0.7)"/>
    </g>
   </g>
   <g id="text_5">
    <!-- $P_2$ -->
    <g transform="translate(88.67918 196.247493) scale(0.16 -0.16)">
     <defs>
      <path id="DejaVuSans-Oblique-50" d="M 1081 4666 
L 2541 4666 
Q 3178 4666 3512 4369 
Q 3847 4072 3847 3500 
Q 3847 2731 3353 2303 
Q 2859 1875 1966 1875 
L 1172 1875 
L 806 0 
L 172 0 
L 1081 4666 
z
M 1613 4147 
L 1275 2394 
L 2069 2394 
Q 2606 2394 2893 2669 
Q 3181 2944 3181 3456 
Q 3181 3784 2986 3965 
Q 2791 4147 2438 4147 
L 1613 4147 
z
" transform="scale(0.015625)"/>
     </defs>
     <use xlink:href="#DejaVuSans-Oblique-50" transform="translate(0 0.09375)"/>
     <use xlink:href="#DejaVuSans-32" transform="translate(60.302734 -16.3125) scale(0.7)"/>
    </g>
   </g>
  </g>
  <g id="axes_2">
   <g id="patch_7">
    <path d="M 36.632 459.592 
L 341.28 459.592 
L 341.28 242.346 
L 36.632 242.346 
z
" style="fill: #ffffff"/>
   </g>
   <g id="patch_8">
    <path d="M 175.309435 206.738146 
Q 175.309435 275.984179 175.309435 345.230212 
" style="fill: none; stroke: #000000; stroke-linecap: round"/>
   </g>
   <g id="patch_9">
    <path d="M 88.67918 199.574993 
Q 88.67918 272.402603 88.67918 345.230212 
" style="fill: none; stroke: #000000; stroke-linecap: round"/>
   </g>
   <g id="matplotlib.axis_3">
    <g id="xtick_7">
     <g id="line2d_12">
      <g>
       <use xlink:href="#meea80b668a" x="36.632" y="459.592" style="stroke: #000000; stroke-width: 0.8"/>
      </g>
     </g>
     <g id="text_6">
      <!-- 0.0 -->
      <g transform="translate(28.680438 474.190437) scale(0.1 -0.1)">
       <defs>
        <path id="DejaVuSans-30" d="M 2034 4250 
Q 1547 4250 1301 3770 
Q 1056 3291 1056 2328 
Q 1056 1369 1301 889 
Q 1547 409 2034 409 
Q 2525 409 2770 889 
Q 3016 1369 3016 2328 
Q 3016 3291 2770 3770 
Q 2525 4250 2034 4250 
z
M 2034 4750 
Q 2819 4750 3233 4129 
Q 3647 3509 3647 2328 
Q 3647 1150 3233 529 
Q 2819 -91 2034 -91 
Q 1250 -91 836 529 
Q 422 1150 422 2328 
Q 422 3509 836 4129 
Q 1250 4750 2034 4750 
z
" transform="scale(0.015625)"/>
        <path id="DejaVuSans-2e" d="M 684 794 
L 1344 794 
L 1344 0 
L 684 0 
L 684 794 
z
" transform="scale(0.015625)"/>
       </defs>
       <use xlink:href="#DejaVuSans-30"/>
       <use xlink:href="#DejaVuSans-2e" x="63.623047"/>
       <use xlink:href="#DejaVuSans-30" x="95.410156"/>
      </g>
     </g>
    </g>
    <g id="xtick_8">
     <g id="line2d_13">
      <g>
       <use xlink:href="#meea80b668a" x="97.5616" y="459.592" style="stroke: #000000; stroke-width: 0.8"/>
      </g>
     </g>
     <g id="text_7">
      <!-- 0.2 -->
      <g transform="translate(89.610038 474.190437) scale(0.1 -0.1)">
       <use xlink:href="#DejaVuSans-30"/>
       <use xlink:href="#DejaVuSans-2e" x="63.623047"/>
       <use xlink:href="#DejaVuSans-32" x="95.410156"/>
      </g>
     </g>
    </g>
    <g id="xtick_9">
     <g id="line2d_14">
      <g>
       <use xlink:href="#meea80b668a" x="158.4912" y="459.592" style="stroke: #000000; stroke-width: 0.8"/>
      </g>
     </g>
     <g id="text_8">
      <!-- 0.4 -->
      <g transform="translate(150.539637 474.190437) scale(0.1 -0.1)">
       <defs>
        <path id="DejaVuSans-34" d="M 2419 4116 
L 825 1625 
L 2419 1625 
L 2419 4116 
z
M 2253 4666 
L 3047 4666 
L 3047 1625 
L 3713 1625 
L 3713 1100 
L 3047 1100 
L 3047 0 
L 2419 0 
L 2419 1100 
L 313 1100 
L 313 1709 
L 2253 4666 
z
" transform="scale(0.015625)"/>
       </defs>
       <use xlink:href="#DejaVuSans-30"/>
       <use xlink:href="#DejaVuSans-2e" x="63.623047"/>
       <use xlink:href="#DejaVuSans-34" x="95.410156"/>
      </g>
     </g>
    </g>
    <g id="xtick_10">
     <g id="line2d_15">
      <g>
       <use xlink:href="#meea80b668a" x="219.4208" y="459.592" style="stroke: #000000; stroke-width: 0.8"/>
      </g>
     </g>
     <g id="text_9">
      <!-- 0.6 -->
      <g transform="translate(211.469238 474.190437) scale(0.1 -0.1)">
       <defs>
        <path id="DejaVuSans-36" d="M 2113 2584 
Q 1688 2584 1439 2293 
Q 1191 2003 1191 1497 
Q 1191 994 1439 701 
Q 1688 409 2113 409 
Q 2538 409 2786 701 
Q 3034 994 3034 1497 
Q 3034 2003 2786 2293 
Q 2538 2584 2113 2584 
z
M 3366 4563 
L 3366 3988 
Q 3128 4100 2886 4159 
Q 2644 4219 2406 4219 
Q 1781 4219 1451 3797 
Q 1122 3375 1075 2522 
Q 1259 2794 1537 2939 
Q 1816 3084 2150 3084 
Q 2853 3084 3261 2657 
Q 3669 2231 3669 1497 
Q 3669 778 3244 343 
Q 2819 -91 2113 -91 
Q 1303 -91 875 529 
Q 447 1150 447 2328 
Q 447 3434 972 4092 
Q 1497 4750 2381 4750 
Q 2619 4750 2861 4703 
Q 3103 4656 3366 4563 
z
" transform="scale(0.015625)"/>
       </defs>
       <use xlink:href="#DejaVuSans-30"/>
       <use xlink:href="#DejaVuSans-2e" x="63.623047"/>
       <use xlink:href="#DejaVuSans-36" x="95.410156"/>
      </g>
     </g>
    </g>
    <g id="xtick_11">
     <g id="line2d_16">
      <g>
       <use xlink:href="#meea80b668a" x="280.3504" y="459.592" style="stroke: #000000; stroke-width: 0.8"/>
      </g>
     </g>
     <g id="text_10">
      <!-- 0.8 -->
      <g transform="translate(272.398837 474.190437) scale(0.1 -0.1)">
       <defs>
        <path id="DejaVuSans-38" d="M 2034 2216 
Q 1584 2216 1326 1975 
Q 1069 1734 1069 1313 
Q 1069 891 1326 650 
Q 1584 409 2034 409 
Q 2484 409 2743 651 
Q 3003 894 3003 1313 
Q 3003 1734 2745 1975 
Q 2488 2216 2034 2216 
z
M 1403 2484 
Q 997 2584 770 2862 
Q 544 3141 544 3541 
Q 544 4100 942 4425 
Q 1341 4750 2034 4750 
Q 2731 4750 3128 4425 
Q 3525 4100 3525 3541 
Q 3525 3141 3298 2862 
Q 3072 2584 2669 2484 
Q 3125 2378 3379 2068 
Q 3634 1759 3634 1313 
Q 3634 634 3220 271 
Q 2806 -91 2034 -91 
Q 1263 -91 848 271 
Q 434 634 434 1313 
Q 434 1759 690 2068 
Q 947 2378 1403 2484 
z
M 1172 3481 
Q 1172 3119 1398 2916 
Q 1625 2713 2034 2713 
Q 2441 2713 2670 2916 
Q 2900 3119 2900 3481 
Q 2900 3844 2670 4047 
Q 2441 4250 2034 4250 
Q 1625 4250 1398 4047 
Q 1172 3844 1172 3481 
z
" transform="scale(0.015625)"/>
       </defs>
       <use xlink:href="#DejaVuSans-30"/>
       <use xlink:href="#DejaVuSans-2e" x="63.623047"/>
       <use xlink:href="#DejaVuSans-38" x="95.410156"/>
      </g>
     </g>
    </g>
    <g id="xtick_12">
     <g id="line2d_17">
      <g>
       <use xlink:href="#meea80b668a" x="341.28" y="459.592" style="stroke: #000000; stroke-width: 0.8"/>
      </g>
     </g>
     <g id="text_11">
      <!-- 1.0 -->
      <g transform="translate(333.328437 474.190437) scale(0.1 -0.1)">
       <defs>
        <path id="DejaVuSans-31" d="M 794 531 
L 1825 531 
L 1825 4091 
L 703 3866 
L 703 4441 
L 1819 4666 
L 2450 4666 
L 2450 531 
L 3481 531 
L 3481 0 
L 794 0 
L 794 531 
z
" transform="scale(0.015625)"/>
       </defs>
       <use xlink:href="#DejaVuSans-31"/>
       <use xlink:href="#DejaVuSans-2e" x="63.623047"/>
       <use xlink:href="#DejaVuSans-30" x="95.410156"/>
      </g>
     </g>
    </g>
    <g id="text_12">
     <!-- molar fraction, $x_A$ -->
     <g transform="translate(145.006 487.868562) scale(0.1 -0.1)">
      <defs>
       <path id="DejaVuSans-6d" d="M 3328 2828 
Q 3544 3216 3844 3400 
Q 4144 3584 4550 3584 
Q 5097 3584 5394 3201 
Q 5691 2819 5691 2113 
L 5691 0 
L 5113 0 
L 5113 2094 
Q 5113 2597 4934 2840 
Q 4756 3084 4391 3084 
Q 3944 3084 3684 2787 
Q 3425 2491 3425 1978 
L 3425 0 
L 2847 0 
L 2847 2094 
Q 2847 2600 2669 2842 
Q 2491 3084 2119 3084 
Q 1678 3084 1418 2786 
Q 1159 2488 1159 1978 
L 1159 0 
L 581 0 
L 581 3500 
L 1159 3500 
L 1159 2956 
Q 1356 3278 1631 3431 
Q 1906 3584 2284 3584 
Q 2666 3584 2933 3390 
Q 3200 3197 3328 2828 
z
" transform="scale(0.015625)"/>
       <path id="DejaVuSans-6f" d="M 1959 3097 
Q 1497 3097 1228 2736 
Q 959 2375 959 1747 
Q 959 1119 1226 758 
Q 1494 397 1959 397 
Q 2419 397 2687 759 
Q 2956 1122 2956 1747 
Q 2956 2369 2687 2733 
Q 2419 3097 1959 3097 
z
M 1959 3584 
Q 2709 3584 3137 3096 
Q 3566 2609 3566 1747 
Q 3566 888 3137 398 
Q 2709 -91 1959 -91 
Q 1206 -91 779 398 
Q 353 888 353 1747 
Q 353 2609 779 3096 
Q 1206 3584 1959 3584 
z
" transform="scale(0.015625)"/>
       <path id="DejaVuSans-6c" d="M 603 4863 
L 1178 4863 
L 1178 0 
L 603 0 
L 603 4863 
z
" transform="scale(0.015625)"/>
       <path id="DejaVuSans-61" d="M 2194 1759 
Q 1497 1759 1228 1600 
Q 959 1441 959 1056 
Q 959 750 1161 570 
Q 1363 391 1709 391 
Q 2188 391 2477 730 
Q 2766 1069 2766 1631 
L 2766 1759 
L 2194 1759 
z
M 3341 1997 
L 3341 0 
L 2766 0 
L 2766 531 
Q 2569 213 2275 61 
Q 1981 -91 1556 -91 
Q 1019 -91 701 211 
Q 384 513 384 1019 
Q 384 1609 779 1909 
Q 1175 2209 1959 2209 
L 2766 2209 
L 2766 2266 
Q 2766 2663 2505 2880 
Q 2244 3097 1772 3097 
Q 1472 3097 1187 3025 
Q 903 2953 641 2809 
L 641 3341 
Q 956 3463 1253 3523 
Q 1550 3584 1831 3584 
Q 2591 3584 2966 3190 
Q 3341 2797 3341 1997 
z
" transform="scale(0.015625)"/>
       <path id="DejaVuSans-66" d="M 2375 4863 
L 2375 4384 
L 1825 4384 
Q 1516 4384 1395 4259 
Q 1275 4134 1275 3809 
L 1275 3500 
L 2222 3500 
L 2222 3053 
L 1275 3053 
L 1275 0 
L 697 0 
L 697 3053 
L 147 3053 
L 147 3500 
L 697 3500 
L 697 3744 
Q 697 4328 969 4595 
Q 1241 4863 1831 4863 
L 2375 4863 
z
" transform="scale(0.015625)"/>
       <path id="DejaVuSans-63" d="M 3122 3366 
L 3122 2828 
Q 2878 2963 2633 3030 
Q 2388 3097 2138 3097 
Q 1578 3097 1268 2742 
Q 959 2388 959 1747 
Q 959 1106 1268 751 
Q 1578 397 2138 397 
Q 2388 397 2633 464 
Q 2878 531 3122 666 
L 3122 134 
Q 2881 22 2623 -34 
Q 2366 -91 2075 -91 
Q 1284 -91 818 406 
Q 353 903 353 1747 
Q 353 2603 823 3093 
Q 1294 3584 2113 3584 
Q 2378 3584 2631 3529 
Q 2884 3475 3122 3366 
z
" transform="scale(0.015625)"/>
       <path id="DejaVuSans-74" d="M 1172 4494 
L 1172 3500 
L 2356 3500 
L 2356 3053 
L 1172 3053 
L 1172 1153 
Q 1172 725 1289 603 
Q 1406 481 1766 481 
L 2356 481 
L 2356 0 
L 1766 0 
Q 1100 0 847 248 
Q 594 497 594 1153 
L 594 3053 
L 172 3053 
L 172 3500 
L 594 3500 
L 594 4494 
L 1172 4494 
z
" transform="scale(0.015625)"/>
       <path id="DejaVuSans-69" d="M 603 3500 
L 1178 3500 
L 1178 0 
L 603 0 
L 603 3500 
z
M 603 4863 
L 1178 4863 
L 1178 4134 
L 603 4134 
L 603 4863 
z
" transform="scale(0.015625)"/>
       <path id="DejaVuSans-2c" d="M 750 794 
L 1409 794 
L 1409 256 
L 897 -744 
L 494 -744 
L 750 256 
L 750 794 
z
" transform="scale(0.015625)"/>
       <path id="DejaVuSans-Oblique-78" d="M 3841 3500 
L 2234 1784 
L 3219 0 
L 2559 0 
L 1819 1388 
L 531 0 
L -166 0 
L 1556 1844 
L 641 3500 
L 1300 3500 
L 1972 2234 
L 3144 3500 
L 3841 3500 
z
" transform="scale(0.015625)"/>
      </defs>
      <use xlink:href="#DejaVuSans-6d" transform="translate(0 0.015625)"/>
      <use xlink:href="#DejaVuSans-6f" transform="translate(97.412109 0.015625)"/>
      <use xlink:href="#DejaVuSans-6c" transform="translate(158.59375 0.015625)"/>
      <use xlink:href="#DejaVuSans-61" transform="translate(186.376953 0.015625)"/>
      <use xlink:href="#DejaVuSans-72" transform="translate(247.65625 0.015625)"/>
      <use xlink:href="#DejaVuSans-20" transform="translate(288.769531 0.015625)"/>
      <use xlink:href="#DejaVuSans-66" transform="translate(320.556641 0.015625)"/>
      <use xlink:href="#DejaVuSans-72" transform="translate(355.761719 0.015625)"/>
      <use xlink:href="#DejaVuSans-61" transform="translate(396.875 0.015625)"/>
      <use xlink:href="#DejaVuSans-63" transform="translate(458.154297 0.015625)"/>
      <use xlink:href="#DejaVuSans-74" transform="translate(513.134766 0.015625)"/>
      <use xlink:href="#DejaVuSans-69" transform="translate(552.34375 0.015625)"/>
      <use xlink:href="#DejaVuSans-6f" transform="translate(580.126953 0.015625)"/>
      <use xlink:href="#DejaVuSans-6e" transform="translate(641.308594 0.015625)"/>
      <use xlink:href="#DejaVuSans-2c" transform="translate(704.6875 0.015625)"/>
      <use xlink:href="#DejaVuSans-20" transform="translate(736.474609 0.015625)"/>
      <use xlink:href="#DejaVuSans-Oblique-78" transform="translate(768.261719 0.015625)"/>
      <use xlink:href="#DejaVuSans-Oblique-41" transform="translate(827.441406 -16.390625) scale(0.7)"/>
     </g>
    </g>
   </g>
   <g id="matplotlib.axis_4">
    <g id="ytick_9"/>
    <g id="ytick_10"/>
    <g id="ytick_11"/>
    <g id="ytick_12"/>
    <g id="ytick_13"/>
    <g id="text_13">
     <!-- Potential, $E^0$ -->
     <g transform="translate(23.552313 382.119) rotate(-90) scale(0.1 -0.1)">
      <defs>
       <path id="DejaVuSans-50" d="M 1259 4147 
L 1259 2394 
L 2053 2394 
Q 2494 2394 2734 2622 
Q 2975 2850 2975 3272 
Q 2975 3691 2734 3919 
Q 2494 4147 2053 4147 
L 1259 4147 
z
M 628 4666 
L 2053 4666 
Q 2838 4666 3239 4311 
Q 3641 3956 3641 3272 
Q 3641 2581 3239 2228 
Q 2838 1875 2053 1875 
L 1259 1875 
L 1259 0 
L 628 0 
L 628 4666 
z
" transform="scale(0.015625)"/>
       <path id="DejaVuSans-Oblique-45" d="M 1081 4666 
L 4031 4666 
L 3928 4134 
L 1606 4134 
L 1338 2753 
L 3566 2753 
L 3463 2222 
L 1234 2222 
L 909 531 
L 3284 531 
L 3181 0 
L 172 0 
L 1081 4666 
z
" transform="scale(0.015625)"/>
      </defs>
      <use xlink:href="#DejaVuSans-50" transform="translate(0 0.765625)"/>
      <use xlink:href="#DejaVuSans-6f" transform="translate(60.302734 0.765625)"/>
      <use xlink:href="#DejaVuSans-74" transform="translate(121.484375 0.765625)"/>
      <use xlink:href="#DejaVuSans-65" transform="translate(160.693359 0.765625)"/>
      <use xlink:href="#DejaVuSans-6e" transform="translate(222.216797 0.765625)"/>
      <use xlink:href="#DejaVuSans-74" transform="translate(285.595703 0.765625)"/>
      <use xlink:href="#DejaVuSans-69" transform="translate(324.804688 0.765625)"/>
      <use xlink:href="#DejaVuSans-61" transform="translate(352.587891 0.765625)"/>
      <use xlink:href="#DejaVuSans-6c" transform="translate(413.867188 0.765625)"/>
      <use xlink:href="#DejaVuSans-2c" transform="translate(441.650391 0.765625)"/>
      <use xlink:href="#DejaVuSans-20" transform="translate(473.4375 0.765625)"/>
      <use xlink:href="#DejaVuSans-Oblique-45" transform="translate(505.224609 0.765625)"/>
      <use xlink:href="#DejaVuSans-30" transform="translate(575.424974 39.046875) scale(0.7)"/>
     </g>
    </g>
   </g>
   <g id="line2d_18">
    <path d="M 37.694187 252.220818 
L 38.756375 267.815631 
L 39.818562 276.970851 
L 40.880749 283.489733 
L 41.942937 288.564177 
L 43.005124 292.725086 
L 44.067311 296.255665 
L 45.129499 299.324959 
L 46.191686 302.042008 
L 47.253874 304.481264 
L 48.316061 306.695833 
L 49.378248 308.724923 
L 50.440436 310.598314 
L 51.502623 312.339153 
L 52.56481 313.965788 
L 53.626998 315.493015 
L 54.689185 316.932932 
L 55.751372 318.295565 
L 56.81356 319.58931 
L 57.875747 320.821272 
L 58.937934 321.997514 
L 60.000122 323.123256 
L 61.062309 324.203018 
L 62.124497 325.240745 
L 63.186684 326.239899 
L 64.248871 327.203535 
L 65.311059 328.13436 
L 66.373246 329.03479 
L 67.435433 329.906982 
L 68.497621 330.752878 
L 69.559808 331.574226 
L 70.621995 332.372611 
L 71.684183 333.14947 
L 72.74637 333.90611 
L 73.808557 334.643728 
L 74.870745 335.363417 
L 75.932932 336.066183 
L 76.99512 336.752951 
L 78.057307 337.424572 
L 79.119494 338.081835 
L 80.181682 338.72547 
L 81.243869 339.356156 
L 82.306056 339.974521 
L 83.368244 340.581152 
L 84.430431 341.176598 
L 85.492618 341.761369 
L 86.554806 342.335945 
L 87.616993 342.900774 
L 88.67918 343.456278 
" clip-path="url(#p030240976b)" style="fill: none; stroke: #000000; stroke-width: 1.5; stroke-linecap: square"/>
   </g>
   <g id="line2d_19">
    <path d="M 88.67918 345.230212 
L 90.447145 345.230212 
L 92.215109 345.230212 
L 93.983074 345.230212 
L 95.751038 345.230212 
L 97.519002 345.230212 
L 99.286967 345.230212 
L 101.054931 345.230212 
L 102.822895 345.230212 
L 104.59086 345.230212 
L 106.358824 345.230212 
L 108.126789 345.230212 
L 109.894753 345.230212 
L 111.662717 345.230212 
L 113.430682 345.230212 
L 115.198646 345.230212 
L 116.96661 345.230212 
L 118.734575 345.230212 
L 120.502539 345.230212 
L 122.270504 345.230212 
L 124.038468 345.230212 
L 125.806432 345.230212 
L 127.574397 345.230212 
L 129.342361 345.230212 
L 131.110325 345.230212 
L 132.87829 345.230212 
L 134.646254 345.230212 
L 136.414219 345.230212 
L 138.182183 345.230212 
L 139.950147 345.230212 
L 141.718112 345.230212 
L 143.486076 345.230212 
L 145.25404 345.230212 
L 147.022005 345.230212 
L 148.789969 345.230212 
L 150.557934 345.230212 
L 152.325898 345.230212 
L 154.093862 345.230212 
L 155.861827 345.230212 
L 157.629791 345.230212 
L 159.397755 345.230212 
L 161.16572 345.230212 
L 162.933684 345.230212 
L 164.701649 345.230212 
L 166.469613 345.230212 
L 168.237577 345.230212 
L 170.005542 345.230212 
L 171.773506 345.230212 
L 173.54147 345.230212 
L 175.309435 345.230212 
" clip-path="url(#p030240976b)" style="fill: none; stroke: #000000; stroke-width: 1.5; stroke-linecap: square"/>
   </g>
   <g id="line2d_20">
    <g clip-path="url(#p030240976b)">
     <use xlink:href="#m37226fbd5e" x="175.309435" y="345.230212" style="stroke: #000000"/>
    </g>
   </g>
   <g id="line2d_21">
    <g clip-path="url(#p030240976b)">
     <use xlink:href="#m37226fbd5e" x="88.67918" y="345.230212" style="stroke: #000000"/>
    </g>
   </g>
   <g id="line2d_22">
    <path d="M 175.309435 345.230212 
L 178.696589 346.231968 
L 182.083744 347.230713 
L 185.470898 348.227451 
L 188.858052 349.223175 
L 192.245207 350.21887 
L 195.632361 351.215523 
L 199.019516 352.214124 
L 202.40667 353.215678 
L 205.793824 354.221206 
L 209.180979 355.231751 
L 212.568133 356.248392 
L 215.955288 357.272241 
L 219.342442 358.304461 
L 222.729596 359.346264 
L 226.116751 360.398933 
L 229.503905 361.46382 
L 232.891059 362.542367 
L 236.278214 363.636117 
L 239.665368 364.746729 
L 243.052523 365.875996 
L 246.439677 367.025869 
L 249.826831 368.198477 
L 253.213986 369.396162 
L 256.60114 370.621511 
L 259.988295 371.877396 
L 263.375449 373.16703 
L 266.762603 374.494024 
L 270.149758 375.862468 
L 273.536912 377.277019 
L 276.924067 378.743027 
L 280.311221 380.266682 
L 283.698375 381.855209 
L 287.08553 383.517121 
L 290.472684 385.262552 
L 293.859839 387.103709 
L 297.246993 389.055488 
L 300.634147 391.136337 
L 304.021302 393.369496 
L 307.408456 395.784835 
L 310.79561 398.421652 
L 314.182765 401.333134 
L 317.569919 404.593814 
L 320.957074 408.312811 
L 324.344228 412.659246 
L 327.731382 417.916393 
L 331.118537 424.615228 
L 334.505691 433.947718 
L 337.892846 449.717182 
" clip-path="url(#p030240976b)" style="fill: none; stroke: #000000; stroke-width: 1.5; stroke-linecap: square"/>
   </g>
   <g id="patch_10">
    <path d="M 36.632 459.592 
L 36.632 242.346 
" style="fill: none; stroke: #000000; stroke-width: 0.8; stroke-linejoin: miter; stroke-linecap: square"/>
   </g>
   <g id="patch_11">
    <path d="M 341.28 459.592 
L 341.28 242.346 
" style="fill: none; stroke: #000000; stroke-width: 0.8; stroke-linejoin: miter; stroke-linecap: square"/>
   </g>
   <g id="patch_12">
    <path d="M 36.632 459.592 
L 341.28 459.592 
" style="fill: none; stroke: #000000; stroke-width: 0.8; stroke-linejoin: miter; stroke-linecap: square"/>
   </g>
   <g id="patch_13">
    <path d="M 36.632 242.346 
L 341.28 242.346 
" style="fill: none; stroke: #000000; stroke-width: 0.8; stroke-linejoin: miter; stroke-linecap: square"/>
   </g>
  </g>
 </g>
 <defs>
  <clipPath id="pcb06e31615">
   <rect x="36.632" y="10.8" width="304.648" height="217.246"/>
  </clipPath>
  <clipPath id="p030240976b">
   <rect x="36.632" y="242.346" width="304.648" height="217.246"/>
  </clipPath>
 </defs>
</svg>
