<?xml version="1.0" encoding="utf-8" standalone="no"?>
<!DOCTYPE svg PUBLIC "-//W3C//DTD SVG 1.1//EN"
  "http://www.w3.org/Graphics/SVG/1.1/DTD/svg11.dtd">
<svg xmlns:xlink="http://www.w3.org/1999/xlink" width="360pt" height="504pt" viewBox="0 0 360 504" xmlns="http://www.w3.org/2000/svg" version="1.1">
 <metadata>
  <rdf:RDF xmlns:dc="http://purl.org/dc/elements/1.1/" xmlns:cc="http://creativecommons.org/ns#" xmlns:rdf="http://www.w3.org/1999/02/22-rdf-syntax-ns#">
   <cc:Work>
    <dc:type rdf:resource="http://purl.org/dc/dcmitype/StillImage"/>
    <dc:date>2024-09-17T22:55:47.887510</dc:date>
    <dc:format>image/svg+xml</dc:format>
    <dc:creator>
     <cc:Agent>
      <dc:title>Matplotlib v3.9.2, https://matplotlib.org/</dc:title>
     </cc:Agent>
    </dc:creator>
   </cc:Work>
  </rdf:RDF>
 </metadata>
 <defs>
  <style type="text/css">*{stroke-linejoin: round; stroke-linecap: butt}</style>
 </defs>
 <g id="figure_1">
  <g id="patch_1">
   <path d="M 0 504 
L 360 504 
L 360 0 
L 0 0 
z
" style="fill: #ffffff"/>
  </g>
  <g id="axes_1">
   <g id="patch_2">
    <path d="M 36.471864 225.994091 
L 323.528136 225.994091 
L 323.528136 10.8 
L 36.471864 10.8 
z
" style="fill: #ffffff"/>
   </g>
   <g id="matplotlib.axis_1">
    <g id="xtick_1">
     <g id="line2d_1">
      <defs>
       <path id="m51d8b4764d" d="M 0 0 
L 0 3.5 
" style="stroke: #000000; stroke-width: 0.8"/>
      </defs>
      <g>
       <use xlink:href="#m51d8b4764d" x="36.471864" y="225.994091" style="stroke: #000000; stroke-width: 0.8"/>
      </g>
     </g>
    </g>
    <g id="xtick_2">
     <g id="line2d_2">
      <g>
       <use xlink:href="#m51d8b4764d" x="93.883119" y="225.994091" style="stroke: #000000; stroke-width: 0.8"/>
      </g>
     </g>
    </g>
    <g id="xtick_3">
     <g id="line2d_3">
      <g>
       <use xlink:href="#m51d8b4764d" x="151.294373" y="225.994091" style="stroke: #000000; stroke-width: 0.8"/>
      </g>
     </g>
    </g>
    <g id="xtick_4">
     <g id="line2d_4">
      <g>
       <use xlink:href="#m51d8b4764d" x="208.705627" y="225.994091" style="stroke: #000000; stroke-width: 0.8"/>
      </g>
     </g>
    </g>
    <g id="xtick_5">
     <g id="line2d_5">
      <g>
       <use xlink:href="#m51d8b4764d" x="266.116881" y="225.994091" style="stroke: #000000; stroke-width: 0.8"/>
      </g>
     </g>
    </g>
    <g id="xtick_6">
     <g id="line2d_6">
      <g>
       <use xlink:href="#m51d8b4764d" x="323.528136" y="225.994091" style="stroke: #000000; stroke-width: 0.8"/>
      </g>
     </g>
    </g>
   </g>
   <g id="matplotlib.axis_2">
    <g id="ytick_1"/>
    <g id="ytick_2"/>
    <g id="ytick_3"/>
    <g id="ytick_4"/>
    <g id="ytick_5"/>
    <g id="ytick_6"/>
    <g id="ytick_7"/>
    <g id="ytick_8"/>
    <g id="text_1">
     <!-- Free energy -->
     <g transform="translate(23.392177 148.01892) rotate(-90) scale(0.1 -0.1)">
      <defs>
       <path id="DejaVuSans-46" d="M 628 4666 
L 3309 4666 
L 3309 4134 
L 1259 4134 
L 1259 2759 
L 3109 2759 
L 3109 2228 
L 1259 2228 
L 1259 0 
L 628 0 
L 628 4666 
z
" transform="scale(0.015625)"/>
       <path id="DejaVuSans-72" d="M 2631 2963 
Q 2534 3019 2420 3045 
Q 2306 3072 2169 3072 
Q 1681 3072 1420 2755 
Q 1159 2438 1159 1844 
L 1159 0 
L 581 0 
L 581 3500 
L 1159 3500 
L 1159 2956 
Q 1341 3275 1631 3429 
Q 1922 3584 2338 3584 
Q 2397 3584 2469 3576 
Q 2541 3569 2628 3553 
L 2631 2963 
z
" transform="scale(0.015625)"/>
       <path id="DejaVuSans-65" d="M 3597 1894 
L 3597 1613 
L 953 1613 
Q 991 1019 1311 708 
Q 1631 397 2203 397 
Q 2534 397 2845 478 
Q 3156 559 3463 722 
L 3463 178 
Q 3153 47 2828 -22 
Q 2503 -91 2169 -91 
Q 1331 -91 842 396 
Q 353 884 353 1716 
Q 353 2575 817 3079 
Q 1281 3584 2069 3584 
Q 2775 3584 3186 3129 
Q 3597 2675 3597 1894 
z
M 3022 2063 
Q 3016 2534 2758 2815 
Q 2500 3097 2075 3097 
Q 1594 3097 1305 2825 
Q 1016 2553 972 2059 
L 3022 2063 
z
" transform="scale(0.015625)"/>
       <path id="DejaVuSans-20" transform="scale(0.015625)"/>
       <path id="DejaVuSans-6e" d="M 3513 2113 
L 3513 0 
L 2938 0 
L 2938 2094 
Q 2938 2591 2744 2837 
Q 2550 3084 2163 3084 
Q 1697 3084 1428 2787 
Q 1159 2491 1159 1978 
L 1159 0 
L 581 0 
L 581 3500 
L 1159 3500 
L 1159 2956 
Q 1366 3272 1645 3428 
Q 1925 3584 2291 3584 
Q 2894 3584 3203 3211 
Q 3513 2838 3513 2113 
z
" transform="scale(0.015625)"/>
       <path id="DejaVuSans-67" d="M 2906 1791 
Q 2906 2416 2648 2759 
Q 2391 3103 1925 3103 
Q 1463 3103 1205 2759 
Q 947 2416 947 1791 
Q 947 1169 1205 825 
Q 1463 481 1925 481 
Q 2391 481 2648 825 
Q 2906 1169 2906 1791 
z
M 3481 434 
Q 3481 -459 3084 -895 
Q 2688 -1331 1869 -1331 
Q 1566 -1331 1297 -1286 
Q 1028 -1241 775 -1147 
L 775 -588 
Q 1028 -725 1275 -790 
Q 1522 -856 1778 -856 
Q 2344 -856 2625 -561 
Q 2906 -266 2906 331 
L 2906 616 
Q 2728 306 2450 153 
Q 2172 0 1784 0 
Q 1141 0 747 490 
Q 353 981 353 1791 
Q 353 2603 747 3093 
Q 1141 3584 1784 3584 
Q 2172 3584 2450 3431 
Q 2728 3278 2906 2969 
L 2906 3500 
L 3481 3500 
L 3481 434 
z
" transform="scale(0.015625)"/>
       <path id="DejaVuSans-79" d="M 2059 -325 
Q 1816 -950 1584 -1140 
Q 1353 -1331 966 -1331 
L 506 -1331 
L 506 -850 
L 844 -850 
Q 1081 -850 1212 -737 
Q 1344 -625 1503 -206 
L 1606 56 
L 191 3500 
L 800 3500 
L 1894 763 
L 2988 3500 
L 3597 3500 
L 2059 -325 
z
" transform="scale(0.015625)"/>
      </defs>
      <use xlink:href="#DejaVuSans-46"/>
      <use xlink:href="#DejaVuSans-72" x="50.269531"/>
      <use xlink:href="#DejaVuSans-65" x="89.132812"/>
      <use xlink:href="#DejaVuSans-65" x="150.65625"/>
      <use xlink:href="#DejaVuSans-20" x="212.179688"/>
      <use xlink:href="#DejaVuSans-65" x="243.966797"/>
      <use xlink:href="#DejaVuSans-6e" x="305.490234"/>
      <use xlink:href="#DejaVuSans-65" x="368.869141"/>
      <use xlink:href="#DejaVuSans-72" x="430.392578"/>
      <use xlink:href="#DejaVuSans-67" x="469.755859"/>
      <use xlink:href="#DejaVuSans-79" x="533.232422"/>
     </g>
    </g>
   </g>
   <g id="line2d_7">
    <path d="M 37.189505 127.173099 
L 38.624786 130.261604 
L 40.777708 134.162557 
L 42.93063 137.602829 
L 45.801193 141.734979 
L 48.671756 145.493308 
L 52.259959 149.79442 
L 55.848163 153.744799 
L 60.154007 158.108019 
L 64.459851 162.125539 
L 68.765695 165.846133 
L 73.071539 169.30529 
L 78.095024 173.046139 
L 83.118508 176.500565 
L 88.141993 179.694192 
L 93.165478 182.64743 
L 98.906603 185.749331 
L 104.647729 188.578985 
L 110.388854 191.152829 
L 116.12998 193.484413 
L 121.871105 195.585003 
L 127.61223 197.464012 
L 133.353356 199.12933 
L 139.094481 200.587564 
L 145.553247 201.987367 
L 152.012014 203.138434 
L 158.47078 204.045835 
L 164.929546 204.713448 
L 171.388312 205.144059 
L 177.847078 205.339438 
L 184.305844 205.300379 
L 190.76461 205.026726 
L 197.223376 204.51736 
L 203.682142 203.770179 
L 210.140909 202.782044 
L 216.599675 201.548691 
L 223.058441 200.064622 
L 228.799566 198.529433 
L 234.540692 196.784819 
L 240.281817 194.823717 
L 246.022942 192.6377 
L 251.764068 190.2167 
L 257.505193 187.548655 
L 263.246319 184.619013 
L 268.987444 181.410053 
L 274.010929 178.356019 
L 279.034414 175.053386 
L 284.057898 171.479714 
L 289.081383 167.606546 
L 293.387227 164.020491 
L 297.693071 160.156555 
L 301.998915 155.97339 
L 305.587119 152.202202 
L 309.175322 148.120504 
L 312.763526 143.65433 
L 315.634088 139.723279 
L 318.504651 135.349779 
L 320.657573 131.630794 
L 322.092854 128.793394 
L 322.810495 127.173099 
L 322.810495 127.173099 
" clip-path="url(#pb821c52752)" style="fill: none; stroke: #ff0000; stroke-width: 1.5; stroke-linecap: square"/>
   </g>
   <g id="line2d_8">
    <path d="M 37.189505 172.636878 
L 38.624786 174.961286 
L 40.060068 176.861749 
L 42.21299 179.284239 
L 44.365912 181.366572 
L 47.236474 183.769429 
L 50.107037 185.84795 
L 52.9776 187.668899 
L 56.565803 189.647123 
L 60.154007 191.346244 
L 63.74221 192.805673 
L 67.330413 194.054266 
L 71.636258 195.304931 
L 75.942102 196.312871 
L 80.247946 197.10091 
L 84.55379 197.687239 
L 89.577274 198.13595 
L 94.600759 198.349352 
L 99.624244 198.343111 
L 104.647729 198.130199 
L 110.388854 197.647654 
L 116.12998 196.92285 
L 121.871105 195.967051 
L 127.61223 194.789672 
L 133.353356 193.398601 
L 139.094481 191.800447 
L 145.553247 189.761813 
L 152.012014 187.474443 
L 158.47078 184.943407 
L 164.929546 182.172582 
L 171.388312 179.164756 
L 177.847078 175.921698 
L 184.305844 172.444203 
L 190.76461 168.732112 
L 197.223376 164.784309 
L 203.682142 160.598692 
L 210.140909 156.172119 
L 216.599675 151.500329 
L 223.058441 146.577823 
L 229.517207 141.397706 
L 235.975973 135.95147 
L 242.434739 130.22871 
L 248.893505 124.216727 
L 255.352271 117.9 
L 261.811037 111.259434 
L 268.269803 104.271291 
L 274.010929 97.743772 
L 279.752054 90.891409 
L 285.49318 83.680063 
L 290.516665 77.040636 
L 295.540149 70.051835 
L 300.563634 62.658356 
L 304.869478 55.939116 
L 309.175322 48.787878 
L 312.763526 42.41146 
L 316.351729 35.5248 
L 319.222292 29.48125 
L 321.375214 24.434152 
L 322.810495 20.58155 
L 322.810495 20.58155 
" clip-path="url(#pb821c52752)" style="fill: none; stroke: #0000ff; stroke-width: 1.5; stroke-linecap: square"/>
   </g>
   <g id="line2d_9">
    <path d="M 36.471864 195.424796 
L 323.528136 216.212541 
L 323.528136 216.212541 
" clip-path="url(#pb821c52752)" style="fill: none; stroke-dasharray: 2.775,1.2; stroke-dashoffset: 0; stroke: #000000; stroke-width: 0.75"/>
   </g>
   <g id="line2d_10">
    <defs>
     <path id="m3670adcd7b" d="M 0 3 
C 0.795609 3 1.55874 2.683901 2.12132 2.12132 
C 2.683901 1.55874 3 0.795609 3 0 
C 3 -0.795609 2.683901 -1.55874 2.12132 -2.12132 
C 1.55874 -2.683901 0.795609 -3 0 -3 
C -0.795609 -3 -1.55874 -2.683901 -2.12132 -2.12132 
C -2.683901 -1.55874 -3 -0.795609 -3 0 
C -3 0.795609 -2.683901 1.55874 -2.12132 2.12132 
C -1.55874 2.683901 -0.795609 3 0 3 
z
" style="stroke: #000000"/>
    </defs>
    <g clip-path="url(#pb821c52752)">
     <use xlink:href="#m3670adcd7b" x="167.141448" y="204.887492" style="stroke: #000000"/>
    </g>
   </g>
   <g id="line2d_11">
    <g clip-path="url(#pb821c52752)">
     <use xlink:href="#m3670adcd7b" x="85.513609" y="197.791995" style="stroke: #000000"/>
    </g>
   </g>
   <g id="patch_3">
    <path d="M 36.471864 225.994091 
L 36.471864 10.8 
" style="fill: none; stroke: #000000; stroke-width: 0.8; stroke-linejoin: miter; stroke-linecap: square"/>
   </g>
   <g id="patch_4">
    <path d="M 323.528136 225.994091 
L 323.528136 10.8 
" style="fill: none; stroke: #000000; stroke-width: 0.8; stroke-linejoin: miter; stroke-linecap: square"/>
   </g>
   <g id="patch_5">
    <path d="M 36.471864 225.994091 
L 323.528136 225.994091 
" style="fill: none; stroke: #000000; stroke-width: 0.8; stroke-linejoin: miter; stroke-linecap: square"/>
   </g>
   <g id="patch_6">
    <path d="M 36.471864 10.8 
L 323.528136 10.8 
" style="fill: none; stroke: #000000; stroke-width: 0.8; stroke-linejoin: miter; stroke-linecap: square"/>
   </g>
   <g id="text_2">
    <!--  $G_{AB}^{\alpha}$ -->
    <g style="fill: #ff0000" transform="translate(93.883119 183.050704) scale(0.16 -0.16)">
     <defs>
      <path id="DejaVuSans-Oblique-47" d="M 3494 697 
L 3738 1919 
L 2700 1919 
L 2797 2438 
L 4453 2438 
L 4050 384 
Q 3634 156 3143 32 
Q 2653 -91 2156 -91 
Q 1278 -91 783 396 
Q 288 884 288 1753 
Q 288 2475 589 3126 
Q 891 3778 1422 4213 
Q 1756 4484 2153 4617 
Q 2550 4750 3034 4750 
Q 3472 4750 3873 4639 
Q 4275 4528 4641 4306 
L 4513 3634 
Q 4231 3928 3853 4083 
Q 3475 4238 3047 4238 
Q 2550 4238 2172 4048 
Q 1794 3859 1497 3463 
Q 1244 3125 1098 2667 
Q 953 2209 953 1734 
Q 953 1081 1287 751 
Q 1622 422 2284 422 
Q 2616 422 2925 492 
Q 3234 563 3494 697 
z
" transform="scale(0.015625)"/>
      <path id="DejaVuSans-Oblique-3b1" d="M 2619 1628 
L 2622 2350 
Q 2625 3088 2069 3091 
Q 1653 3094 1394 2747 
Q 1069 2319 959 1747 
Q 825 1059 994 731 
Q 1169 397 1547 397 
Q 1966 397 2319 1063 
L 2619 1628 
z
M 2166 3578 
Q 3141 3594 3128 2584 
Q 3128 2584 3616 3500 
L 4128 3500 
L 3119 1603 
L 3109 919 
Q 3109 766 3194 638 
Q 3291 488 3391 488 
L 3669 488 
L 3575 0 
L 3228 0 
Q 2934 0 2722 263 
Q 2622 394 2619 669 
Q 2416 334 2066 50 
Q 1900 -81 1453 -78 
Q 722 -72 456 397 
Q 184 884 353 1747 
Q 534 2675 1009 3097 
Q 1544 3569 2166 3578 
z
" transform="scale(0.015625)"/>
      <path id="DejaVuSans-Oblique-41" d="M 2356 4666 
L 3072 4666 
L 3938 0 
L 3278 0 
L 3084 1197 
L 984 1197 
L 325 0 
L -341 0 
L 2356 4666 
z
M 2584 4044 
L 1275 1722 
L 2988 1722 
L 2584 4044 
z
" transform="scale(0.015625)"/>
      <path id="DejaVuSans-Oblique-42" d="M 1081 4666 
L 2694 4666 
Q 3350 4666 3675 4422 
Q 4000 4178 4000 3688 
Q 4000 3238 3720 2911 
Q 3441 2584 2988 2516 
Q 3375 2428 3569 2181 
Q 3763 1934 3763 1522 
Q 3763 819 3242 409 
Q 2722 0 1819 0 
L 172 0 
L 1081 4666 
z
M 1234 2228 
L 903 519 
L 1919 519 
Q 2491 519 2800 781 
Q 3109 1044 3109 1522 
Q 3109 1891 2904 2059 
Q 2700 2228 2247 2228 
L 1234 2228 
z
M 1606 4147 
L 1331 2741 
L 2272 2741 
Q 2775 2741 3058 2959 
Q 3341 3178 3341 3566 
Q 3341 3869 3150 4008 
Q 2959 4147 2541 4147 
L 1606 4147 
z
" transform="scale(0.015625)"/>
     </defs>
     <use xlink:href="#DejaVuSans-20" transform="translate(0 0.409375)"/>
     <use xlink:href="#DejaVuSans-Oblique-47" transform="translate(31.787109 0.409375)"/>
     <use xlink:href="#DejaVuSans-Oblique-3b1" transform="translate(116.477865 38.690625) scale(0.7)"/>
     <use xlink:href="#DejaVuSans-Oblique-41" transform="translate(109.277344 -26.934375) scale(0.7)"/>
     <use xlink:href="#DejaVuSans-Oblique-42" transform="translate(157.163086 -26.934375) scale(0.7)"/>
    </g>
   </g>
   <g id="text_3">
    <!-- $G_{AB}^{\beta}$   -->
    <g style="fill: #0000ff" transform="translate(227.716881 106.640991) scale(0.16 -0.16)">
     <defs>
      <path id="DejaVuSans-Oblique-3b2" d="M 872 216 
L 572 -1331 
L -6 -1331 
L 928 3478 
Q 1206 4903 2538 4903 
Q 3888 4903 3659 3700 
Q 3503 2844 2894 2531 
Q 3713 2250 3553 1416 
Q 3272 -69 1759 -66 
Q 1097 -63 872 216 
z
M 1019 966 
Q 1259 422 1875 425 
Q 2775 425 2966 1406 
Q 3138 2288 1675 2219 
L 1778 2750 
Q 2909 2731 3106 3750 
Q 3241 4438 2509 4434 
Q 1691 4434 1503 3459 
L 1019 966 
z
" transform="scale(0.015625)"/>
     </defs>
     <use xlink:href="#DejaVuSans-Oblique-47" transform="translate(0 0.625)"/>
     <use xlink:href="#DejaVuSans-Oblique-3b2" transform="translate(84.690755 51.373438) scale(0.7)"/>
     <use xlink:href="#DejaVuSans-Oblique-41" transform="translate(77.490234 -26.71875) scale(0.7)"/>
     <use xlink:href="#DejaVuSans-Oblique-42" transform="translate(125.375977 -26.71875) scale(0.7)"/>
     <use xlink:href="#DejaVuSans-20" transform="translate(176.132812 0.625)"/>
     <use xlink:href="#DejaVuSans-20" transform="translate(207.919922 0.625)"/>
    </g>
   </g>
  </g>
  <g id="axes_2">
   <g id="patch_7">
    <path d="M 36.471864 459.592 
L 323.528136 459.592 
L 323.528136 244.397909 
L 36.471864 244.397909 
z
" style="fill: #ffffff"/>
   </g>
   <g id="patch_8">
    <path d="M 167.141448 204.887492 
Q 167.141448 298.004322 167.141448 391.121153 
" style="fill: none; stroke: #000000; stroke-linecap: round"/>
   </g>
   <g id="patch_9">
    <path d="M 85.513609 197.791995 
Q 85.513609 294.456574 85.513609 391.121153 
" style="fill: none; stroke: #000000; stroke-linecap: round"/>
   </g>
   <g id="matplotlib.axis_3">
    <g id="xtick_7">
     <g id="line2d_12">
      <g>
       <use xlink:href="#m51d8b4764d" x="36.471864" y="459.592" style="stroke: #000000; stroke-width: 0.8"/>
      </g>
     </g>
     <g id="text_4">
      <!-- 0.0 -->
      <g transform="translate(28.520302 474.190438) scale(0.1 -0.1)">
       <defs>
        <path id="DejaVuSans-30" d="M 2034 4250 
Q 1547 4250 1301 3770 
Q 1056 3291 1056 2328 
Q 1056 1369 1301 889 
Q 1547 409 2034 409 
Q 2525 409 2770 889 
Q 3016 1369 3016 2328 
Q 3016 3291 2770 3770 
Q 2525 4250 2034 4250 
z
M 2034 4750 
Q 2819 4750 3233 4129 
Q 3647 3509 3647 2328 
Q 3647 1150 3233 529 
Q 2819 -91 2034 -91 
Q 1250 -91 836 529 
Q 422 1150 422 2328 
Q 422 3509 836 4129 
Q 1250 4750 2034 4750 
z
" transform="scale(0.015625)"/>
        <path id="DejaVuSans-2e" d="M 684 794 
L 1344 794 
L 1344 0 
L 684 0 
L 684 794 
z
" transform="scale(0.015625)"/>
       </defs>
       <use xlink:href="#DejaVuSans-30"/>
       <use xlink:href="#DejaVuSans-2e" x="63.623047"/>
       <use xlink:href="#DejaVuSans-30" x="95.410156"/>
      </g>
     </g>
    </g>
    <g id="xtick_8">
     <g id="line2d_13">
      <g>
       <use xlink:href="#m51d8b4764d" x="93.883119" y="459.592" style="stroke: #000000; stroke-width: 0.8"/>
      </g>
     </g>
     <g id="text_5">
      <!-- 0.2 -->
      <g transform="translate(85.931556 474.190438) scale(0.1 -0.1)">
       <defs>
        <path id="DejaVuSans-32" d="M 1228 531 
L 3431 531 
L 3431 0 
L 469 0 
L 469 531 
Q 828 903 1448 1529 
Q 2069 2156 2228 2338 
Q 2531 2678 2651 2914 
Q 2772 3150 2772 3378 
Q 2772 3750 2511 3984 
Q 2250 4219 1831 4219 
Q 1534 4219 1204 4116 
Q 875 4013 500 3803 
L 500 4441 
Q 881 4594 1212 4672 
Q 1544 4750 1819 4750 
Q 2544 4750 2975 4387 
Q 3406 4025 3406 3419 
Q 3406 3131 3298 2873 
Q 3191 2616 2906 2266 
Q 2828 2175 2409 1742 
Q 1991 1309 1228 531 
z
" transform="scale(0.015625)"/>
       </defs>
       <use xlink:href="#DejaVuSans-30"/>
       <use xlink:href="#DejaVuSans-2e" x="63.623047"/>
       <use xlink:href="#DejaVuSans-32" x="95.410156"/>
      </g>
     </g>
    </g>
    <g id="xtick_9">
     <g id="line2d_14">
      <g>
       <use xlink:href="#m51d8b4764d" x="151.294373" y="459.592" style="stroke: #000000; stroke-width: 0.8"/>
      </g>
     </g>
     <g id="text_6">
      <!-- 0.4 -->
      <g transform="translate(143.34281 474.190438) scale(0.1 -0.1)">
       <defs>
        <path id="DejaVuSans-34" d="M 2419 4116 
L 825 1625 
L 2419 1625 
L 2419 4116 
z
M 2253 4666 
L 3047 4666 
L 3047 1625 
L 3713 1625 
L 3713 1100 
L 3047 1100 
L 3047 0 
L 2419 0 
L 2419 1100 
L 313 1100 
L 313 1709 
L 2253 4666 
z
" transform="scale(0.015625)"/>
       </defs>
       <use xlink:href="#DejaVuSans-30"/>
       <use xlink:href="#DejaVuSans-2e" x="63.623047"/>
       <use xlink:href="#DejaVuSans-34" x="95.410156"/>
      </g>
     </g>
    </g>
    <g id="xtick_10">
     <g id="line2d_15">
      <g>
       <use xlink:href="#m51d8b4764d" x="208.705627" y="459.592" style="stroke: #000000; stroke-width: 0.8"/>
      </g>
     </g>
     <g id="text_7">
      <!-- 0.6 -->
      <g transform="translate(200.754065 474.190438) scale(0.1 -0.1)">
       <defs>
        <path id="DejaVuSans-36" d="M 2113 2584 
Q 1688 2584 1439 2293 
Q 1191 2003 1191 1497 
Q 1191 994 1439 701 
Q 1688 409 2113 409 
Q 2538 409 2786 701 
Q 3034 994 3034 1497 
Q 3034 2003 2786 2293 
Q 2538 2584 2113 2584 
z
M 3366 4563 
L 3366 3988 
Q 3128 4100 2886 4159 
Q 2644 4219 2406 4219 
Q 1781 4219 1451 3797 
Q 1122 3375 1075 2522 
Q 1259 2794 1537 2939 
Q 1816 3084 2150 3084 
Q 2853 3084 3261 2657 
Q 3669 2231 3669 1497 
Q 3669 778 3244 343 
Q 2819 -91 2113 -91 
Q 1303 -91 875 529 
Q 447 1150 447 2328 
Q 447 3434 972 4092 
Q 1497 4750 2381 4750 
Q 2619 4750 2861 4703 
Q 3103 4656 3366 4563 
z
" transform="scale(0.015625)"/>
       </defs>
       <use xlink:href="#DejaVuSans-30"/>
       <use xlink:href="#DejaVuSans-2e" x="63.623047"/>
       <use xlink:href="#DejaVuSans-36" x="95.410156"/>
      </g>
     </g>
    </g>
    <g id="xtick_11">
     <g id="line2d_16">
      <g>
       <use xlink:href="#m51d8b4764d" x="266.116881" y="459.592" style="stroke: #000000; stroke-width: 0.8"/>
      </g>
     </g>
     <g id="text_8">
      <!-- 0.8 -->
      <g transform="translate(258.165319 474.190438) scale(0.1 -0.1)">
       <defs>
        <path id="DejaVuSans-38" d="M 2034 2216 
Q 1584 2216 1326 1975 
Q 1069 1734 1069 1313 
Q 1069 891 1326 650 
Q 1584 409 2034 409 
Q 2484 409 2743 651 
Q 3003 894 3003 1313 
Q 3003 1734 2745 1975 
Q 2488 2216 2034 2216 
z
M 1403 2484 
Q 997 2584 770 2862 
Q 544 3141 544 3541 
Q 544 4100 942 4425 
Q 1341 4750 2034 4750 
Q 2731 4750 3128 4425 
Q 3525 4100 3525 3541 
Q 3525 3141 3298 2862 
Q 3072 2584 2669 2484 
Q 3125 2378 3379 2068 
Q 3634 1759 3634 1313 
Q 3634 634 3220 271 
Q 2806 -91 2034 -91 
Q 1263 -91 848 271 
Q 434 634 434 1313 
Q 434 1759 690 2068 
Q 947 2378 1403 2484 
z
M 1172 3481 
Q 1172 3119 1398 2916 
Q 1625 2713 2034 2713 
Q 2441 2713 2670 2916 
Q 2900 3119 2900 3481 
Q 2900 3844 2670 4047 
Q 2441 4250 2034 4250 
Q 1625 4250 1398 4047 
Q 1172 3844 1172 3481 
z
" transform="scale(0.015625)"/>
       </defs>
       <use xlink:href="#DejaVuSans-30"/>
       <use xlink:href="#DejaVuSans-2e" x="63.623047"/>
       <use xlink:href="#DejaVuSans-38" x="95.410156"/>
      </g>
     </g>
    </g>
    <g id="xtick_12">
     <g id="line2d_17">
      <g>
       <use xlink:href="#m51d8b4764d" x="323.528136" y="459.592" style="stroke: #000000; stroke-width: 0.8"/>
      </g>
     </g>
     <g id="text_9">
      <!-- 1.0 -->
      <g transform="translate(315.576573 474.190438) scale(0.1 -0.1)">
       <defs>
        <path id="DejaVuSans-31" d="M 794 531 
L 1825 531 
L 1825 4091 
L 703 3866 
L 703 4441 
L 1819 4666 
L 2450 4666 
L 2450 531 
L 3481 531 
L 3481 0 
L 794 0 
L 794 531 
z
" transform="scale(0.015625)"/>
       </defs>
       <use xlink:href="#DejaVuSans-31"/>
       <use xlink:href="#DejaVuSans-2e" x="63.623047"/>
       <use xlink:href="#DejaVuSans-30" x="95.410156"/>
      </g>
     </g>
    </g>
    <g id="text_10">
     <!-- molar fraction, $x_A$ -->
     <g transform="translate(136.05 487.868563) scale(0.1 -0.1)">
      <defs>
       <path id="DejaVuSans-6d" d="M 3328 2828 
Q 3544 3216 3844 3400 
Q 4144 3584 4550 3584 
Q 5097 3584 5394 3201 
Q 5691 2819 5691 2113 
L 5691 0 
L 5113 0 
L 5113 2094 
Q 5113 2597 4934 2840 
Q 4756 3084 4391 3084 
Q 3944 3084 3684 2787 
Q 3425 2491 3425 1978 
L 3425 0 
L 2847 0 
L 2847 2094 
Q 2847 2600 2669 2842 
Q 2491 3084 2119 3084 
Q 1678 3084 1418 2786 
Q 1159 2488 1159 1978 
L 1159 0 
L 581 0 
L 581 3500 
L 1159 3500 
L 1159 2956 
Q 1356 3278 1631 3431 
Q 1906 3584 2284 3584 
Q 2666 3584 2933 3390 
Q 3200 3197 3328 2828 
z
" transform="scale(0.015625)"/>
       <path id="DejaVuSans-6f" d="M 1959 3097 
Q 1497 3097 1228 2736 
Q 959 2375 959 1747 
Q 959 1119 1226 758 
Q 1494 397 1959 397 
Q 2419 397 2687 759 
Q 2956 1122 2956 1747 
Q 2956 2369 2687 2733 
Q 2419 3097 1959 3097 
z
M 1959 3584 
Q 2709 3584 3137 3096 
Q 3566 2609 3566 1747 
Q 3566 888 3137 398 
Q 2709 -91 1959 -91 
Q 1206 -91 779 398 
Q 353 888 353 1747 
Q 353 2609 779 3096 
Q 1206 3584 1959 3584 
z
" transform="scale(0.015625)"/>
       <path id="DejaVuSans-6c" d="M 603 4863 
L 1178 4863 
L 1178 0 
L 603 0 
L 603 4863 
z
" transform="scale(0.015625)"/>
       <path id="DejaVuSans-61" d="M 2194 1759 
Q 1497 1759 1228 1600 
Q 959 1441 959 1056 
Q 959 750 1161 570 
Q 1363 391 1709 391 
Q 2188 391 2477 730 
Q 2766 1069 2766 1631 
L 2766 1759 
L 2194 1759 
z
M 3341 1997 
L 3341 0 
L 2766 0 
L 2766 531 
Q 2569 213 2275 61 
Q 1981 -91 1556 -91 
Q 1019 -91 701 211 
Q 384 513 384 1019 
Q 384 1609 779 1909 
Q 1175 2209 1959 2209 
L 2766 2209 
L 2766 2266 
Q 2766 2663 2505 2880 
Q 2244 3097 1772 3097 
Q 1472 3097 1187 3025 
Q 903 2953 641 2809 
L 641 3341 
Q 956 3463 1253 3523 
Q 1550 3584 1831 3584 
Q 2591 3584 2966 3190 
Q 3341 2797 3341 1997 
z
" transform="scale(0.015625)"/>
       <path id="DejaVuSans-66" d="M 2375 4863 
L 2375 4384 
L 1825 4384 
Q 1516 4384 1395 4259 
Q 1275 4134 1275 3809 
L 1275 3500 
L 2222 3500 
L 2222 3053 
L 1275 3053 
L 1275 0 
L 697 0 
L 697 3053 
L 147 3053 
L 147 3500 
L 697 3500 
L 697 3744 
Q 697 4328 969 4595 
Q 1241 4863 1831 4863 
L 2375 4863 
z
" transform="scale(0.015625)"/>
       <path id="DejaVuSans-63" d="M 3122 3366 
L 3122 2828 
Q 2878 2963 2633 3030 
Q 2388 3097 2138 3097 
Q 1578 3097 1268 2742 
Q 959 2388 959 1747 
Q 959 1106 1268 751 
Q 1578 397 2138 397 
Q 2388 397 2633 464 
Q 2878 531 3122 666 
L 3122 134 
Q 2881 22 2623 -34 
Q 2366 -91 2075 -91 
Q 1284 -91 818 406 
Q 353 903 353 1747 
Q 353 2603 823 3093 
Q 1294 3584 2113 3584 
Q 2378 3584 2631 3529 
Q 2884 3475 3122 3366 
z
" transform="scale(0.015625)"/>
       <path id="DejaVuSans-74" d="M 1172 4494 
L 1172 3500 
L 2356 3500 
L 2356 3053 
L 1172 3053 
L 1172 1153 
Q 1172 725 1289 603 
Q 1406 481 1766 481 
L 2356 481 
L 2356 0 
L 1766 0 
Q 1100 0 847 248 
Q 594 497 594 1153 
L 594 3053 
L 172 3053 
L 172 3500 
L 594 3500 
L 594 4494 
L 1172 4494 
z
" transform="scale(0.015625)"/>
       <path id="DejaVuSans-69" d="M 603 3500 
L 1178 3500 
L 1178 0 
L 603 0 
L 603 3500 
z
M 603 4863 
L 1178 4863 
L 1178 4134 
L 603 4134 
L 603 4863 
z
" transform="scale(0.015625)"/>
       <path id="DejaVuSans-2c" d="M 750 794 
L 1409 794 
L 1409 256 
L 897 -744 
L 494 -744 
L 750 256 
L 750 794 
z
" transform="scale(0.015625)"/>
       <path id="DejaVuSans-Oblique-78" d="M 3841 3500 
L 2234 1784 
L 3219 0 
L 2559 0 
L 1819 1388 
L 531 0 
L -166 0 
L 1556 1844 
L 641 3500 
L 1300 3500 
L 1972 2234 
L 3144 3500 
L 3841 3500 
z
" transform="scale(0.015625)"/>
      </defs>
      <use xlink:href="#DejaVuSans-6d" transform="translate(0 0.015625)"/>
      <use xlink:href="#DejaVuSans-6f" transform="translate(97.412109 0.015625)"/>
      <use xlink:href="#DejaVuSans-6c" transform="translate(158.59375 0.015625)"/>
      <use xlink:href="#DejaVuSans-61" transform="translate(186.376953 0.015625)"/>
      <use xlink:href="#DejaVuSans-72" transform="translate(247.65625 0.015625)"/>
      <use xlink:href="#DejaVuSans-20" transform="translate(288.769531 0.015625)"/>
      <use xlink:href="#DejaVuSans-66" transform="translate(320.556641 0.015625)"/>
      <use xlink:href="#DejaVuSans-72" transform="translate(355.761719 0.015625)"/>
      <use xlink:href="#DejaVuSans-61" transform="translate(396.875 0.015625)"/>
      <use xlink:href="#DejaVuSans-63" transform="translate(458.154297 0.015625)"/>
      <use xlink:href="#DejaVuSans-74" transform="translate(513.134766 0.015625)"/>
      <use xlink:href="#DejaVuSans-69" transform="translate(552.34375 0.015625)"/>
      <use xlink:href="#DejaVuSans-6f" transform="translate(580.126953 0.015625)"/>
      <use xlink:href="#DejaVuSans-6e" transform="translate(641.308594 0.015625)"/>
      <use xlink:href="#DejaVuSans-2c" transform="translate(704.6875 0.015625)"/>
      <use xlink:href="#DejaVuSans-20" transform="translate(736.474609 0.015625)"/>
      <use xlink:href="#DejaVuSans-Oblique-78" transform="translate(768.261719 0.015625)"/>
      <use xlink:href="#DejaVuSans-Oblique-41" transform="translate(827.441406 -16.390625) scale(0.7)"/>
     </g>
    </g>
   </g>
   <g id="matplotlib.axis_4">
    <g id="ytick_9"/>
    <g id="ytick_10"/>
    <g id="ytick_11"/>
    <g id="ytick_12"/>
    <g id="ytick_13"/>
    <g id="ytick_14"/>
    <g id="ytick_15"/>
    <g id="ytick_16"/>
    <g id="ytick_17"/>
    <g id="text_11">
     <!-- Temperature -->
     <g transform="translate(23.392177 383.664486) rotate(-90) scale(0.1 -0.1)">
      <defs>
       <path id="DejaVuSans-54" d="M -19 4666 
L 3928 4666 
L 3928 4134 
L 2272 4134 
L 2272 0 
L 1638 0 
L 1638 4134 
L -19 4134 
L -19 4666 
z
" transform="scale(0.015625)"/>
       <path id="DejaVuSans-70" d="M 1159 525 
L 1159 -1331 
L 581 -1331 
L 581 3500 
L 1159 3500 
L 1159 2969 
Q 1341 3281 1617 3432 
Q 1894 3584 2278 3584 
Q 2916 3584 3314 3078 
Q 3713 2572 3713 1747 
Q 3713 922 3314 415 
Q 2916 -91 2278 -91 
Q 1894 -91 1617 61 
Q 1341 213 1159 525 
z
M 3116 1747 
Q 3116 2381 2855 2742 
Q 2594 3103 2138 3103 
Q 1681 3103 1420 2742 
Q 1159 2381 1159 1747 
Q 1159 1113 1420 752 
Q 1681 391 2138 391 
Q 2594 391 2855 752 
Q 3116 1113 3116 1747 
z
" transform="scale(0.015625)"/>
       <path id="DejaVuSans-75" d="M 544 1381 
L 544 3500 
L 1119 3500 
L 1119 1403 
Q 1119 906 1312 657 
Q 1506 409 1894 409 
Q 2359 409 2629 706 
Q 2900 1003 2900 1516 
L 2900 3500 
L 3475 3500 
L 3475 0 
L 2900 0 
L 2900 538 
Q 2691 219 2414 64 
Q 2138 -91 1772 -91 
Q 1169 -91 856 284 
Q 544 659 544 1381 
z
M 1991 3584 
L 1991 3584 
z
" transform="scale(0.015625)"/>
      </defs>
      <use xlink:href="#DejaVuSans-54"/>
      <use xlink:href="#DejaVuSans-65" x="44.083984"/>
      <use xlink:href="#DejaVuSans-6d" x="105.607422"/>
      <use xlink:href="#DejaVuSans-70" x="203.019531"/>
      <use xlink:href="#DejaVuSans-65" x="266.496094"/>
      <use xlink:href="#DejaVuSans-72" x="328.019531"/>
      <use xlink:href="#DejaVuSans-61" x="369.132812"/>
      <use xlink:href="#DejaVuSans-74" x="430.412109"/>
      <use xlink:href="#DejaVuSans-75" x="469.621094"/>
      <use xlink:href="#DejaVuSans-72" x="533"/>
      <use xlink:href="#DejaVuSans-65" x="571.863281"/>
     </g>
    </g>
   </g>
   <g id="line2d_18">
    <path d="M 323.528136 254.179459 
L 316.715512 263.961008 
L 309.408917 273.742558 
L 301.572534 283.524107 
L 293.16795 293.305657 
L 284.153964 303.087207 
L 274.486391 312.868756 
L 264.117839 322.650306 
L 252.997483 332.431855 
L 241.070809 342.213405 
L 228.279355 351.994955 
L 214.560415 361.776504 
L 199.84674 371.558054 
L 184.066203 381.339603 
L 167.141448 391.121153 
L 148.98951 400.902702 
L 129.521408 410.684252 
L 108.641709 420.465802 
L 86.248061 430.247351 
L 62.230691 440.028901 
L 36.471864 449.81045 
" clip-path="url(#pb8ac5af569)" style="fill: none; stroke: #ff0000; stroke-width: 1.5; stroke-linecap: square"/>
   </g>
   <g id="line2d_19">
    <path d="M 323.528136 254.179459 
L 297.769309 263.961008 
L 273.751939 273.742558 
L 251.358291 283.524107 
L 230.478592 293.305657 
L 211.01049 303.087207 
L 192.858552 312.868756 
L 175.933797 322.650306 
L 160.15326 332.431855 
L 145.439585 342.213405 
L 131.720645 351.994955 
L 118.929191 361.776504 
L 107.002517 371.558054 
L 95.882161 381.339603 
L 85.513609 391.121153 
L 75.846036 400.902702 
L 66.83205 410.684252 
L 58.427466 420.465802 
L 50.591083 430.247351 
L 43.284488 440.028901 
L 36.471864 449.81045 
" clip-path="url(#pb8ac5af569)" style="fill: none; stroke: #0000ff; stroke-width: 1.5; stroke-linecap: square"/>
   </g>
   <g id="line2d_20">
    <path d="M 36.471864 391.121153 
L 323.528136 391.121153 
L 323.528136 391.121153 
" clip-path="url(#pb8ac5af569)" style="fill: none; stroke-dasharray: 2.775,1.2; stroke-dashoffset: 0; stroke: #000000; stroke-width: 0.75"/>
   </g>
   <g id="line2d_21">
    <g clip-path="url(#pb8ac5af569)">
     <use xlink:href="#m3670adcd7b" x="167.141448" y="391.121153" style="stroke: #000000"/>
    </g>
   </g>
   <g id="line2d_22">
    <g clip-path="url(#pb8ac5af569)">
     <use xlink:href="#m3670adcd7b" x="85.513609" y="391.121153" style="stroke: #000000"/>
    </g>
   </g>
   <g id="patch_10">
    <path d="M 36.471864 459.592 
L 36.471864 244.397909 
" style="fill: none; stroke: #000000; stroke-width: 0.8; stroke-linejoin: miter; stroke-linecap: square"/>
   </g>
   <g id="patch_11">
    <path d="M 323.528136 459.592 
L 323.528136 244.397909 
" style="fill: none; stroke: #000000; stroke-width: 0.8; stroke-linejoin: miter; stroke-linecap: square"/>
   </g>
   <g id="patch_12">
    <path d="M 36.471864 459.592 
L 323.528136 459.592 
" style="fill: none; stroke: #000000; stroke-width: 0.8; stroke-linejoin: miter; stroke-linecap: square"/>
   </g>
   <g id="patch_13">
    <path d="M 36.471864 244.397909 
L 323.528136 244.397909 
" style="fill: none; stroke: #000000; stroke-width: 0.8; stroke-linejoin: miter; stroke-linecap: square"/>
   </g>
   <g id="text_12">
    <!-- $T_B^{\alpha\rightarrow\beta}$ -->
    <g transform="translate(11.671864 449.81045) scale(0.1 -0.1)">
     <defs>
      <path id="DejaVuSans-Oblique-54" d="M 378 4666 
L 4325 4666 
L 4225 4134 
L 2559 4134 
L 1759 0 
L 1125 0 
L 1925 4134 
L 275 4134 
L 378 4666 
z
" transform="scale(0.015625)"/>
      <path id="DejaVuSans-2192" d="M 5050 2147 
L 5050 1866 
L 3822 638 
L 3447 1013 
L 4175 1741 
L 366 1741 
L 366 2272 
L 4175 2272 
L 3447 3000 
L 3822 3375 
L 5050 2147 
z
" transform="scale(0.015625)"/>
     </defs>
     <use xlink:href="#DejaVuSans-Oblique-54" transform="translate(0 0.625)"/>
     <use xlink:href="#DejaVuSans-Oblique-3b1" transform="translate(68.100755 51.373438) scale(0.7)"/>
     <use xlink:href="#DejaVuSans-2192" transform="translate(127.881029 51.373438) scale(0.7)"/>
     <use xlink:href="#DejaVuSans-Oblique-3b2" transform="translate(200.171068 51.373438) scale(0.7)"/>
     <use xlink:href="#DejaVuSans-Oblique-42" transform="translate(61.083984 -26.71875) scale(0.7)"/>
    </g>
   </g>
   <g id="text_13">
    <!-- $T_A^{\alpha\rightarrow\beta}$ -->
    <g transform="translate(323.528136 254.179459) scale(0.1 -0.1)">
     <use xlink:href="#DejaVuSans-Oblique-54" transform="translate(0 0.625)"/>
     <use xlink:href="#DejaVuSans-Oblique-3b1" transform="translate(68.100755 51.373438) scale(0.7)"/>
     <use xlink:href="#DejaVuSans-2192" transform="translate(127.881029 51.373438) scale(0.7)"/>
     <use xlink:href="#DejaVuSans-Oblique-3b2" transform="translate(200.171068 51.373438) scale(0.7)"/>
     <use xlink:href="#DejaVuSans-Oblique-41" transform="translate(61.083984 -26.71875) scale(0.7)"/>
    </g>
   </g>
   <g id="text_14">
    <!-- $\beta$ -->
    <g style="fill: #0000ff" transform="translate(65.177491 265.917318) scale(0.16 -0.16)">
     <use xlink:href="#DejaVuSans-Oblique-3b2" transform="translate(0 0.390625)"/>
    </g>
   </g>
   <g id="text_15">
    <!-- $\alpha+\beta$ -->
    <g transform="translate(180 351.994955) scale(0.16 -0.16)">
     <defs>
      <path id="DejaVuSans-2b" d="M 2944 4013 
L 2944 2272 
L 4684 2272 
L 4684 1741 
L 2944 1741 
L 2944 0 
L 2419 0 
L 2419 1741 
L 678 1741 
L 678 2272 
L 2419 2272 
L 2419 4013 
L 2944 4013 
z
" transform="scale(0.015625)"/>
     </defs>
     <use xlink:href="#DejaVuSans-Oblique-3b1" transform="translate(0 0.390625)"/>
     <use xlink:href="#DejaVuSans-2b" transform="translate(85.400391 0.390625)"/>
     <use xlink:href="#DejaVuSans-Oblique-3b2" transform="translate(188.671875 0.390625)"/>
    </g>
   </g>
   <g id="text_16">
    <!-- $\alpha$ -->
    <g style="fill: #ff0000" transform="translate(294.822509 438.072591) scale(0.16 -0.16)">
     <use xlink:href="#DejaVuSans-Oblique-3b1" transform="translate(0 0.84375)"/>
    </g>
   </g>
  </g>
 </g>
 <defs>
  <clipPath id="pb821c52752">
   <rect x="36.471864" y="10.8" width="287.056271" height="215.194091"/>
  </clipPath>
  <clipPath id="pb8ac5af569">
   <rect x="36.471864" y="244.397909" width="287.056271" height="215.194091"/>
  </clipPath>
 </defs>
</svg>
